<svg width="112" height="58" viewBox="0 0 112 58" fill="none" xmlns="http://www.w3.org/2000/svg">
<path d="M6.04557 39.7907H7.50663C8.23717 39.7907 8.68848 39.3392 8.68848 38.6084V20.7764H5.17705C4.44814 20.7764 3.9952 21.2279 3.9952 21.9928V26.3371H0V17.3691H21.614V26.3371H17.6529V21.9928C17.6529 21.2279 17.2 20.7764 16.4711 20.7764H12.9613V38.6084C12.9613 39.3392 13.4126 39.7907 14.1431 39.7907H15.6042V43.4416H6.04557V39.7907Z" fill="white"/>
<path d="M56.4531 39.7907H57.8769C58.6074 39.7907 59.0587 39.3392 59.0587 38.6084V22.2056C59.0587 21.4764 58.6074 21.0232 57.8769 21.0232H56.4531V17.3691H67.114V21.0184H64.5166C63.7861 21.0184 63.3347 21.4715 63.3347 22.2007V27.6234H76.1223V22.2007C76.1223 21.4715 75.671 21.0184 74.9405 21.0184H72.3333V17.3691H83.0007V21.0184H81.577C80.8464 21.0184 80.3951 21.4715 80.3951 22.2007V38.6036C80.3951 39.3344 80.8464 39.7859 81.577 39.7859H83.0007V43.4367H72.3333V39.7907H74.9389C75.6694 39.7907 76.1207 39.3392 76.1207 38.6084V31.2742H63.3331V38.6084C63.3331 39.3392 63.7844 39.7907 64.515 39.7907H67.114V43.4416H56.4531V39.7907Z" fill="white"/>
<path d="M55.1566 31.3327V27.9449H47.0786V28.5751C47.067 31.6381 46.543 34.6775 45.5282 37.5674L37.1482 27.9953L37.9599 27.4398C43.0119 23.8491 45.2652 20.4564 45.2652 16.4337C45.2652 11.5469 41.5135 8 36.3365 8C31.002 8 26.9792 11.8604 26.9792 16.9794C26.9792 20.0975 28.1545 22.7902 30.9127 25.9815L32.153 27.4139L29.049 29.655C24.1561 33.0655 22.0684 36.3445 22.0684 40.6076C22.0684 45.5106 25.5603 50.7888 33.2277 50.7888C37.4566 50.7888 41.1953 49.2524 44.0396 46.3503C44.8711 45.5124 45.6092 44.5867 46.2409 43.5894L51.8254 50.0255H54.9667V48.4242L47.9179 40.3397C49.1192 37.478 49.8104 34.428 49.9601 31.3278L55.1566 31.3327ZM34.3933 29.9717L43.9486 40.9649C43.3507 41.9865 42.6234 42.9265 41.7846 43.7615C40.6805 44.8784 39.3659 45.7652 37.9168 46.3704C36.4678 46.9756 34.9132 47.2872 33.3429 47.2873C28.1253 47.2873 25.7892 43.8768 25.7892 40.4956C25.7892 37.3969 27.4029 34.9738 31.3591 32.1301L34.3933 29.9717ZM34.9615 25.4341L33.3689 23.6477C31.4322 21.2928 30.6432 19.4089 30.6432 17.1515C30.6432 13.4503 33.5507 11.4511 36.2862 11.4511C39.5492 11.4511 41.658 13.4958 41.658 16.661C41.658 20.0472 39.2797 22.4102 35.7066 24.9177L34.9615 25.4341Z" fill="white"/>
</svg>
