<svg width="929" height="567" viewBox="0 0 929 567" fill="none" xmlns="http://www.w3.org/2000/svg">
<path d="M923 130.309L609.395 130.319C581.976 130.319 516.831 129.019 489.561 132.489C468.311 135.189 446.831 140.708 428.621 152.378C412.931 162.553 400.57 177.107 393.071 194.238C387.991 205.618 384.551 217.508 378.701 228.598C372.712 240.205 365.05 250.869 355.961 260.248C340.531 275.828 318.531 286.998 296.651 278.548C291.001 276.368 285.791 273.248 282.061 268.388C277.871 262.918 276.431 256.538 275.871 249.798C275.291 242.798 275.461 235.688 275.431 228.648C275.371 215.918 274.961 203.038 275.731 190.308C276.225 182.695 277.587 175.163 279.791 167.858C288.691 137.948 308.431 112.749 317.891 83.0687C320.215 75.8782 321.737 68.4533 322.431 60.9287L322.361 61.8187C322.421 61.0687 322.481 60.3087 322.521 59.5487C322.881 51.1821 322.885 58.0687 322.531 80.2087C322.838 102.289 322.838 109.265 322.531 101.139C322.531 100.559 322.461 99.9786 322.421 99.3986L322.481 100.289C321.231 85.7687 315.191 71.2087 304.481 61.1187C293.771 51.0288 278.421 47.1788 264.271 52.3988C249.541 57.8487 238.271 71.0687 232.721 85.4687C228.022 97.6086 226.311 111.109 224.251 123.889C222.461 135.068 221.192 146.398 218.862 157.478C218.522 159.098 218.362 162.158 216.202 162.348C213.752 162.568 211.392 159.138 210.132 157.508C203.372 148.708 198.482 138.358 193.132 128.699C187.902 119.329 182.712 108.769 174.792 101.329C168.552 95.4586 160.842 90.8486 152.222 89.7886C144.872 89.031 137.469 90.5829 131.042 94.2286C117.782 101.449 106.642 115.489 102.572 130.009C101.34 134.656 100.563 139.411 100.252 144.208L100.322 143.318C100.242 144.468 100.182 145.618 100.122 146.778C100.062 147.938 100.072 148.308 100.122 147.638C100.282 134.792 100.282 121.942 100.122 109.089C100.032 107.499 100.202 110.339 100.212 110.509C100.212 111.509 100.322 112.509 100.402 113.509L100.332 112.609C101.892 131.689 108.242 152.318 123.752 164.728C132.752 171.898 143.652 176.938 153.752 182.218C167.962 189.628 182.302 196.818 196.322 204.598C207.962 211.058 220.142 217.738 230.022 226.768C233.742 230.158 236.572 233.768 238.022 238.608C238.68 240.935 239.092 243.325 239.252 245.738C240.012 255.798 239.582 266.028 239.572 276.098C239.562 286.168 240.652 297.488 238.092 307.538C232.442 329.668 210.612 342.208 189.852 347.418C174.222 351.348 158.422 349.568 143.252 344.908C129.052 340.548 114.672 336.678 100.122 333.678C83.552 330.248 66.842 327.898 49.9821 330.488C30.4021 333.488 10.7122 342.668 3.82227 362.608C2.14159 367.749 1.11018 373.081 0.752197 378.478L0.822144 377.588C0.722144 379.008 0.662153 380.428 0.582153 381.848C0.872152 376.678 0.802153 350.018 0.582153 344.728C0.582153 343.588 0.582153 345.348 0.582153 345.418C0.792153 351.368 0.952178 357.318 0.982178 363.278C0.982178 367.618 0.982178 371.951 0.982178 376.278V567L0.482178 375.828L0.682251 399.998C0.142253 387.338 0.122314 374.678 0.122314 361.998C0.122314 349.318 -0.527856 336.328 1.19214 323.728C2.81213 311.848 7.80214 300.948 17.2921 293.358C33.4221 280.448 56.722 277.838 76.652 279.888C95.5019 281.818 114.122 286.498 132.312 291.668C137.642 293.188 142.942 294.768 148.212 296.458C157.212 299.348 167.382 300.088 176.732 299.458C203.892 297.628 236.492 280.668 239.162 250.688L239.091 251.578C239.591 243.231 239.608 250.288 239.142 272.748C239.682 295.208 239.655 302.268 239.062 293.928L239.132 294.818C238.622 289.908 237.341 285.078 234.232 281.178C231.808 278.289 229.064 275.686 226.052 273.418C217.822 266.908 208.672 261.548 199.542 256.418C179.362 245.018 158.352 235.188 138.142 223.858C130.722 219.698 123.492 215.438 117.782 209.008C107.392 197.328 102.372 181.848 100.642 166.538C100.242 162.968 100.002 159.378 99.9019 155.798C99.4219 140.248 99.582 124.649 99.752 109.099C99.862 98.8386 99.9019 88.2786 103.042 78.3987C107.727 64.402 117.242 52.5302 129.882 44.9088C143.292 37.1088 158.422 38.4388 170.672 47.8588C179.532 54.6388 185.082 64.5387 190.532 74.0987C196.102 83.8886 201.162 94.0286 207.332 103.469C208.552 105.349 215.242 116.129 217.972 110.999C219.272 108.549 219.392 104.919 219.852 102.229C220.772 96.8186 221.571 91.3886 222.391 85.9586C224.341 73.1887 226.242 60.3587 229.161 47.7688C232.331 34.0888 238.222 21.4889 248.822 11.9489C259.531 2.24891 274.381 -2.81107 288.601 1.61891C301.451 5.6189 311.081 16.3189 316.651 28.2388C319.649 34.6472 321.572 41.5056 322.341 48.5388C323.211 56.6287 322.911 64.8887 322.931 72.9987C322.931 85.2986 323.421 97.7586 322.501 109.999C319.681 147.628 293.571 177.588 281.591 212.248C278.605 220.641 276.687 229.376 275.881 238.248L275.951 237.358C275.871 238.508 275.821 239.648 275.761 240.798V198.358C275.761 199.128 275.841 199.898 275.901 200.668L275.831 199.778C276.831 211.058 281.171 220.848 291.621 226.268C299.515 230.443 308.469 232.183 317.351 231.268C336.301 229.178 352.181 215.808 363.721 201.478C370.701 192.718 376.647 183.181 381.441 173.058C385.841 163.898 388.661 154.178 392.741 144.898C398.901 130.526 408.474 117.873 420.631 108.039C448.041 86.2586 486.031 80.6587 520.041 80.3087C539.72 80.1087 589.716 80.2087 609.395 80.2087L634.53 80.3087C637.29 80.3087 643.13 80.3087 643.13 80.3087C643.516 80.3336 929 80.3087 929 80.3087V130.309H923Z" fill="#2C2A29"/>
</svg>
