<svg width="199" height="103" viewBox="0 0 199 103" fill="none" xmlns="http://www.w3.org/2000/svg">
<path d="M15.1865 76.5152H18.6669C20.4072 76.5152 21.4822 75.4391 21.4822 73.6973V31.1969H13.1176C11.3812 31.1969 10.3023 32.273 10.3023 34.0961V44.4502H0.785156V23.0762H52.2727V44.4502H42.8368V34.0961C42.8368 32.273 41.7578 31.1969 40.0215 31.1969H31.6606V73.6973C31.6606 75.4391 32.7357 76.5152 34.4759 76.5152H37.9564V85.2165H15.1865V76.5152Z" fill="white"/>
<path d="M135.254 76.5152H138.645C140.386 76.5152 141.461 75.4391 141.461 73.6973V34.6031C141.461 32.8652 140.386 31.7853 138.645 31.7853H135.254V23.0762H160.65V31.7737H154.462C152.722 31.7737 151.647 32.8536 151.647 34.5915V47.5158H182.108V34.5915C182.108 32.8536 181.033 31.7737 179.293 31.7737H173.083V23.0762H198.494V31.7737H195.102C193.362 31.7737 192.287 32.8536 192.287 34.5915V73.6857C192.287 75.4275 193.362 76.5036 195.102 76.5036H198.494V85.2049H173.083V76.5152H179.289C181.03 76.5152 182.105 75.4391 182.105 73.6973V56.2172H151.643V73.6973C151.643 75.4391 152.718 76.5152 154.458 76.5152H160.65V85.2165H135.254V76.5152Z" fill="white"/>
<path d="M132.172 56.3546V48.2803H112.929V49.7822C112.902 57.0824 111.653 64.3265 109.236 71.2143L89.2737 48.4003L91.2073 47.0765C103.242 38.5184 108.61 30.4325 108.61 20.8447C108.61 9.19777 99.6725 0.744141 87.3401 0.744141C74.6326 0.744141 65.0498 9.94482 65.0498 22.1453C65.0498 29.5771 67.8496 35.9947 74.4199 43.6006L77.3744 47.0146L69.9804 52.3562C58.3247 60.4847 53.3516 68.2996 53.3516 78.4602C53.3516 90.1459 61.6698 102.726 79.9345 102.726C90.0085 102.726 98.9146 99.064 105.69 92.1471C107.671 90.1501 109.429 87.9438 110.934 85.5669L124.237 100.906H131.72V97.09L114.929 77.8216C117.79 71.0012 119.437 63.7319 119.793 56.343L132.172 56.3546ZM82.7111 53.111L105.473 79.3118C104.049 81.7466 102.316 83.9869 100.318 85.9771C97.6881 88.6392 94.5565 90.7526 91.1047 92.195C87.6529 93.6374 83.9496 94.3803 80.2091 94.3805C67.78 94.3805 62.2151 86.252 62.2151 78.1932C62.2151 70.8078 66.0591 65.0327 75.4834 58.2551L82.7111 53.111ZM84.0646 42.2962L80.2709 38.0384C75.6574 32.4259 73.778 27.9359 73.778 22.5556C73.778 13.7342 80.7041 8.9694 87.2202 8.9694C94.9932 8.9694 100.017 13.8426 100.017 21.3866C100.017 29.4571 94.3513 35.0889 85.8397 41.0653L84.0646 42.2962Z" fill="white"/>
</svg>
