<svg width="672" height="194" viewBox="0 0 672 194" fill="none" xmlns="http://www.w3.org/2000/svg">
<path d="M27.1999 81.6H31.7999C33.6999 81.8 35.2999 80.4 35.4999 78.5C35.4999 78.3 35.4999 78.1 35.4999 77.9V22.1H24.4999C22.5999 22 20.8999 23.4 20.7999 25.3C20.7999 25.5 20.7999 25.7 20.7999 25.9V39.5H6.3999V11.5H75.7999V39.5H63.4999V25.9C63.6999 24 62.2999 22.3 60.3999 22.1C60.1999 22.1 59.9999 22.1 59.7999 22.1H48.7999V77.9C48.5999 79.8 49.9999 81.4 51.8999 81.6C52.0999 81.6 52.2999 81.6 52.4999 81.6H56.9999V93H27.1999V81.6Z" fill="white"/>
<path d="M70.6001 63.3C70.6001 45.8 83.9001 31.9 101.3 31.9C119 31.9 132.2 45.8 132.2 63.3C132.2 81.1 119 94.7 101.3 94.7C83.7001 94.7 70.6001 81.1 70.6001 63.3ZM118.5 63.3C118.5 52 111.4 43.5 101.2 43.5C91.2001 43.5 84.1001 52 84.1001 63.3C84.1001 74.6 91.2001 83.1 101.2 83.1C111.4 83.1 118.5 74.6 118.5 63.3Z" fill="white"/>
<path d="M133.8 81.6H138.4C140.3 81.8 141.9 80.4 142.1 78.6C142.1 78.4 142.1 78.1 142.1 77.9V48.7C142.1 46.3 140.8 44.9 138.4 44.9H133.8V33.5H154.6V44.4C157.9 36.9 165.3 32 173.5 31.9C175.1 31.9 176.8 32.2 178.3 32.8V45.1C176.5 44.6 174.6 44.3 172.7 44.3C162.6 44.3 155.2 50.1 155.2 61.5V77.8C155.1 79.7 156.5 81.4 158.4 81.5C158.6 81.5 158.8 81.5 159 81.5H166.4V93H133.9L133.8 81.6Z" fill="white"/>
<path d="M194.1 72.6V48.7C194.3 46.8 192.9 45.1 191 44.9C190.8 44.9 190.6 44.9 190.4 44.9H182.9V33.5H194.1V16.1H207V33.5H224.9V44.9H210.8C208.9 44.7 207.2 46.1 207 48C207 48.2 207 48.4 207 48.7V72.6C207 78.6 210.6 82.1 217 82.1C219.4 82.1 223.3 81.6 224.9 80.6V92.6C222.9 93.7 218.9 94.2 215.5 94.2C202.3 94.2 194.1 86.1 194.1 72.6Z" fill="white"/>
<path d="M302 81.6H306.4C308.3 81.8 310 80.4 310.2 78.5C310.2 78.3 310.2 78.1 310.2 77.9V48.7C310.4 46.8 309 45.1 307.1 44.9C306.9 44.9 306.7 44.9 306.4 44.9H302V33.5H323.3V77.8C323.1 79.7 324.5 81.3 326.3 81.5C326.5 81.5 326.7 81.5 327 81.5H331.6V93H302V81.6ZM306.6 13C306.6 7.6 309.9 4.6 315.2 4.6C320.7 4.6 323.8 7.5 323.8 13C323.8 18.5 320.8 21.4 315.2 21.4C309.8 21.3 306.6 18.3 306.6 13Z" fill="white"/>
<path d="M350.5 87L350.1 93H338.8V73.4H350.5V73.6C350.9 75.9 352 78 353.7 79.7C356.3 82.3 359.9 83.7 363.6 83.5C366.3 83.6 369 82.7 371.1 80.9C372.5 79.5 373.3 77.6 373.3 75.6C373.4 73.8 372.7 72 371.5 70.7C369.8 69.2 367.7 68.3 365.5 68L355.4 66C350.3 65 346.5 63.2 343.9 60.7C341.1 57.8 339.6 53.9 339.8 49.8C339.8 45.1 341.6 40.6 344.8 37.2C348.6 33.7 353.5 31.8 358.7 31.9C364.6 31.9 369.8 34.1 373.1 38.6L373.5 33.5H384V50.1H372.8V49.9C372.2 47.6 370.5 45.6 368.3 44.6C366.3 43.5 364 43 361.7 43C359 42.9 356.3 43.8 354.2 45.6C353 46.6 352.3 48.2 352.4 49.8C352.3 51.2 352.8 52.6 353.8 53.6C355.2 54.7 356.8 55.4 358.6 55.7L368.7 57.7C374.5 58.8 378.7 60.7 381.4 63.5C384.6 66.6 386 70.9 386 75.7C386.1 80.9 384.1 85.9 380.5 89.6C377 93.1 372.2 95 367.2 94.9C360.1 94.7 354.5 92 350.5 87Z" fill="white"/>
<path d="M391.7 63.4C391.7 45.7 404.8 31.9 421.8 31.9C436.9 31.9 449.7 42.6 449.7 61C449.7 63.2 449.5 65.4 449 67.5H405.3C406.9 77.3 413.8 82.8 425.4 82.8C435.6 82.8 444 78.8 448.3 73.5H448.7L448.9 86.1C444 91.3 434 94.7 424.4 94.7C405.1 94.7 391.7 82 391.7 63.4ZM436.6 57.2C436 48.7 430.4 43.5 421.5 43.5C413.6 43.5 407.5 48.6 405.7 57.2H436.6Z" fill="white"/>
<path d="M339.4 174.2H343.9C345.8 174.4 347.4 173 347.6 171.1C347.6 170.9 347.6 170.7 347.6 170.5V119.2C347.8 117.3 346.4 115.7 344.5 115.5C344.3 115.5 344.1 115.5 343.9 115.5H339.4V104H372.8V115.4H364.7C362.8 115.2 361.2 116.6 361 118.5C361 118.7 361 118.9 361 119.1V136.1H401V119.1C401.2 117.2 399.8 115.6 397.9 115.4C397.7 115.4 397.5 115.4 397.3 115.4H389.2V104H422.5V115.4H418C416.1 115.2 414.5 116.6 414.3 118.5C414.3 118.7 414.3 118.9 414.3 119.1V170.4C414.1 172.3 415.5 173.9 417.4 174.1C417.6 174.1 417.8 174.1 418 174.1H422.5V185.5H389.2V174.1H397.3C399.2 174.3 400.8 172.9 401 171C401 170.8 401 170.6 401 170.4V147.5H361V170.4C360.9 172.3 362.3 173.9 364.1 174.1C364.3 174.1 364.5 174.1 364.7 174.1H372.8V185.5H339.4V174.2Z" fill="white"/>
<path d="M488.2 174.2V185.6H469.9V173C469 175.2 467.7 177.3 466.1 179.1C460.8 184.5 453.6 187.6 446 187.5C435.1 187.5 427.6 180.5 427.5 170.9C427.5 158.3 438.1 154.1 451.3 151.5C458.3 150.1 464.7 149.2 467.5 146.4C468.5 145.5 469.1 144.2 469 142.8C469 138.8 466 135.6 458.2 135.6C449.2 135.6 441.9 140.1 440.9 145.2V145.4H430.3V126.3H441.8V133.2C446.3 127.4 453.9 124.7 461 124.7C472.9 124.7 480.9 132 480.9 143.9V170.6C480.7 172.5 482.1 174.1 483.9 174.3C484.1 174.3 484.3 174.3 484.6 174.3L488.2 174.2ZM469.3 156.4C466.7 158.6 461.7 159.5 456.9 160.5C448.8 162.2 440.9 163.9 440.9 170.1C440.9 174 444.5 176.7 449.3 176.7C454.5 176.5 459.4 174.3 463 170.5C466.7 166.8 469 161.8 469.3 156.4Z" fill="white"/>
<path d="M493.6 174.2H498.2C500.1 174.4 501.7 173 501.9 171.2C501.9 171 501.9 170.8 501.9 170.5V141.4C501.9 139 500.6 137.6 498.2 137.6H493.6V126.2H514.4V137.1C517.7 129.6 525.1 124.7 533.3 124.6C534.9 124.6 536.6 124.9 538.1 125.5V137.9C536.3 137.4 534.3 137.1 532.4 137.1C522.3 137.1 514.9 142.9 514.9 154.3V170.6C514.8 172.5 516.2 174.2 518.1 174.3C518.3 174.3 518.5 174.3 518.7 174.3H526.1V185.7H493.6V174.2Z" fill="white"/>
<path d="M537.1 156.1C537.1 138.4 550.3 124.6 567.2 124.6C582.3 124.6 595.1 135.3 595.1 153.7C595.1 155.9 594.9 158.1 594.4 160.2H550.7C552.3 170 559.2 175.5 570.8 175.5C581 175.5 589.4 171.5 593.7 166.1H594.1L594.3 178.7C589.4 183.9 579.4 187.3 569.8 187.3C550.5 187.4 537.1 174.7 537.1 156.1ZM582 149.9C581.3 141.4 575.8 136.2 566.9 136.2C559 136.2 552.9 141.3 551.1 149.9H582Z" fill="white"/>
<path d="M331.9 116.8V104.3H302.2V106.6C302.1 117.9 300.2 129.1 296.5 139.7L265.7 104.5L268.7 102.5C287.3 89.3 295.6 76.8 295.6 62C295.6 44 281.8 31 262.8 31C243.2 31 228.3 45.2 228.3 64C228.3 75.5 232.6 85.4 242.8 97.1L247.4 102.4L236 110.6C218 123.2 210.3 135.2 210.3 150.9C210.3 168.9 223.2 188.3 251.4 188.3C267 188.3 280.7 182.7 291.2 172C294.3 168.9 297 165.5 299.3 161.8L319.8 185.5H331.4V179.6L305.4 149.9C309.8 139.4 312.4 128.2 312.9 116.7H331.9V116.8ZM255.5 111.8L290.7 152.2C288.5 156 285.8 159.4 282.7 162.5C274.5 170.8 263.3 175.5 251.6 175.5C232.4 175.5 223.8 162.9 223.8 150.5C223.8 139.1 229.7 130.2 244.3 119.7L255.5 111.8ZM257.6 95.1L251.7 88.5C244.6 79.8 241.7 72.9 241.7 64.6C241.7 51 252.4 43.6 262.5 43.6C274.5 43.6 282.3 51.1 282.3 62.8C282.3 75.3 273.5 83.9 260.4 93.2L257.6 95.1Z" fill="white"/>
<path d="M615.4 127.6C611.9 127.6 608.9 126.9 606.4 125.6C603.9 124.3 602 122.3 600.6 119.7C599.3 117.1 598.6 113.9 598.6 110.3C598.6 106.6 599.3 103.3 600.7 100.5C602.1 97.7 604 95.6 606.6 94.1C609.1 92.6 612.1 91.9 615.5 91.9C618.6 91.9 621.3 92.4 623.5 93.5C625.7 94.6 627.5 96.1 628.7 98.1C629.9 100.1 630.5 102.4 630.6 105.1L624.8 105.7C624.6 103.1 623.7 101 622.2 99.4C620.7 97.8 618.4 97.1 615.5 97.1C613.4 97.1 611.6 97.6 610 98.7C608.4 99.8 607.3 101.3 606.5 103.2C605.7 105.1 605.3 107.5 605.3 110.2C605.3 112.8 605.7 115 606.6 116.8C607.5 118.6 608.7 120 610.2 121C611.7 122 613.6 122.4 615.7 122.4C618.4 122.4 620.5 121.7 621.9 120.4C623.3 119.1 624.3 117.4 624.8 115.3L630.5 116.5C629.9 119.6 628.4 122.2 625.9 124.4C623.7 126.5 620.1 127.6 615.4 127.6Z" fill="white"/>
<path d="M632.1 127L645.2 106.4L648.2 109.2C648.2 110.2 648 111.2 647.7 112.3C647.3 113.4 646.8 114.6 646.1 116L645.5 117L639.5 127.1H632.1V127ZM644.6 109.9L633.2 92.5H640.7L645.5 100.6C646 101.5 646.5 102.3 647 103.2C647.4 104.1 647.8 105 648 105.9C648.2 106.8 648.4 107.7 648.4 108.6L644.6 109.9ZM646.3 111.1V106.2H650.8V111.1H646.3ZM648.8 108.5C648.8 107.6 648.9 106.8 649.1 105.9C649.3 105 649.6 104.2 650.1 103.4C650.5 102.6 650.9 101.7 651.4 100.9L651.5 100.8L651.6 100.7L656.3 92.6H663.6L652 110.1L648.8 108.5ZM651.3 116.9C651.3 116.8 651.2 116.8 651.2 116.8C650.8 116 650.4 115.1 650 114.2C649.6 113.3 649.3 112.4 649.1 111.6C648.9 110.8 648.8 109.9 648.8 109.1L651.8 106.3L664.7 126.9H657.2L651.3 116.9Z" fill="white"/>
</svg>
