<?xml version="1.0" standalone="no"?>
<!DOCTYPE svg PUBLIC "-//W3C//DTD SVG 1.1//EN" "http://www.w3.org/Graphics/SVG/1.1/DTD/svg11.dtd" >
<svg xmlns="http://www.w3.org/2000/svg" xmlns:xlink="http://www.w3.org/1999/xlink" version="1.1">
<metadata>
Created by FontForge 20170731 at Tue Dec 21 16:22:23 2021
 By Aleksey,,,
Copyright (c) 2021 by Andre's Felipe Rami'rez. Distributed by Sudtipos. All rights reserved.
</metadata>
<defs>
<font id="VastagoGrotesk-Light" horiz-adv-x="1378" >
  <font-face 
    font-family="Vastago Grotesk Light"
    font-weight="300"
    font-stretch="normal"
    units-per-em="2048"
    panose-1="0 0 4 0 0 0 0 0 0 0"
    ascent="1638"
    descent="-410"
    x-height="1024"
    cap-height="1413"
    bbox="-1001 -455 2312 1935"
    underline-thickness="102"
    underline-position="-307"
    unicode-range="U+0020-FB02"
  />
<missing-glyph horiz-adv-x="927" 
d="M172 1444h588v-1854h-588v1854zM616 1260v59h-305v-59h121v-70h-123v-62h307v62h-120v70h120zM496 950v131h-187v-192h307v61h-120zM371 1018h61v-68h-61v68zM616 776v62h-307v-62h123v-67h-123v-62h187v129h120zM616 541v186h-59v-123h-248v-63h307zM616 291v209h-184
v-103h64v41h61v-86h-186v148h-62v-209h307zM616 -29v209h-307v-209h307zM371 119h186v-88h-186v88zM616 -133v61h-307v-61h129l-129 -88v-62h307v62h-188l129 88h59z" />
    <glyph glyph-name="fi" unicode="fi" horiz-adv-x="1183" 
d="M991 1024v-1024h-104v944h-541v-944h-102v944h-183v80h183v119q0 159 100 241t289 82q115 0 204.5 -37t139.5 -83l-64 -64q-41 37 -113.5 66.5t-164.5 29.5q-289 0 -289 -227v-127h645z" />
    <glyph glyph-name="fl" unicode="fl" horiz-adv-x="1327" 
d="M1278 104l31 -77q-24 -17 -75.5 -33.5t-111.5 -16.5q-105 0 -152.5 54.5t-47.5 161.5v1126q-111 59 -283 59q-146 0 -219.5 -53t-73.5 -166v-135h416v-80h-416v-944h-102v944h-183v80h183v121q0 156 99 238.5t288 82.5q232 0 395 -104v-1157q0 -135 125 -135q66 0 127 34
z" />
    <glyph glyph-name="f_f" unicode="ff" horiz-adv-x="1499" 
d="M1085 1159v-135h416v-80h-416v-944h-102v944h-637v-944h-102v944h-183v80h183v98q0 156 78 239t229 83q145 0 250 -76l-53 -74q-80 64 -197 64q-205 0 -205 -219v-115h637v121q0 156 78 238.5t229 82.5q144 0 250 -77l-53 -72q-76 61 -197 61q-205 0 -205 -219z" />
    <glyph glyph-name=".notdef" horiz-adv-x="927" 
d="M172 1444h588v-1854h-588v1854zM616 1260v59h-305v-59h121v-70h-123v-62h307v62h-120v70h120zM496 950v131h-187v-192h307v61h-120zM371 1018h61v-68h-61v68zM616 776v62h-307v-62h123v-67h-123v-62h187v129h120zM616 541v186h-59v-123h-248v-63h307zM616 291v209h-184
v-103h64v41h61v-86h-186v148h-62v-209h307zM616 -29v209h-307v-209h307zM371 119h186v-88h-186v88zM616 -133v61h-307v-61h129l-129 -88v-62h307v62h-188l129 88h59z" />
    <glyph glyph-name=".null" horiz-adv-x="0" 
 />
    <glyph glyph-name="nonmarkingreturn" horiz-adv-x="682" 
 />
    <glyph glyph-name="space" unicode=" " horiz-adv-x="448" 
 />
    <glyph glyph-name="exclam" unicode="!" horiz-adv-x="479" 
d="M279 352h-76q-19 340 -19 1092h111q0 -806 -16 -1092zM240 -23q-43 0 -64.5 24.5t-21.5 61.5q0 38 21.5 62.5t64.5 24.5q42 0 64 -24.5t22 -62.5q0 -36 -22 -61t-64 -25z" />
    <glyph glyph-name="quotedbl" unicode="&#x22;" horiz-adv-x="561" 
d="M154 895h-66l6 549h119zM406 895h-66l6 549h119z" />
    <glyph glyph-name="numbersign" unicode="#" horiz-adv-x="1179" 
d="M1139 1042l-15 -77h-219l-88 -408h221l-14 -78h-223l-103 -479h-75l100 479h-369l-102 -479h-76l100 479h-233l14 78h236l84 408h-234l17 77h233l84 402h84l-86 -402h365l84 402h84l-86 -402h217zM371 557h368l84 408h-364z" />
    <glyph glyph-name="dollar" unicode="$" horiz-adv-x="1267" 
d="M1159 403q0 -193 -133.5 -307t-347.5 -119v-219h-80v222q-194 17 -319.5 130t-169.5 314l92 45q44 -191 163.5 -293t290.5 -102q181 0 289.5 86t108.5 229q0 212 -197 268q-82 25 -230.5 42t-226.5 40q-133 38 -205.5 121.5t-72.5 198.5q0 164 126 268t351 107v221h80
v-223q208 -13 317 -113.5t129 -292.5l-92 -27q-9 76 -33 134t-71 107.5t-127.5 76t-192.5 26.5q-172 0 -274.5 -73.5t-102.5 -200.5q0 -182 218 -240q76 -21 227 -38t235 -41q120 -36 184 -124t64 -223z" />
    <glyph glyph-name="percent" unicode="%" horiz-adv-x="1632" 
d="M434 842q-144 0 -238 90t-94 221q0 132 94 222.5t238 90.5q143 0 236.5 -90.5t93.5 -222.5q0 -131 -93.5 -221t-236.5 -90zM279 0h-105l1174 1444h104zM434 922q107 0 176.5 65.5t69.5 165.5q0 103 -69.5 169.5t-176.5 66.5q-108 0 -177 -66.5t-69 -169.5
q0 -100 69 -165.5t177 -65.5zM1198 -23q-143 0 -237.5 90.5t-94.5 221.5t94.5 221t237.5 90t237.5 -90t94.5 -221t-94.5 -221.5t-237.5 -90.5zM1198 57q107 0 176.5 65.5t69.5 164.5q0 104 -69.5 170.5t-176.5 66.5t-176.5 -66.5t-69.5 -170.5q0 -99 69.5 -164.5
t176.5 -65.5z" />
    <glyph glyph-name="ampersand" unicode="&#x26;" horiz-adv-x="1564" 
d="M1479 0l-99 -2q-3 133 -116 272q-224 -295 -639 -295q-247 0 -392 106.5t-145 295.5q0 90 37 164.5t105 128t153 90.5t190 61q-90 48 -150.5 131.5t-60.5 182.5q0 55 19 104.5t61.5 96t124 74.5t193.5 28q187 0 286 -81t99 -208q0 -62 -23.5 -116.5t-61 -94t-89.5 -72.5
t-104 -54.5t-109 -35.5q105 -65 169.5 -107t161 -114.5t166.5 -138.5q138 249 138 590h84q0 -391 -158 -656q160 -180 160 -350zM465 1124q0 -148 194 -286q385 85 385 305q0 99 -76.5 155t-207.5 56q-139 0 -217 -60.5t-78 -169.5zM639 63q364 0 565 275
q-71 75 -165.5 150.5t-211.5 158.5t-153 111q-221 -41 -350 -134.5t-129 -242.5q0 -148 115.5 -233t328.5 -85z" />
    <glyph glyph-name="quotesingle" unicode="'" horiz-adv-x="301" 
d="M154 895h-66l6 549h119z" />
    <glyph glyph-name="parenleft" unicode="(" horiz-adv-x="489" 
d="M408 -254h-89q-473 823 0 1698h89q-431 -862 0 -1698z" />
    <glyph glyph-name="parenright" unicode=")" horiz-adv-x="489" 
d="M82 1442h88q473 -823 0 -1698h-88q431 862 0 1698z" />
    <glyph glyph-name="asterisk" unicode="*" horiz-adv-x="1052" 
d="M584 1012l-6 -13l256 -260l-72 -61l-213 299q-8 -4 -27 -4l-96 -355l-88 33l149 332q-7 7 -14 21l-354 -93l-17 95l365 34q0 9 2 13l6 12l-258 260l74 61l211 -296q12 6 26 6l97 348l90 -33l-152 -330q14 -14 17 -20l354 92l16 -94l-364 -35q0 -8 -2 -12z" />
    <glyph glyph-name="plus" unicode="+" horiz-adv-x="1009" 
d="M547 756h360v-80h-360v-387h-84v387h-361v80h361v387h84v-387z" />
    <glyph glyph-name="comma" unicode="," horiz-adv-x="399" 
d="M190 143q40 0 63 -27t23 -81q0 -90 -45.5 -189.5t-109.5 -144.5l-53 111q45 19 97.5 75t70.5 113q-19 -23 -56 -23q-38 0 -57 23.5t-19 58.5t22 59.5t64 24.5z" />
    <glyph glyph-name="hyphen" unicode="-" horiz-adv-x="702" 
d="M571 549h-442v86h442v-86z" />
    <glyph glyph-name="period" unicode="." horiz-adv-x="405" 
d="M203 -23q-40 0 -60 22.5t-20 57.5q0 36 20 59t60 23q39 0 59.5 -23t20.5 -59q0 -35 -20.5 -57.5t-59.5 -22.5z" />
    <glyph glyph-name="slash" unicode="/" horiz-adv-x="569" 
d="M98 -252h-78l449 1696h80z" />
    <glyph glyph-name="zero" unicode="0" horiz-adv-x="1173" 
d="M586 -23q-128 0 -218 46.5t-144.5 141t-79.5 227t-25 315.5q0 373 111 551t356 178q246 0 356.5 -177.5t110.5 -551.5q0 -183 -25 -315.5t-79.5 -227t-144.5 -141t-218 -46.5zM586 72q190 0 277 146.5t87 486.5q0 232 -41 374.5t-119.5 204.5t-203.5 62t-203.5 -62
t-119 -204t-40.5 -375q0 -340 86.5 -486.5t276.5 -146.5z" />
    <glyph glyph-name="one" unicode="1" horiz-adv-x="804" 
d="M477 1413v-1319h221v-94h-551v94h228v867h-228v83q55 0 90 2.5t62 12t40.5 21.5t22.5 37t11 53t2 75v168h102z" />
    <glyph glyph-name="two" unicode="2" horiz-adv-x="1173" 
d="M221 94h844v-94h-946l4 41l-4 -2q0 103 28.5 185t77 137.5t111.5 100t132.5 78.5t138.5 67t132 71.5t111.5 85.5t77 116.5t28.5 157.5q0 130 -88.5 219t-244.5 89q-162 0 -261 -88.5t-122 -251.5l-93 22q20 191 148.5 299.5t327.5 108.5q194 0 315 -110.5t121 -289.5
q0 -96 -28 -174t-76 -131t-110 -97t-130.5 -78t-137.5 -66t-132 -69t-112 -80.5t-79 -106t-33 -140.5z" />
    <glyph glyph-name="three" unicode="3" horiz-adv-x="1173" 
d="M770 813v-39q57 -10 105.5 -33t92 -63.5t68.5 -107t25 -152.5q0 -208 -121 -324.5t-346 -116.5q-227 0 -351.5 106.5t-129.5 274.5l94 19q12 -145 108 -225t281 -80q184 0 274.5 95t90.5 263q0 82 -29 143t-80 95.5t-113 50.5t-137 16h-180v92h229q104 0 184 72.5
t80 183.5q0 123 -80 193t-237 70q-168 0 -260 -80t-102 -197l-93 18q6 146 130 247.5t327 101.5q194 0 304 -88.5t110 -241.5q0 -113 -65.5 -191.5t-178.5 -101.5z" />
    <glyph glyph-name="four" unicode="4" horiz-adv-x="1189" 
d="M958 412h129v-95h-129v-317h-102v317h-733l-31 97l721 999h145v-1001zM856 1331l-649 -919h649v919z" />
    <glyph glyph-name="five" unicode="5" horiz-adv-x="1173" 
d="M629 973q205 0 321.5 -124t116.5 -347q0 -246 -130 -385.5t-359 -139.5q-114 0 -205 31.5t-147 84t-86.5 117t-33.5 134.5l89 25q20 -140 115 -219.5t274 -79.5q192 0 287.5 116.5t95.5 317.5q0 178 -95 279.5t-276 101.5q-103 0 -187 -37t-135 -84l-112 55l67 594h772
l3 -92h-695l-49 -473l29 -12q37 29 59.5 45t68 41.5t98.5 38t114 12.5z" />
    <glyph glyph-name="six" unicode="6" horiz-adv-x="1173" 
d="M633 901q204 0 319 -114.5t115 -311.5q0 -235 -128 -366.5t-343 -131.5q-261 0 -374 177t-113 538q0 350 139.5 548t384.5 198q100 0 179.5 -30t128.5 -81.5t77 -114t33 -133.5l-90 -18q-23 137 -103.5 212t-222.5 75q-424 0 -432 -697h39q33 103 134 176.5t257 73.5z
M602 72q171 0 268 104t97 295q0 163 -92.5 255.5t-256.5 92.5q-96 0 -172.5 -30.5t-123.5 -82.5t-71 -117.5t-24 -139.5q0 -58 12.5 -111t41 -102t71 -85t106.5 -57.5t144 -21.5z" />
    <glyph glyph-name="seven" unicode="7" horiz-adv-x="1226" 
d="M133 1413h942l19 -86q-164 -105 -279.5 -245t-182.5 -310.5t-96.5 -358t-29.5 -413.5h-117q0 154 17 297t59.5 294.5t108.5 280.5t170.5 247t238.5 202h-850v92z" />
    <glyph glyph-name="eight" unicode="8" horiz-adv-x="1173" 
d="M768 811v-37q140 -18 224.5 -115.5t84.5 -265.5q0 -192 -125.5 -304t-376.5 -112q-236 0 -357.5 112.5t-121.5 303.5q0 158 86.5 262t200.5 119v39q-120 28 -176.5 98t-56.5 189q0 144 112 240t313 96q215 0 332 -96t117 -240q0 -122 -61.5 -192.5t-194.5 -96.5z
M256 1087q0 -262 319 -262q343 0 343 262q0 116 -85 187.5t-258 71.5q-157 0 -238 -72t-81 -187zM575 72q400 0 400 336q0 159 -97 247t-303 88q-187 0 -281.5 -88.5t-94.5 -246.5q0 -336 376 -336z" />
    <glyph glyph-name="nine" unicode="9" horiz-adv-x="1173" 
d="M578 1438q258 0 372.5 -174t114.5 -531q0 -167 -33 -304.5t-96.5 -239.5t-164 -157.5t-228.5 -54.5q-200 3 -306.5 108t-117.5 265l92 21q20 -144 104.5 -220.5t227.5 -76.5q418 0 426 702h-39q-15 -48 -45.5 -92t-77.5 -82t-116 -61t-150 -23q-204 0 -319.5 117
t-115.5 317q0 227 132 356.5t340 129.5zM555 602q96 0 172 30.5t122 82.5t69.5 117t23.5 137q0 71 -20 135.5t-62 121t-116.5 90.5t-172.5 34q-165 0 -263.5 -103.5t-98.5 -290.5q0 -166 91 -260t255 -94z" />
    <glyph glyph-name="colon" unicode=":" horiz-adv-x="405" 
d="M203 885q-40 0 -60 22.5t-20 57.5q0 36 20 59t60 23q39 0 59.5 -23t20.5 -59q0 -35 -20.5 -57.5t-59.5 -22.5zM203 -23q-40 0 -60 22.5t-20 57.5q0 36 20 59t60 23q39 0 59.5 -23t20.5 -59q0 -35 -20.5 -57.5t-59.5 -22.5z" />
    <glyph glyph-name="semicolon" unicode=";" horiz-adv-x="399" 
d="M190 885q-40 0 -59.5 22.5t-19.5 57.5q0 37 19.5 59.5t59.5 22.5q39 0 59.5 -23t20.5 -59q0 -35 -20.5 -57.5t-59.5 -22.5zM190 143q40 0 63 -27t23 -81q0 -90 -47 -189.5t-108 -132.5l-53 111q45 20 92 66.5t63 99.5q-19 -13 -43 -13q-38 0 -57 23.5t-19 58.5t22 59.5
t64 24.5z" />
    <glyph glyph-name="less" unicode="&#x3c;" horiz-adv-x="804" 
d="M102 764l600 352v-96l-542 -305l542 -324v-96l-600 373v96z" />
    <glyph glyph-name="equal" unicode="=" horiz-adv-x="1009" 
d="M907 817h-805v82h805v-82zM907 532h-805v82h805v-82z" />
    <glyph glyph-name="greater" unicode="&#x3e;" horiz-adv-x="804" 
d="M102 1020v96l600 -352v-96l-600 -373v96l543 324z" />
    <glyph glyph-name="question" unicode="?" horiz-adv-x="1073" 
d="M506 379h-100q-23 78 -23 139q0 66 29 121.5t75 94.5t102 74t112 68t102 68t75 83.5t29 105.5q0 111 -86.5 177t-259.5 66q-99 0 -176 -28.5t-124.5 -77.5t-73.5 -109t-31 -129l-95 17q8 181 140.5 299t363.5 118q218 0 332.5 -89.5t114.5 -237.5q0 -58 -18 -107.5
t-48.5 -86t-70 -68.5t-83.5 -58.5t-87.5 -51.5t-83 -52t-70 -56t-48.5 -67t-18 -82q0 -50 21 -131zM463 -23q-44 0 -66 24.5t-22 61.5q0 38 21.5 62.5t66.5 24.5q42 0 64 -24.5t22 -62.5q0 -36 -22 -61t-64 -25z" />
    <glyph glyph-name="at" unicode="@" horiz-adv-x="1888" 
d="M1751 -57l29 -78q-360 -297 -838 -297q-243 0 -433.5 99t-300.5 288.5t-110 441.5q0 195 67 371.5t186.5 309.5t297.5 211.5t387 78.5q207 0 367 -78t254 -234t94 -370q0 -126 -30 -247.5t-84.5 -220t-140 -158.5t-187.5 -60q-113 0 -166 77.5t-31 201.5h-37
q-50 -110 -125.5 -170t-156.5 -60q-116 0 -187 90.5t-71 255.5q0 139 50 264t140 203t197 78q200 0 221 -242h28l46 232h86q-40 -190 -59.5 -285t-39.5 -220t-20 -185q0 -158 141 -158q94 0 172.5 88t121 226t42.5 290q0 132 -40.5 241.5t-118.5 191t-201 126.5t-279 45
q-151 0 -285 -49.5t-233 -136t-171 -200t-108.5 -244.5t-36.5 -267q0 -147 50 -279.5t143.5 -236.5t243 -165.5t333.5 -61.5q112 0 222 21t195 52.5t162 72.5t127 77t87 70zM815 131q59 0 113.5 34t98 96.5t69 160.5t24.5 217q2 51 -15.5 99.5t-63.5 85t-111 36.5
q-70 0 -129 -42.5t-96 -110.5t-57.5 -149t-20.5 -161q0 -134 53 -200t135 -66z" />
    <glyph glyph-name="A" unicode="A" horiz-adv-x="1263" 
d="M1219 0h-115l-152 440h-651l-145 -440h-111l465 1413h225zM428 825l-98 -295h592l-101 295q-127 376 -139 492h-121q-8 -75 -52.5 -230t-80.5 -262z" />
    <glyph glyph-name="B" unicode="B" horiz-adv-x="1394" 
d="M903 770v-43q79 0 144 -18.5t118 -57t83 -107t30 -161.5q0 -186 -114.5 -284.5t-323.5 -98.5h-619v1413h516q211 0 307.5 -82t96.5 -246q0 -117 -59.5 -201t-178.5 -114zM713 1321h-381v-533h448q117 0 183.5 74t66.5 205q0 254 -317 254zM332 96h456q196 0 284.5 77
t88.5 235q0 75 -27.5 133t-75 91t-104.5 49.5t-123 16.5h-499v-602z" />
    <glyph glyph-name="C" unicode="C" horiz-adv-x="1429" 
d="M770 -23q-162 0 -284.5 52t-198 147.5t-113 224.5t-37.5 289q0 347 169 546.5t460 199.5q265 0 404.5 -127.5t152.5 -341.5l-96 -17q-47 393 -459 393q-240 0 -378 -172.5t-138 -478.5q0 -300 138 -460t386 -160q102 0 183.5 28t134.5 77t86 104.5t49 119.5l92 -26
q-13 -57 -37 -110t-69 -106.5t-104.5 -93t-147.5 -64t-193 -24.5z" />
    <glyph glyph-name="D" unicode="D" horiz-adv-x="1531" 
d="M776 1413q99 0 180.5 -15t152 -48.5t122.5 -88t89.5 -131.5t56 -182t18.5 -237q0 -192 -41.5 -330t-123.5 -221t-193.5 -121.5t-260.5 -38.5h-555v1413h555zM332 96h416q104 0 184.5 18t147.5 61.5t110 113.5t66.5 175.5t23.5 246.5q0 173 -34 292t-104 188.5t-166 99.5
t-231 30h-413v-1225z" />
    <glyph glyph-name="E" unicode="E" horiz-adv-x="1241" 
d="M332 688v-592h811v-96h-922v1413h893v-92h-782v-541h696l-12 -92h-684z" />
    <glyph glyph-name="F" unicode="F" horiz-adv-x="1204" 
d="M1159 1413v-92h-827v-567h696l-12 -92h-684v-662h-111v1413h938z" />
    <glyph glyph-name="G" unicode="G" horiz-adv-x="1527" 
d="M764 641v88h600l-4 -729h-74l-18 641h-37q-4 -96 -22 -185.5t-58.5 -178.5t-98.5 -154t-148 -105.5t-202 -40.5q-141 0 -249.5 50.5t-177 144t-103.5 221t-35 285.5q0 224 74 393.5t225 267t363 97.5q236 0 376 -116t162 -310l-92 -19q-26 161 -139 256.5t-305 95.5
q-264 0 -406.5 -177.5t-142.5 -485.5q0 -293 123 -449.5t348 -156.5q95 0 172.5 37t126.5 95.5t84 135.5t50.5 151t19.5 148h-412z" />
    <glyph glyph-name="H" unicode="H" horiz-adv-x="1490" 
d="M1161 770v643h109v-1413h-109v678h-829v-678h-111v1413h111v-643h829z" />
    <glyph glyph-name="I" unicode="I" horiz-adv-x="552" 
d="M332 0h-111v1413h111v-1413z" />
    <glyph glyph-name="J" unicode="J" horiz-adv-x="1226" 
d="M272 1413h734v-1016q0 -202 -115 -311t-330 -109q-203 0 -336 109.5t-164 296.5l95 29q30 -162 137.5 -250t267.5 -88q156 0 246 79t90 246v922h-625v92z" />
    <glyph glyph-name="K" unicode="K" horiz-adv-x="1302" 
d="M1288 0h-141l-512 727l-303 -356v-371h-111v1413h111v-557q0 -198 -23 -373h41q83 150 232 328l505 602h132l-517 -606z" />
    <glyph glyph-name="L" unicode="L" horiz-adv-x="1128" 
d="M332 1413v-1317h778v-96h-889v1413h111z" />
    <glyph glyph-name="M" unicode="M" horiz-adv-x="1789" 
d="M1176 891l217 522h176v-1413h-105v649q0 426 29 672h-45l-475 -1231h-133l-500 1231h-45q35 -286 35 -672v-649h-109v1413h176l228 -522q9 -22 34.5 -83t37.5 -90.5t35.5 -86.5t36.5 -90.5t32.5 -83.5t30.5 -83t23.5 -71t20 -67t11.5 -52h43q21 150 246 707z" />
    <glyph glyph-name="N" unicode="N" horiz-adv-x="1513" 
d="M1186 799v614h106v-1413h-166l-788 1321h-47q37 -264 37 -670v-651h-107v1413h180l783 -1304h43q-41 276 -41 690z" />
    <glyph glyph-name="O" unicode="O" horiz-adv-x="1587" 
d="M795 -23q-329 0 -493.5 187.5t-164.5 540.5q0 337 171.5 534t486.5 197t486 -197t171 -534q0 -353 -164 -540.5t-493 -187.5zM795 74q268 0 405 159t137 467q0 314 -138.5 477.5t-403.5 163.5q-266 0 -404.5 -164t-138.5 -477q0 -308 137.5 -467t405.5 -159z" />
    <glyph glyph-name="P" unicode="P" horiz-adv-x="1275" 
d="M764 1413q442 0 442 -412q0 -207 -121 -319.5t-352 -112.5h-401v-569h-111v1413h543zM332 659h397q180 0 272.5 89t92.5 253q0 165 -87 242.5t-268 77.5h-407v-662z" />
    <glyph glyph-name="Q" unicode="Q" horiz-adv-x="1595" 
d="M1049 49l2 -33q38 -54 150 -101t224 -46l-26 -129q-110 -10 -230 68.5t-172 189.5q-89 -21 -198 -21q-333 0 -497.5 186t-164.5 542q0 339 171.5 535t490.5 196t490 -196t171 -535q0 -285 -112.5 -462t-298.5 -194zM252 700q0 -306 138.5 -465t408.5 -159q89 0 166 18
l-109 328h131l39 -309q320 117 320 587q0 309 -140 474t-407 165t-407 -165t-140 -474z" />
    <glyph glyph-name="R" unicode="R" horiz-adv-x="1394" 
d="M1174 459l118 -459h-116l-115 459q-28 94 -93.5 134t-193.5 40h-442v-633h-111v1413h567q204 0 293.5 -92.5t89.5 -267.5q0 -138 -69 -230t-201 -121v-38q123 0 186 -54.5t87 -150.5zM332 1323v-600h440q124 0 206.5 88.5t82.5 226.5q0 143 -74.5 214t-247.5 71h-407z
" />
    <glyph glyph-name="S" unicode="S" horiz-adv-x="1308" 
d="M686 -23q-218 0 -364 115t-193 332l92 41q43 -188 166 -289.5t291 -101.5q180 0 285.5 88t105.5 237q0 66 -22.5 115.5t-57.5 80t-92.5 52.5t-113.5 33t-134 20q-61 7 -105.5 14t-101 21t-96.5 31t-81 44.5t-66.5 62.5t-41.5 84t-16 108q0 162 129.5 265.5t356.5 103.5
q244 0 370 -100.5t148 -307.5l-94 -27q-7 60 -22.5 108t-47 93t-77 75t-116 48t-161.5 18q-168 0 -270.5 -71.5t-102.5 -194.5q0 -46 14 -83t34.5 -63t57.5 -47t69 -33t84.5 -23t88 -16.5t94.5 -12.5q86 -10 149 -23t130 -40.5t109 -68t69 -106.5t27 -153
q0 -198 -137.5 -313.5t-356.5 -115.5z" />
    <glyph glyph-name="T" unicode="T" horiz-adv-x="1185" 
d="M1184 1413v-92h-537v-1321h-108v1321h-535v92h1180z" />
    <glyph glyph-name="U" unicode="U" horiz-adv-x="1501" 
d="M1174 1413h108v-938q0 -235 -136.5 -366.5t-397.5 -131.5q-260 0 -398.5 132t-138.5 366v938h111v-926q0 -207 115.5 -310t310.5 -103q200 0 313 102.5t113 310.5v926z" />
    <glyph glyph-name="V" unicode="V" horiz-adv-x="1206" 
d="M803 588l254 825h119l-441 -1413h-246l-458 1413h123l264 -825q116 -369 127 -496h135q7 75 48.5 233t74.5 263z" />
    <glyph glyph-name="W" unicode="W" horiz-adv-x="1863" 
d="M1518 623l194 790h121l-360 -1413h-226l-213 911q-61 260 -80 406h-47q-16 -139 -78 -406l-208 -911h-232l-358 1413h119l200 -790q27 -110 62.5 -279.5t40.5 -251.5h106q7 114 96 531l185 790h184l184 -790q1 -4 22.5 -100t34.5 -158t28 -146t18 -127h106q5 82 40 255
t61 276z" />
    <glyph glyph-name="X" unicode="X" horiz-adv-x="1228" 
d="M1157 1413l-457 -651l498 -762h-129l-278 424q-129 200 -152 289h-45q-23 -73 -158 -289l-278 -424h-127l501 764l-454 649h129l223 -319q136 -197 166 -287h43q26 79 170 287l221 319h127z" />
    <glyph glyph-name="Y" unicode="Y" horiz-adv-x="1228" 
d="M1071 1413h127l-536 -844v-569h-109v569l-522 844h131l225 -377q10 -17 48.5 -81.5t61 -104t50.5 -94t41 -90.5h43q9 25 25.5 58.5t31 60t40.5 70t38 63t41 65.5t33 53z" />
    <glyph glyph-name="Z" unicode="Z" horiz-adv-x="1294" 
d="M233 127l9 -33l936 2v-96h-1061v94l588 793q211 286 354 407l-6 29h-879v90h993v-90l-546 -727q-255 -351 -388 -469z" />
    <glyph glyph-name="bracketleft" unicode="[" horiz-adv-x="581" 
d="M500 1444v-78h-326v-1540h326v-78h-418v1696h418z" />
    <glyph glyph-name="backslash" unicode="\" horiz-adv-x="569" 
d="M549 -252h-78l-451 1696h80z" />
    <glyph glyph-name="bracketright" unicode="]" horiz-adv-x="581" 
d="M500 1444v-1696h-418v78h326v1540h-326v78h418z" />
    <glyph glyph-name="asciicircum" unicode="^" horiz-adv-x="962" 
d="M545 1413l315 -655h-100l-279 608l-278 -608h-101l316 655h127z" />
    <glyph glyph-name="underscore" unicode="_" horiz-adv-x="1110" 
d="M1008 -162h-906v82h906v-82z" />
    <glyph glyph-name="grave" unicode="`" horiz-adv-x="589" 
d="M451 1159h-76l-236 357h135z" />
    <glyph glyph-name="a" unicode="a" horiz-adv-x="1191" 
d="M1159 94l25 -67q-23 -18 -62.5 -34t-79.5 -16q-90 0 -133 69.5t-18 223.5h-39q-41 -130 -141.5 -211.5t-253.5 -81.5q-167 0 -252.5 83t-85.5 212q0 157 122.5 241.5t338.5 84.5q109 0 286 -20v129q0 251 -295 251q-134 0 -214 -63t-105 -178l-86 26q19 137 131.5 220.5
t282.5 83.5q180 0 284.5 -83t104.5 -249v-508q0 -52 16 -86t43 -46t61 -7.5t70 26.5zM465 68q175 0 283.5 109t117.5 325q-643 87 -643 -228q0 -99 63 -152.5t179 -53.5z" />
    <glyph glyph-name="b" unicode="b" horiz-adv-x="1261" 
d="M707 1047q211 1 329.5 -140.5t118.5 -388.5q0 -267 -122.5 -404t-327.5 -137q-141 0 -240 76t-143 217h-37l-17 -270h-78v1444h105v-303q0 -101 -12 -383h39q44 137 144 212.5t241 76.5zM686 68q174 0 268.5 116.5t94.5 335.5q0 213 -95.5 325.5t-267.5 112.5
q-164 0 -266.5 -111t-102.5 -327q0 -223 103 -337.5t266 -114.5z" />
    <glyph glyph-name="c" unicode="c" horiz-adv-x="1071" 
d="M569 -23q-220 0 -345.5 132t-125.5 403q0 256 132 395.5t350 139.5q169 0 271.5 -70t127.5 -205l-84 -27q-50 213 -309 213q-177 0 -278 -114t-101 -334q0 -218 97 -329t278 -111q126 0 209 58.5t120 162.5l82 -27q-33 -126 -142.5 -206.5t-281.5 -80.5z" />
    <glyph glyph-name="d" unicode="d" horiz-adv-x="1255" 
d="M961 1141v303h102v-1444h-78l-18 270h-37q-45 -139 -141.5 -216t-231.5 -77q-209 0 -334 137.5t-125 397.5q0 249 124.5 393t334.5 142q146 -1 241.5 -76.5t137.5 -212.5h37q0 8 -2.5 52t-4.5 84.5t-3.5 109.5t-1.5 137zM578 70q76 0 139.5 27t113 81t77.5 142.5
t28 203.5q0 209 -99 323t-259 114q-176 0 -273.5 -116.5t-97.5 -330.5t96 -329t275 -115z" />
    <glyph glyph-name="e" unicode="e" horiz-adv-x="1097" 
d="M582 1047q236 0 343.5 -151.5t86.5 -416.5h-807q4 -206 105.5 -308.5t271.5 -102.5q254 0 348 225l82 -25q-41 -132 -155.5 -211.5t-278.5 -79.5q-231 0 -355.5 135.5t-124.5 383.5q0 258 132.5 404.5t351.5 146.5zM580 958q-161 0 -261 -99.5t-112 -303.5h711
q-1 73 -11 130.5t-33.5 110t-60.5 87t-96 55t-137 20.5z" />
    <glyph glyph-name="f" unicode="f" horiz-adv-x="759" 
d="M346 1159v-135h416v-80h-416v-944h-102v944h-183v80h183v121q0 156 78 238.5t229 82.5q144 0 250 -77l-53 -72q-76 61 -197 61q-205 0 -205 -219z" />
    <glyph glyph-name="g" unicode="g" horiz-adv-x="1140" 
d="M594 147q237 0 343.5 -68t106.5 -200q0 -145 -122.5 -228t-380.5 -83q-222 0 -337.5 68t-115.5 192q0 95 80 163.5t242 82.5v39q-122 0 -190 29t-68 87q0 114 258 136v36q-119 0 -194 69.5t-75 221.5q0 73 25.5 136t75 112.5t130.5 78t185 28.5q154 0 248 -48
q32 94 100 159t168 65l12 -121h-51q-128 0 -196 -121q135 -91 135 -289q0 -170 -111 -262t-305 -92q-152 0 -215 -20t-63 -72q0 -99 315 -99zM242 690q0 -135 78 -197.5t237 -62.5q151 0 233 65t82 195q0 135 -81.5 204t-233.5 69q-141 0 -228 -70.5t-87 -202.5zM545 -344
q197 0 298 55.5t101 161.5q0 43 -16.5 75.5t-56 58t-112 39t-177.5 13.5q-201 0 -301.5 -57t-100.5 -154q0 -90 88.5 -141t276.5 -51z" />
    <glyph glyph-name="h" unicode="h" horiz-adv-x="1200" 
d="M700 1047q155 0 240.5 -91.5t85.5 -248.5v-707h-102v674q0 127 -66.5 201.5t-193.5 74.5q-70 0 -131 -26.5t-104 -71.5t-73.5 -105t-45.5 -127t-15 -137v-483h-105v1444h105v-301q0 -207 -14 -385h38q42 126 142 207.5t239 81.5z" />
    <glyph glyph-name="i" unicode="i" horiz-adv-x="434" 
d="M217 1311q-38 0 -58 22t-20 58q0 33 20 54t58 21t58 -21t20 -54q0 -36 -20 -58t-58 -22zM268 0h-102v1024h102v-1024z" />
    <glyph glyph-name="j" unicode="j" horiz-adv-x="462" 
d="M246 1466q38 0 58 -21t20 -54q0 -36 -20 -58t-58 -22t-58 22t-20 58q0 33 20 54t58 21zM195 1024h102v-1006q0 -199 -59 -303.5t-183 -148.5l-30 82q33 14 61 38.5t53.5 64t40.5 102t15 141.5v1030z" />
    <glyph glyph-name="k" unicode="k" horiz-adv-x="1077" 
d="M1032 0h-139l-420 526l-178 -170v-356h-105v1444h105v-643q0 -196 -16 -346h40q73 104 199 227l352 342h134l-457 -430z" />
    <glyph glyph-name="l" unicode="l" horiz-adv-x="595" 
d="M547 104l31 -77q-24 -17 -75.5 -33.5t-111.5 -16.5q-105 0 -153 54.5t-48 161.5v1251h105v-1239q0 -135 125 -135q66 0 127 34z" />
    <glyph glyph-name="m" unicode="m" horiz-adv-x="1865" 
d="M1370 1047q154 0 238 -91t84 -251v-705h-105v674q0 276 -246 276q-85 0 -152.5 -38t-109.5 -104t-64 -151.5t-22 -183.5v-473h-104v678q0 131 -62 201.5t-186 70.5q-112 0 -192 -66.5t-117 -171.5t-37 -235v-477h-105v1024h78l19 -266h35q38 128 126.5 208.5t223.5 80.5
q138 0 215.5 -76t89.5 -213h39q38 127 128.5 208t225.5 81z" />
    <glyph glyph-name="n" unicode="n" horiz-adv-x="1200" 
d="M702 1047q151 0 237.5 -91t86.5 -247v-709h-102v676q0 129 -67.5 201.5t-194.5 72.5q-114 0 -199 -65.5t-126.5 -171.5t-41.5 -236v-477h-105v1024h78l19 -266h37q44 129 141 209t237 80z" />
    <glyph glyph-name="o" unicode="o" horiz-adv-x="1159" 
d="M575 -23q-228 0 -353.5 140.5t-123.5 392.5q3 250 129 393.5t348 143.5q225 0 353 -144t125 -393q-2 -255 -126 -394t-352 -139zM575 70q185 0 278 114t93 328q0 213 -94 329.5t-277 116.5q-180 0 -274 -118t-94 -328q0 -213 93 -327.5t275 -114.5z" />
    <glyph glyph-name="p" unicode="p" horiz-adv-x="1259" 
d="M717 1047q203 0 320.5 -136t117.5 -399q0 -247 -120 -391.5t-330 -143.5q-144 1 -243.5 78.5t-144.5 214.5h-34q12 -210 12 -385v-295h-105v1434h78l23 -266h35q51 135 151.5 212t239.5 77zM684 68q174 0 268.5 115.5t94.5 326.5q0 217 -91 332.5t-270 115.5
q-162 0 -265.5 -117.5t-103.5 -338.5q0 -212 100 -323t267 -111z" />
    <glyph glyph-name="q" unicode="q" horiz-adv-x="1251" 
d="M967 758l16 266h78v-1434h-103v295q0 108 15 385h-37q-42 -139 -139.5 -215.5t-241.5 -77.5q-213 -1 -335 141.5t-122 389.5q0 265 124.5 402t330.5 137q142 0 237.5 -75.5t139.5 -213.5h37zM578 68q159 0 258.5 110.5t99.5 325.5q0 222 -97.5 338t-260.5 116
q-177 0 -274 -118.5t-97 -333.5q0 -212 98.5 -325t272.5 -113z" />
    <glyph glyph-name="r" unicode="r" horiz-adv-x="802" 
d="M627 1047q107 0 176 -62l-29 -102q-23 28 -66.5 48.5t-93.5 20.5q-106 0 -178.5 -82.5t-106.5 -225t-34 -335.5v-309h-105v1024h78l17 -313h32q19 142 98 239t212 97z" />
    <glyph glyph-name="s" unicode="s" horiz-adv-x="1054" 
d="M532 -23q-174 0 -288 74.5t-138 210.5l84 27q22 -103 109 -161t233 -58q149 0 232.5 61.5t83.5 173.5q0 46 -15 78.5t-41 54t-73.5 35.5t-101 21.5t-134.5 13.5q-193 12 -281.5 69t-88.5 181q0 130 109 209.5t288 79.5q174 0 286 -71.5t130 -213.5l-80 -27
q-48 223 -336 223q-137 0 -218 -53.5t-81 -144.5q-1 -47 22.5 -79t72.5 -50t101.5 -26t131.5 -13q111 -8 185 -25t126 -49.5t75 -84t23 -126.5q0 -158 -117 -244t-299 -86z" />
    <glyph glyph-name="t" unicode="t" horiz-adv-x="872" 
d="M803 252l51 -59q-116 -216 -328 -216q-125 0 -197.5 66.5t-72.5 177.5v723h-190v80h198l41 299h55v-299h410v-80h-410v-692q0 -182 185 -182q61 0 115.5 30.5t86 68t56.5 83.5z" />
    <glyph glyph-name="u" unicode="u" horiz-adv-x="1179" 
d="M885 612v412h102v-1024h-78l-14 270h-33q-40 -125 -135 -209t-227 -84q-152 0 -239 91t-87 247v709h102v-684q0 -128 67 -200t187 -72q113 0 194.5 73.5t121 195t39.5 275.5z" />
    <glyph glyph-name="v" unicode="v" horiz-adv-x="974" 
d="M633 492l194 532h113l-391 -1024h-121l-393 1024h115l194 -532q4 -10 23 -61t26.5 -73t23.5 -69t24.5 -76t16.5 -65t11 -64h41q5 52 24 118t56.5 171z" />
    <glyph glyph-name="w" unicode="w" horiz-adv-x="1521" 
d="M1225 449l159 575h105l-297 -1024h-152l-143 498q-84 289 -109 446h-45q-18 -111 -102 -444l-135 -500h-152l-319 1024h108l168 -567q92 -296 99 -373h41q10 102 88 373l151 567h152l159 -575q89 -280 99 -365h41q5 57 31.5 167t52.5 198z" />
    <glyph glyph-name="x" unicode="x" horiz-adv-x="964" 
d="M909 1024l-340 -471l363 -553h-117l-203 324q-10 16 -33 54t-42.5 70t-30.5 54h-35q-15 -27 -58.5 -92.5t-54.5 -83.5l-211 -326h-112l375 549l-353 475h117l174 -236q78 -106 125 -192h35q44 79 121 190l168 238h112z" />
    <glyph glyph-name="y" unicode="y" horiz-adv-x="974" 
d="M631 492l194 532h115l-391 -1024q-70 -184 -136.5 -262t-158.5 -78q-56 0 -104 25t-76 57l61 82q59 -64 125 -64q71 0 126.5 67t86.5 173h-45l-393 1024h115l198 -532q4 -11 26 -73t32 -91t26 -81t25 -91t12 -72h41q4 40 19.5 98.5t30 102t39 113.5t32.5 94z" />
    <glyph glyph-name="z" unicode="z" horiz-adv-x="954" 
d="M172 119v-33h713v-86h-813v104l495 619q82 102 176 182v39h-628v80h741v-98l-469 -592q-113 -134 -215 -215z" />
    <glyph glyph-name="braceleft" unicode="{" horiz-adv-x="784" 
d="M702 1366h-198q-92 0 -141.5 -38.5t-49.5 -115.5q0 -53 60.5 -226.5t60.5 -235.5q0 -118 -153 -162v-37q153 -43 153 -162q0 -60 -60.5 -233.5t-60.5 -229.5q0 -77 49.5 -116t141.5 -39h198v-76h-194q-136 0 -217.5 55.5t-81.5 159.5q0 61 69.5 235.5t69.5 233.5
q0 71 -66.5 112t-199.5 41v74q132 0 199 41t67 113q0 52 -35 145t-69.5 184t-34.5 140q0 104 81.5 159.5t217.5 55.5h194v-78z" />
    <glyph glyph-name="bar" unicode="|" horiz-adv-x="290" 
d="M184 -254h-78v1841h78v-1841z" />
    <glyph glyph-name="braceright" unicode="}" horiz-adv-x="784" 
d="M436 760q0 -72 67 -113t199 -41v-74q-133 0 -199.5 -41t-66.5 -112q0 -63 71 -237t71 -232q0 -104 -82 -159.5t-217 -55.5h-197v78h199q190 0 190 153q0 53 -60.5 227t-60.5 236q0 118 154 162v37q-154 44 -154 162q0 60 60.5 233t60.5 229q0 77 -49 116.5t-141 39.5
h-199v76h197q135 0 217 -55.5t82 -159.5q0 -61 -71 -235.5t-71 -233.5z" />
    <glyph glyph-name="asciitilde" unicode="~" horiz-adv-x="1064" 
d="M770 526q-56 0 -103.5 22t-79 54.5t-64.5 71t-60.5 71t-66 54.5t-81.5 22q-66 0 -103.5 -46.5t-37.5 -115.5q0 -18 4.5 -40t11 -42.5t7.5 -25.5h-56q-39 80 -39 145q0 92 65 152.5t157 60.5q65 0 119.5 -30.5t92.5 -73.5t73 -86.5t78 -74t91 -30.5q55 0 85 40.5t30 103.5
q0 37 -27 121h54q43 -75 43 -154q0 -89 -55.5 -144t-137.5 -55z" />
    <glyph glyph-name="exclamdown" unicode="&#xa1;" horiz-adv-x="479" 
d="M240 1139q43 0 64.5 -24.5t21.5 -61.5q0 -38 -21.5 -62t-64.5 -24q-42 0 -65 24.5t-23 61.5q0 36 23 61t65 25zM201 764h75q17 -304 17 -1092h-109q0 788 17 1092z" />
    <glyph glyph-name="cent" unicode="&#xa2;" horiz-adv-x="1085" 
d="M911 496l82 -27q-31 -116 -128 -195t-249 -90v-204h-77v202q-207 9 -324 141.5t-117 393.5q0 244 120 382t321 150v205h77v-203q154 -8 247 -77t116 -197l-84 -27q-50 213 -309 213q-177 0 -278 -114t-101 -334q0 -218 97 -329.5t278 -111.5q126 0 209 59t120 163z" />
    <glyph glyph-name="sterling" unicode="&#xa3;" horiz-adv-x="1589" 
d="M1411 383l76 -23q-2 -176 -95.5 -279.5t-261.5 -103.5q-52 0 -103 13.5t-85.5 29t-82 50.5t-68.5 53.5t-70 62.5q-36 -95 -119.5 -152t-212.5 -57q-123 0 -205 64.5t-82 167.5q0 100 74.5 162.5t194.5 62.5q138 0 278 -96q-2 49 -16.5 106t-28.5 93.5t-41 99.5h-321v72
h290q-67 159 -67 290q0 89 32.5 167t93 138.5t157 96t215.5 35.5q106 0 192 -28t141.5 -73.5t94 -108.5t57 -127t22.5 -134l-90 -27q-6 62 -21.5 117t-47.5 108.5t-77 92t-114.5 62t-156.5 23.5q-180 0 -284 -99t-104 -243q0 -120 72 -290h565v-72h-536q74 -175 74 -297
q0 -30 -7 -74q114 -93 163 -123q109 -67 220 -67q133 0 204.5 79.5t80.5 227.5zM383 47q103 0 172.5 52t87.5 155q-68 54 -131 82.5t-139 28.5q-87 0 -140 -41.5t-53 -112.5t58 -117.5t145 -46.5z" />
    <glyph glyph-name="yen" unicode="&#xa5;" horiz-adv-x="1146" 
d="M1004 1413h126l-454 -725h332v-74h-377l-15 -20v-197h392v-73h-392v-324h-102v326h-391v71h391v199l-12 20h-379v72h336l-443 725h131l209 -362q5 -8 46.5 -80t60 -105.5t46 -88t40.5 -89.5h41q17 45 49.5 106t86 151.5t62.5 105.5z" />
    <glyph glyph-name="brokenbar" unicode="&#xa6;" horiz-adv-x="290" 
d="M184 774h-78v813h78v-813zM184 -254h-78v813h78v-813z" />
    <glyph glyph-name="section" unicode="&#xa7;" horiz-adv-x="1228" 
d="M825 307l-8 -35q316 -76 316 -333q0 -164 -126 -267t-341 -104q-120 -1 -222 34.5t-171.5 98t-114.5 142.5t-62 171l88 43q38 -179 162.5 -287t321.5 -108q163 0 260.5 76.5t97.5 208.5q0 44 -14 81t-36 65t-59.5 52.5t-73 41t-89.5 33.5t-95.5 27.5t-103.5 24.5
q-77 17 -135 33.5t-121 42.5t-103 56t-66 72.5t-26 92.5q0 99 83.5 152t193.5 45l8 35q-55 10 -102 29.5t-90 51.5t-68 82.5t-25 114.5q0 151 131 253t353 102q470 0 506 -408l-88 -25q-7 78 -32.5 138.5t-73.5 107.5t-127 71.5t-185 24.5q-176 0 -275.5 -73t-99.5 -197
q0 -31 9 -58t21.5 -48t37.5 -40.5t45.5 -33.5t58.5 -28t62.5 -22.5t71.5 -20.5t72.5 -17.5l76.5 -16.5q77 -17 129 -30.5t108.5 -32.5t91.5 -39t65.5 -46t44 -59t13.5 -73q0 -104 -84 -158.5t-211 -42.5zM211 592q0 -48 35.5 -87t104 -67t137.5 -46.5t165 -37.5
q165 -30 262 3.5t97 125.5q0 29 -10 52t-36 43.5t-56 35.5t-86 32.5t-108.5 31.5t-140.5 35l-18 4q-158 33 -252 -1.5t-94 -123.5z" />
    <glyph glyph-name="dieresis" unicode="&#xa8;" horiz-adv-x="731" 
d="M217 1239q-38 0 -58 21t-20 55q0 33 20 54.5t58 21.5q35 0 54.5 -22t19.5 -54q0 -34 -19 -55t-55 -21zM516 1239q-38 0 -57 21t-19 55q0 33 19 54.5t57 21.5q37 0 56.5 -21.5t19.5 -54.5q0 -34 -19.5 -55t-56.5 -21z" />
    <glyph glyph-name="copyright" unicode="&#xa9;" horiz-adv-x="1775" 
d="M889 -100q-164 0 -313.5 64t-257.5 172t-172 257.5t-64 313.5t64 313.5t172 257.5t257.5 171.5t313.5 63.5q132 0 255 -40.5t221.5 -115t173 -173.5t115 -222t40.5 -255q0 -164 -63.5 -313.5t-171 -257.5t-257 -172t-313.5 -64zM889 -41q154 0 291.5 58.5t236 158.5
t156 238.5t57.5 292.5q0 206 -97.5 377.5t-267.5 270.5t-376 99q-154 0 -292 -58.5t-237 -158t-157 -238t-58 -292.5t58 -292.5t157 -238.5t237 -158.5t292 -58.5zM891 254q-185 0 -291 112t-106 343q0 216 111 334t296 118q141 0 231 -64t109 -179l-72 -19
q-44 182 -262 182q-152 0 -235.5 -94t-83.5 -280q0 -185 80.5 -278t234.5 -93q109 0 181 51.5t98 138.5l71 -16q-25 -108 -120.5 -182t-241.5 -74z" />
    <glyph glyph-name="ordfeminine" unicode="&#xaa;" horiz-adv-x="892" 
d="M780 823l17 -53q-44 -33 -92 -33q-59 0 -87 46.5t-12 144.5h-26q-26 -85 -93 -138t-168 -53q-109 0 -166 54.5t-57 140.5q0 100 82.5 156.5t224.5 56.5q63 0 187 -15v84q0 158 -193 158q-168 0 -204 -151l-68 18q12 89 88.5 143t187.5 54q120 0 192.5 -54.5t72.5 -162.5
v-332q0 -65 34 -80t80 16zM328 805q114 0 184.5 66.5t77.5 203.5q-416 63 -416 -143q0 -62 40 -94.5t114 -32.5z" />
    <glyph glyph-name="guillemotleft" unicode="&#xab;" horiz-adv-x="1128" 
d="M233 565v-30q30 -22 82 -71t127 -122.5t119 -114.5l98 -94v-59l-577 446v55l582 449v-61l-103 -97q-29 -27 -111.5 -107t-134 -126.5t-82.5 -67.5zM1032 963l-104 -97q-40 -36 -115.5 -109.5t-129 -123t-83.5 -70.5v-28q24 -16 65 -53.5t77 -72t95.5 -93.5t90.5 -89
l100 -94v-59l-577 446v55l581 449v-61z" />
    <glyph glyph-name="registered" unicode="&#xae;" horiz-adv-x="1775" 
d="M889 1513q132 0 255 -40.5t221.5 -115t173 -173.5t115 -222t40.5 -255q0 -164 -63.5 -313.5t-171 -257.5t-257 -172t-313.5 -64t-313.5 64t-257.5 172t-172 257.5t-64 313.5t64 313.5t172 257.5t257.5 171.5t313.5 63.5zM889 -41q154 0 291.5 58.5t236 158.5t156 238.5
t57.5 292.5q0 206 -97.5 377.5t-267.5 270.5t-376 99q-154 0 -292 -58.5t-237 -158t-157 -238t-58 -292.5t58 -292.5t157 -238.5t237 -158.5t292 -58.5zM1006 717v-37q146 0 178 -131l69 -277h-92l-71 283q-17 57 -58.5 79.5t-122.5 22.5h-225v-385h-92v877h342
q128 0 188 -59t60 -164q0 -84 -45 -138t-131 -71zM684 1075v-342h225q80 0 130.5 48.5t50.5 131.5q0 86 -45 124t-154 38h-207z" />
    <glyph glyph-name="macron" unicode="&#xaf;" horiz-adv-x="880" 
d="M160 1237v78h559v-78h-559z" />
    <glyph glyph-name="degree" unicode="&#xb0;" horiz-adv-x="739" 
d="M371 819q-136 0 -217.5 80t-81.5 227q0 144 84.5 227t214.5 83q129 0 213 -83t84 -227q0 -147 -81.5 -227t-215.5 -80zM371 891q101 0 158 61t57 176q0 114 -59.5 177t-155.5 63q-99 0 -158 -62.5t-59 -177.5q0 -116 56.5 -176.5t160.5 -60.5z" />
    <glyph glyph-name="plusminus" unicode="&#xb1;" horiz-adv-x="1009" 
d="M907 649v-74h-366v-45h366v-71h-805v71h367v45h-367v74h367v453h72v-453h366z" />
    <glyph glyph-name="uni00B2" unicode="&#xb2;" horiz-adv-x="612" 
d="M145 813l230 6l166 -24l-297 -35h-172l2 26h-2q0 112 50.5 180t164.5 101q96 29 138 72t42 108q0 54 -36.5 91.5t-108.5 37.5q-70 0 -115.5 -41t-54.5 -114l-66 10q9 94 75 148.5t163 54.5q99 0 157 -51t58 -138q0 -162 -217 -227q-99 -29 -138 -78t-39 -127z" />
    <glyph glyph-name="uni00B3" unicode="&#xb3;" horiz-adv-x="612" 
d="M391 1135v-17q162 -24 162 -172q0 -98 -62.5 -153.5t-179.5 -55.5q-121 0 -185 48.5t-67 134.5l70 8q13 -127 184 -127q166 0 166 151q0 138 -168 138h-86v61h111q50 0 86.5 32.5t36.5 84.5q0 110 -148 110q-78 0 -119.5 -33.5t-46.5 -84.5l-71 8q9 72 72.5 119t166.5 47
q102 0 159.5 -40.5t57.5 -117.5q0 -54 -39 -92t-100 -49z" />
    <glyph glyph-name="acute" unicode="&#xb4;" horiz-adv-x="589" 
d="M213 1159h-76l176 357h133z" />
    <glyph glyph-name="paragraph" unicode="&#xb6;" horiz-adv-x="1409" 
d="M1235 1413v-1507q0 -168 -75.5 -253t-217.5 -85q-112 0 -197.5 57.5t-134.5 136.5l58 76q125 -172 266 -172q190 0 190 252v1399h-141v-889h-334q-278 0 -422.5 128t-144.5 376q0 226 142.5 353.5t414.5 127.5h596z" />
    <glyph glyph-name="periodcentered" unicode="&#xb7;" horiz-adv-x="366" 
d="M182 457q-37 0 -58.5 22.5t-21.5 57.5t21.5 57t58.5 22q38 0 60 -22t22 -57t-22.5 -57.5t-59.5 -22.5z" />
    <glyph glyph-name="cedilla" unicode="&#xb8;" horiz-adv-x="733" 
d="M391 10l-16 -110q106 4 162.5 -41t56.5 -113q0 -79 -64.5 -129.5t-164.5 -50.5q-81 0 -142 30.5t-84 61.5l43 51q22 -27 68.5 -50.5t105.5 -23.5q78 0 117 32.5t39 80.5q0 54 -46.5 82t-127.5 16l-43 35l27 129h69z" />
    <glyph glyph-name="uni00B9" unicode="&#xb9;" horiz-adv-x="489" 
d="M283 1413v-594h110v-59h-297v59h121v320h-121v59q83 0 102 19.5t19 99.5v96h66z" />
    <glyph glyph-name="ordmasculine" unicode="&#xba;" horiz-adv-x="825" 
d="M414 737q-152 0 -235.5 91t-82.5 257q2 163 85.5 257t232.5 94q150 0 233.5 -94.5t81.5 -256.5q-2 -168 -82 -258t-233 -90zM414 805q237 0 237 282q0 134 -59.5 209.5t-177.5 75.5q-117 0 -177.5 -76.5t-60.5 -208.5q0 -136 59.5 -209t178.5 -73z" />
    <glyph glyph-name="guillemotright" unicode="&#xbb;" horiz-adv-x="1140" 
d="M678 522l-582 -448v61l103 96q31 29 111.5 107.5t132.5 125.5t83 68v31q-30 22 -82 70.5t-126.5 122t-118.5 114.5l-99 95v59l578 -446v-56zM467 965v59l580 -446v-56l-584 -448v61l104 96q40 37 115 109.5t129 122.5t84 72v28q-31 22 -81.5 69t-130.5 125.5t-116 112.5z
" />
    <glyph glyph-name="onequarter" unicode="&#xbc;" horiz-adv-x="1292" 
d="M6 0l1153 1444h82l-1153 -1444h-82zM430 760h-297v59h121v320h-121v59q83 0 102 19.5t19 99.5v96h65v-594h111v-59zM1163 195h82v-60h-82v-135h-65v135h-353l-16 62l346 456h88v-458zM1098 598l-297 -403h297v403z" />
    <glyph glyph-name="onehalf" unicode="&#xbd;" horiz-adv-x="1292" 
d="M6 0l1153 1444h82l-1153 -1444h-82zM430 760h-297v59h121v320h-121v59q83 0 102 19.5t19 99.5v96h65v-594h111v-59zM825 53l230 6l166 -24l-297 -35h-172l2 27h-2q0 112 50.5 179.5t164.5 100.5q96 29 138 72t42 108q0 54 -37 91.5t-109 37.5q-70 0 -115.5 -41
t-54.5 -114l-65 10q9 94 75 148.5t163 54.5q99 0 157 -51t58 -138q0 -83 -54.5 -138.5t-163.5 -88.5q-98 -29 -137 -78t-39 -127z" />
    <glyph glyph-name="threequarters" unicode="&#xbe;" 
d="M92 0l1153 1444h82l-1153 -1444h-82zM313 801q166 0 166 151q0 138 -168 138h-86v61h111q50 0 86.5 32.5t36.5 84.5q0 110 -148 110q-78 0 -119.5 -33.5t-46.5 -84.5l-71 8q9 72 72.5 119t166.5 47q102 0 159.5 -40.5t57.5 -117.5q0 -54 -39 -92t-100 -49v-17
q162 -24 162 -172q0 -98 -62.5 -153.5t-179.5 -55.5q-121 0 -185 48.5t-67 134.5l70 8q13 -127 184 -127zM1249 195h82v-60h-82v-135h-65v135h-353l-16 62l346 456h88v-458zM1184 598l-297 -403h297v403z" />
    <glyph glyph-name="questiondown" unicode="&#xbf;" horiz-adv-x="1073" 
d="M610 1143q45 0 66.5 -24t21.5 -62t-21.5 -62t-66.5 -24q-42 0 -64 24t-22 62t22 62t64 24zM567 741h101q30 -101 30 -157q0 -61 -29.5 -113t-76.5 -89t-103.5 -71t-113 -66.5t-103.5 -68t-76.5 -83.5t-29.5 -105q0 -111 86.5 -177.5t259.5 -66.5q99 0 176.5 28t125 76.5
t73.5 108.5t31 129l94 -16q-8 -181 -140.5 -298.5t-363.5 -117.5q-218 0 -332.5 90t-114.5 238q0 73 29.5 133.5t76.5 101t104 75t114.5 65.5t104.5 63t76.5 76t29.5 96q0 24 -4 50t-8 41.5t-10 34.5t-7 23z" />
    <glyph glyph-name="Agrave" unicode="&#xc0;" horiz-adv-x="1263" 
d="M506 1905l176 -357h-76l-235 357h135zM1219 0h-115l-152 440h-651l-145 -440h-111l465 1413h225zM428 825l-98 -295h592l-101 295q-127 376 -139 492h-121q-8 -75 -52.5 -230t-80.5 -262z" />
    <glyph glyph-name="Aacute" unicode="&#xc1;" horiz-adv-x="1263" 
d="M733 1905h133l-233 -357h-76zM1219 0h-115l-152 440h-651l-145 -440h-111l465 1413h225zM428 825l-98 -295h592l-101 295q-127 376 -139 492h-121q-8 -75 -52.5 -230t-80.5 -262z" />
    <glyph glyph-name="Acircumflex" unicode="&#xc2;" horiz-adv-x="1263" 
d="M786 1548l-163 299l-166 -299h-105l213 357h113l211 -357h-103zM1219 0h-115l-152 440h-651l-145 -440h-111l465 1413h225zM428 825l-98 -295h592l-101 295q-127 376 -139 492h-121q-8 -75 -52.5 -230t-80.5 -262z" />
    <glyph glyph-name="Atilde" unicode="&#xc3;" horiz-adv-x="1263" 
d="M401 1583l-63 10q-10 92 37 173t133 81q36 0 65.5 -18.5t49.5 -45t38.5 -53t40.5 -45t48 -18.5q88 0 79 180l62 -14q8 -60 -2.5 -114.5t-46 -95t-92.5 -40.5q-38 0 -68.5 18.5t-49.5 44.5t-36.5 52t-40 44.5t-49.5 18.5q-40 0 -65.5 -32t-33 -69.5t-6.5 -76.5zM1219 0
h-115l-152 440h-651l-145 -440h-111l465 1413h225zM428 825l-98 -295h592l-101 295q-127 376 -139 492h-121q-8 -75 -52.5 -230t-80.5 -262z" />
    <glyph glyph-name="Adieresis" unicode="&#xc4;" horiz-adv-x="1263" 
d="M473 1628q-38 0 -58 21t-20 55q0 33 20 54.5t58 21.5q35 0 54.5 -22t19.5 -54q0 -34 -19 -55t-55 -21zM772 1628q-38 0 -57 21t-19 55q0 33 19 54.5t57 21.5q37 0 56.5 -21.5t19.5 -54.5q0 -34 -19.5 -55t-56.5 -21zM1219 0h-115l-152 440h-651l-145 -440h-111l465 1413
h225zM428 825l-98 -295h592l-101 295q-127 376 -139 492h-121q-8 -75 -52.5 -230t-80.5 -262z" />
    <glyph glyph-name="Aring" unicode="&#xc5;" horiz-adv-x="1263" 
d="M621 1546q-78 0 -124 46.5t-46 127.5q0 79 47.5 127.5t122.5 48.5q74 0 122 -48.5t48 -127.5q0 -81 -46 -127.5t-124 -46.5zM621 1837q-45 0 -73 -29t-28 -86q0 -114 101 -114q102 0 102 114q0 58 -27 86.5t-75 28.5zM1219 0h-115l-152 440h-651l-145 -440h-111l465 1413
h225zM428 825l-98 -295h592l-101 295q-127 376 -139 492h-121q-8 -75 -52.5 -230t-80.5 -262z" />
    <glyph glyph-name="AE" unicode="&#xc6;" horiz-adv-x="1843" 
d="M973 688v-594h772v-94h-881v440h-467l-223 -440h-129l739 1413h930v-92h-741v-541h645v-92h-645zM594 825l-150 -295h420v791h-41q-9 -33 -30.5 -85t-53 -117.5t-53.5 -110.5t-55.5 -111t-36.5 -72z" />
    <glyph glyph-name="Ccedilla" unicode="&#xc7;" horiz-adv-x="1429" 
d="M776 72q102 0 183.5 28t134.5 77t86 104.5t49 119.5l92 -26q-13 -57 -37 -110t-69 -106.5t-104.5 -93t-147.5 -64t-193 -24.5h-8l-12 -77q106 4 162.5 -41t56.5 -113q0 -79 -65 -129.5t-165 -50.5q-81 0 -141.5 30.5t-83.5 61.5l43 51q22 -27 68.5 -50.5t105.5 -23.5
q78 0 117 32.5t39 80.5q0 54 -46.5 82t-127.5 16l-43 35l20 101q-142 12 -248.5 69t-173 150.5t-99 216t-32.5 272.5q0 347 169 546.5t460 199.5q265 0 404.5 -127.5t152.5 -341.5l-96 -17q-47 393 -459 393q-240 0 -378 -172.5t-138 -478.5q0 -300 138 -460t386 -160z" />
    <glyph glyph-name="Egrave" unicode="&#xc8;" horiz-adv-x="1241" 
d="M565 1905l176 -357h-75l-236 357h135zM332 688v-592h811v-96h-922v1413h893v-92h-782v-541h696l-12 -92h-684z" />
    <glyph glyph-name="Eacute" unicode="&#xc9;" horiz-adv-x="1241" 
d="M793 1905h133l-234 -357h-76zM332 688v-592h811v-96h-922v1413h893v-92h-782v-541h696l-12 -92h-684z" />
    <glyph glyph-name="Ecircumflex" unicode="&#xca;" horiz-adv-x="1241" 
d="M846 1548l-164 299l-166 -299h-104l213 357h112l211 -357h-102zM332 688v-592h811v-96h-922v1413h893v-92h-782v-541h696l-12 -92h-684z" />
    <glyph glyph-name="Edieresis" unicode="&#xcb;" horiz-adv-x="1241" 
d="M532 1628q-38 0 -57.5 21t-19.5 55q0 33 19.5 54.5t57.5 21.5q35 0 54.5 -22t19.5 -54q0 -34 -19 -55t-55 -21zM831 1628q-38 0 -56.5 21t-18.5 55q0 33 18.5 54.5t56.5 21.5q37 0 56.5 -21.5t19.5 -54.5q0 -34 -19.5 -55t-56.5 -21zM332 688v-592h811v-96h-922v1413h893
v-92h-782v-541h696l-12 -92h-684z" />
    <glyph glyph-name="Igrave" unicode="&#xcc;" horiz-adv-x="552" 
d="M338 1548h-76l-235 357h135zM332 0h-111v1413h111v-1413z" />
    <glyph glyph-name="Iacute" unicode="&#xcd;" horiz-adv-x="552" 
d="M289 1548h-76l176 357h133zM332 0h-111v1413h111v-1413z" />
    <glyph glyph-name="Icircumflex" unicode="&#xce;" horiz-adv-x="552" 
d="M334 1905l211 -357h-103l-163 299l-166 -299h-105l213 357h113zM332 0h-111v1413h111v-1413z" />
    <glyph glyph-name="Idieresis" unicode="&#xcf;" horiz-adv-x="552" 
d="M129 1628q-38 0 -58 21t-20 55q0 33 20 54.5t58 21.5q35 0 54.5 -22t19.5 -54q0 -34 -19 -55t-55 -21zM428 1628q-38 0 -57 21t-19 55q0 33 19 54.5t57 21.5q37 0 56.5 -21.5t19.5 -54.5q0 -34 -19.5 -55t-56.5 -21zM332 0h-111v1413h111v-1413z" />
    <glyph glyph-name="Eth" unicode="&#xd0;" horiz-adv-x="1574" 
d="M819 1413q99 0 180 -15t151.5 -48.5t122.5 -88t89.5 -131.5t56.5 -182.5t19 -236.5q0 -192 -42 -330t-124 -221t-193.5 -121.5t-259.5 -38.5h-555v688h-178v92h178v633h555zM373 96h415q104 0 185 18t148 61.5t110.5 113.5t67.5 175.5t24 246.5q0 173 -34 292t-104 188.5
t-166 99.5t-231 30h-415v-541h440v-92h-440v-592z" />
    <glyph glyph-name="Ntilde" unicode="&#xd1;" horiz-adv-x="1513" 
d="M535 1583l-64 10q-10 92 37 173t133 81q36 0 65.5 -18.5t49.5 -45t38.5 -53t40.5 -45t48 -18.5q89 0 80 180l61 -14q8 -60 -2.5 -114.5t-46 -95t-92.5 -40.5q-38 0 -68.5 18.5t-49.5 44.5t-36.5 52t-40 44.5t-49.5 18.5q-40 0 -65 -32t-32.5 -69.5t-6.5 -76.5zM1186 799
v614h106v-1413h-166l-788 1321h-47q37 -264 37 -670v-651h-107v1413h180l783 -1304h43q-41 276 -41 690z" />
    <glyph glyph-name="Ograve" unicode="&#xd2;" horiz-adv-x="1587" 
d="M856 1548h-76l-235 357h135zM795 -23q-329 0 -493.5 187.5t-164.5 540.5q0 337 171.5 534t486.5 197t486 -197t171 -534q0 -353 -164 -540.5t-493 -187.5zM795 74q268 0 405 159t137 467q0 314 -138.5 477.5t-403.5 163.5q-266 0 -404.5 -164t-138.5 -477
q0 -308 137.5 -467t405.5 -159z" />
    <glyph glyph-name="Oacute" unicode="&#xd3;" horiz-adv-x="1587" 
d="M805 1548h-76l176 357h133zM795 -23q-329 0 -493.5 187.5t-164.5 540.5q0 337 171.5 534t486.5 197t486 -197t171 -534q0 -353 -164 -540.5t-493 -187.5zM795 74q268 0 405 159t137 467q0 314 -138.5 477.5t-403.5 163.5q-266 0 -404.5 -164t-138.5 -477
q0 -308 137.5 -467t405.5 -159z" />
    <glyph glyph-name="Ocircumflex" unicode="&#xd4;" horiz-adv-x="1587" 
d="M958 1548l-163 299l-166 -299h-105l213 357h113l211 -357h-103zM795 1436q315 0 486 -197t171 -534q0 -353 -164 -540.5t-493 -187.5t-493.5 187.5t-164.5 540.5q0 337 171.5 534t486.5 197zM795 74q268 0 405 159t137 467q0 314 -138.5 477.5t-403.5 163.5
q-266 0 -404.5 -164t-138.5 -477q0 -308 137.5 -467t405.5 -159z" />
    <glyph glyph-name="Otilde" unicode="&#xd5;" horiz-adv-x="1587" 
d="M575 1583l-63 10q-10 92 37 173t133 81q36 0 65.5 -18.5t49.5 -45t38.5 -53t40.5 -45t48 -18.5q89 0 80 180l61 -14q8 -60 -2.5 -114.5t-46 -95t-92.5 -40.5q-38 0 -68.5 18.5t-49.5 44.5t-36.5 52t-40 44.5t-49.5 18.5q-40 0 -65.5 -32t-33 -69.5t-6.5 -76.5zM795 -23
q-329 0 -493.5 187.5t-164.5 540.5q0 337 171.5 534t486.5 197t486 -197t171 -534q0 -353 -164 -540.5t-493 -187.5zM795 74q268 0 405 159t137 467q0 314 -138.5 477.5t-403.5 163.5q-266 0 -404.5 -164t-138.5 -477q0 -308 137.5 -467t405.5 -159z" />
    <glyph glyph-name="Odieresis" unicode="&#xd6;" horiz-adv-x="1587" 
d="M645 1628q-38 0 -58 21t-20 55q0 33 20 54.5t58 21.5q35 0 54.5 -22t19.5 -54q0 -34 -19 -55t-55 -21zM944 1628q-38 0 -57 21t-19 55q0 33 19 54.5t57 21.5q37 0 56.5 -21.5t19.5 -54.5q0 -34 -19.5 -55t-56.5 -21zM795 -23q-329 0 -493.5 187.5t-164.5 540.5
q0 337 171.5 534t486.5 197t486 -197t171 -534q0 -353 -164 -540.5t-493 -187.5zM795 74q268 0 405 159t137 467q0 314 -138.5 477.5t-403.5 163.5q-266 0 -404.5 -164t-138.5 -477q0 -308 137.5 -467t405.5 -159z" />
    <glyph glyph-name="multiply" unicode="&#xd7;" horiz-adv-x="1091" 
d="M938 1151l53 -57l-389 -379l389 -377l-53 -59l-391 380l-393 -380l-54 59l389 377l-389 379l54 57l393 -381z" />
    <glyph glyph-name="Oslash" unicode="&#xd8;" horiz-adv-x="1587" 
d="M1407 1444l-147 -182q192 -195 192 -557q0 -353 -164 -540.5t-493 -187.5q-284 0 -453 146l-98 -123h-88l139 172q-158 186 -158 533q0 337 171.5 534t486.5 197q249 0 413 -127l109 135h90zM252 700q0 -281 115 -438l778 969q-131 110 -350 110q-266 0 -404.5 -164
t-138.5 -477zM795 74q268 0 405 159t137 467q0 315 -141 482l-784 -973q135 -135 383 -135z" />
    <glyph glyph-name="Ugrave" unicode="&#xd9;" horiz-adv-x="1501" 
d="M633 1905l176 -357h-76l-235 357h135zM1174 1413h108v-938q0 -235 -136.5 -366.5t-397.5 -131.5q-260 0 -398.5 132t-138.5 366v938h111v-926q0 -207 115.5 -310t310.5 -103q200 0 313 102.5t113 310.5v926z" />
    <glyph glyph-name="Uacute" unicode="&#xda;" horiz-adv-x="1501" 
d="M860 1905h133l-233 -357h-76zM1174 1413h108v-938q0 -235 -136.5 -366.5t-397.5 -131.5q-260 0 -398.5 132t-138.5 366v938h111v-926q0 -207 115.5 -310t310.5 -103q200 0 313 102.5t113 310.5v926z" />
    <glyph glyph-name="Ucircumflex" unicode="&#xdb;" horiz-adv-x="1501" 
d="M913 1548l-163 299l-166 -299h-105l213 357h113l211 -357h-103zM1174 1413h108v-938q0 -235 -136.5 -366.5t-397.5 -131.5q-260 0 -398.5 132t-138.5 366v938h111v-926q0 -207 115.5 -310t310.5 -103q200 0 313 102.5t113 310.5v926z" />
    <glyph glyph-name="Udieresis" unicode="&#xdc;" horiz-adv-x="1501" 
d="M600 1628q-38 0 -58 21t-20 55q0 33 20 54.5t58 21.5q35 0 54.5 -22t19.5 -54q0 -34 -19 -55t-55 -21zM899 1628q-38 0 -57 21t-19 55q0 33 19 54.5t57 21.5q37 0 56.5 -21.5t19.5 -54.5q0 -34 -19.5 -55t-56.5 -21zM1174 1413h108v-938q0 -235 -136.5 -366.5
t-397.5 -131.5q-260 0 -398.5 132t-138.5 366v938h111v-926q0 -207 115.5 -310t310.5 -103q200 0 313 102.5t113 310.5v926z" />
    <glyph glyph-name="Yacute" unicode="&#xdd;" horiz-adv-x="1228" 
d="M727 1905h133l-233 -357h-76zM1071 1413h127l-536 -844v-569h-109v569l-522 844h131l225 -377q10 -17 48.5 -81.5t61 -104t50.5 -94t41 -90.5h43q9 25 25.5 58.5t31 60t40.5 70t38 63t41 65.5t33 53z" />
    <glyph glyph-name="Thorn" unicode="&#xde;" horiz-adv-x="1531" 
d="M332 1167h547q254 0 385 -119t131 -337q0 -217 -131.5 -341t-384.5 -124h-547v-246h-111v1413h111v-246zM332 340h510q217 0 327.5 97.5t110.5 273.5q0 172 -106.5 268t-325.5 96h-516v-735z" />
    <glyph glyph-name="germandbls" unicode="&#xdf;" horiz-adv-x="1234" 
d="M774 864v-35q50 0 98 -12.5t96 -43t84 -75.5t58.5 -117t22.5 -161q0 -194 -99 -318.5t-280 -124.5q-138 1 -231 77.5t-115 203.5l79 27q21 -94 86.5 -155.5t176.5 -61.5q74 0 129 29t86.5 80t47 114.5t15.5 138.5q0 361 -338 361h-174v86h96q143 0 220 77t77 197
q0 109 -74.5 168t-197.5 59q-139 0 -216 -67.5t-77 -198.5v-1112h-104v944h-185v80h185v82q0 169 109 264.5t292 95.5q161 0 266 -79t105 -228q0 -122 -65 -194t-173 -101z" />
    <glyph glyph-name="agrave" unicode="&#xe0;" horiz-adv-x="1191" 
d="M475 1516l176 -357h-76l-235 357h135zM1159 94l25 -67q-23 -18 -62.5 -34t-79.5 -16q-90 0 -133 69.5t-18 223.5h-39q-41 -130 -141.5 -211.5t-253.5 -81.5q-167 0 -252.5 83t-85.5 212q0 157 122.5 241.5t338.5 84.5q109 0 286 -20v129q0 251 -295 251q-134 0 -214 -63
t-105 -178l-86 26q19 137 131.5 220.5t282.5 83.5q180 0 284.5 -83t104.5 -249v-508q0 -52 16 -86t43 -46t61 -7.5t70 26.5zM465 68q175 0 283.5 109t117.5 325q-643 87 -643 -228q0 -99 63 -152.5t179 -53.5z" />
    <glyph glyph-name="aacute" unicode="&#xe1;" horiz-adv-x="1191" 
d="M700 1516h134l-234 -357h-76zM1159 94l25 -67q-23 -18 -62.5 -34t-79.5 -16q-90 0 -133 69.5t-18 223.5h-39q-41 -130 -141.5 -211.5t-253.5 -81.5q-167 0 -252.5 83t-85.5 212q0 157 122.5 241.5t338.5 84.5q109 0 286 -20v129q0 251 -295 251q-134 0 -214 -63
t-105 -178l-86 26q19 137 131.5 220.5t282.5 83.5q180 0 284.5 -83t104.5 -249v-508q0 -52 16 -86t43 -46t61 -7.5t70 26.5zM465 68q175 0 283.5 109t117.5 325q-643 87 -643 -228q0 -99 63 -152.5t179 -53.5z" />
    <glyph glyph-name="acircumflex" unicode="&#xe2;" horiz-adv-x="1191" 
d="M756 1159l-164 299l-166 -299h-104l213 357h112l211 -357h-102zM1159 94l25 -67q-23 -18 -62.5 -34t-79.5 -16q-90 0 -133 69.5t-18 223.5h-39q-41 -130 -141.5 -211.5t-253.5 -81.5q-167 0 -252.5 83t-85.5 212q0 157 122.5 241.5t338.5 84.5q109 0 286 -20v129
q0 251 -295 251q-134 0 -214 -63t-105 -178l-86 26q19 137 131.5 220.5t282.5 83.5q180 0 284.5 -83t104.5 -249v-508q0 -52 16 -86t43 -46t61 -7.5t70 26.5zM465 68q175 0 283.5 109t117.5 325q-643 87 -643 -228q0 -99 63 -152.5t179 -53.5z" />
    <glyph glyph-name="atilde" unicode="&#xe3;" horiz-adv-x="1191" 
d="M371 1194l-64 10q-10 92 37 173t133 81q36 0 65.5 -18.5t49.5 -45t38.5 -53t40.5 -45t48 -18.5q89 0 80 180l61 -14q8 -60 -2.5 -114.5t-46 -95t-92.5 -40.5q-38 0 -68.5 18.5t-49.5 44.5t-36.5 52t-40 44.5t-49.5 18.5q-40 0 -65 -32t-32.5 -69.5t-6.5 -76.5zM1159 94
l25 -67q-23 -18 -62.5 -34t-79.5 -16q-90 0 -133 69.5t-18 223.5h-39q-41 -130 -141.5 -211.5t-253.5 -81.5q-167 0 -252.5 83t-85.5 212q0 157 122.5 241.5t338.5 84.5q109 0 286 -20v129q0 251 -295 251q-134 0 -214 -63t-105 -178l-86 26q19 137 131.5 220.5t282.5 83.5
q180 0 284.5 -83t104.5 -249v-508q0 -52 16 -86t43 -46t61 -7.5t70 26.5zM465 68q175 0 283.5 109t117.5 325q-643 87 -643 -228q0 -99 63 -152.5t179 -53.5z" />
    <glyph glyph-name="adieresis" unicode="&#xe4;" horiz-adv-x="1191" 
d="M440 1239q-38 0 -58 21t-20 55q0 33 20 54.5t58 21.5q35 0 54.5 -22t19.5 -54q0 -34 -19 -55t-55 -21zM739 1239q-38 0 -56.5 21t-18.5 55q0 33 18.5 54.5t56.5 21.5q37 0 56.5 -21.5t19.5 -54.5q0 -34 -19.5 -55t-56.5 -21zM1159 94l25 -67q-23 -18 -62.5 -34t-79.5 -16
q-90 0 -133 69.5t-18 223.5h-39q-41 -130 -141.5 -211.5t-253.5 -81.5q-167 0 -252.5 83t-85.5 212q0 157 122.5 241.5t338.5 84.5q109 0 286 -20v129q0 251 -295 251q-134 0 -214 -63t-105 -178l-86 26q19 137 131.5 220.5t282.5 83.5q180 0 284.5 -83t104.5 -249v-508
q0 -52 16 -86t43 -46t61 -7.5t70 26.5zM465 68q175 0 283.5 109t117.5 325q-643 87 -643 -228q0 -99 63 -152.5t179 -53.5z" />
    <glyph glyph-name="aring" unicode="&#xe5;" horiz-adv-x="1191" 
d="M590 1157q-78 0 -124 46.5t-46 127.5q0 79 47.5 127.5t122.5 48.5q74 0 122 -48.5t48 -127.5q0 -81 -46 -127.5t-124 -46.5zM590 1448q-45 0 -73 -29t-28 -86q0 -114 101 -114q102 0 102 114q0 58 -27 86.5t-75 28.5zM1159 94l25 -67q-23 -18 -62.5 -34t-79.5 -16
q-90 0 -133 69.5t-18 223.5h-39q-41 -130 -141.5 -211.5t-253.5 -81.5q-167 0 -252.5 83t-85.5 212q0 157 122.5 241.5t338.5 84.5q109 0 286 -20v129q0 251 -295 251q-134 0 -214 -63t-105 -178l-86 26q19 137 131.5 220.5t282.5 83.5q180 0 284.5 -83t104.5 -249v-508
q0 -52 16 -86t43 -46t61 -7.5t70 26.5zM465 68q175 0 283.5 109t117.5 325q-643 87 -643 -228q0 -99 63 -152.5t179 -53.5z" />
    <glyph glyph-name="ae" unicode="&#xe6;" horiz-adv-x="1837" 
d="M1321 1047q237 0 344 -145.5t86 -409.5h-811q1 -212 104.5 -318t276.5 -106q254 0 348 225l82 -25q-41 -132 -155.5 -211.5t-278.5 -79.5q-171 0 -284 75.5t-159 217.5h-43q-37 -134 -131.5 -213.5t-244.5 -79.5q-164 0 -250 84.5t-86 210.5q0 156 121 241t333 85
q153 0 267 -20v129q0 251 -281 251q-253 0 -305 -241l-88 26q19 139 124.5 221.5t274.5 82.5q299 0 357 -216q62 104 164.5 160t234.5 56zM1317 958q-158 0 -258 -97t-117 -294h715q-2 91 -18 158.5t-53 122t-104.5 82.5t-164.5 28zM463 72q174 0 272 105t105 323
q-615 86 -615 -226q0 -96 62 -149t176 -53z" />
    <glyph glyph-name="ccedilla" unicode="&#xe7;" horiz-adv-x="1071" 
d="M569 -23h-2l-12 -77q106 4 162.5 -41t56.5 -113q0 -79 -64.5 -129.5t-164.5 -50.5q-81 0 -142 30.5t-84 61.5l43 51q22 -27 69 -50.5t106 -23.5q78 0 116.5 32t38.5 81q0 54 -46.5 82t-127.5 16l-43 35l21 101q-188 21 -293 151.5t-105 378.5q0 256 132 395.5t350 139.5
q169 0 271.5 -70t127.5 -205l-84 -27q-50 213 -309 213q-177 0 -278 -114t-101 -334q0 -218 97 -329t278 -111q126 0 209 58.5t120 162.5l82 -27q-33 -126 -142.5 -206.5t-281.5 -80.5z" />
    <glyph glyph-name="egrave" unicode="&#xe8;" horiz-adv-x="1097" 
d="M432 1516l176 -357h-76l-235 357h135zM582 1047q236 0 343.5 -151.5t86.5 -416.5h-807q4 -206 105.5 -308.5t271.5 -102.5q254 0 348 225l82 -25q-41 -132 -155.5 -211.5t-278.5 -79.5q-231 0 -355.5 135.5t-124.5 383.5q0 258 132.5 404.5t351.5 146.5zM580 958
q-161 0 -261 -99.5t-112 -303.5h711q-1 73 -11 130.5t-33.5 110t-60.5 87t-96 55t-137 20.5z" />
    <glyph glyph-name="eacute" unicode="&#xe9;" horiz-adv-x="1097" 
d="M657 1516h134l-234 -357h-76zM582 1047q236 0 343.5 -151.5t86.5 -416.5h-807q4 -206 105.5 -308.5t271.5 -102.5q254 0 348 225l82 -25q-41 -132 -155.5 -211.5t-278.5 -79.5q-231 0 -355.5 135.5t-124.5 383.5q0 258 132.5 404.5t351.5 146.5zM580 958
q-161 0 -261 -99.5t-112 -303.5h711q-1 73 -11 130.5t-33.5 110t-60.5 87t-96 55t-137 20.5z" />
    <glyph glyph-name="ecircumflex" unicode="&#xea;" horiz-adv-x="1097" 
d="M713 1159l-164 299l-166 -299h-104l213 357h112l211 -357h-102zM582 1047q236 0 343.5 -151.5t86.5 -416.5h-807q4 -206 105.5 -308.5t271.5 -102.5q254 0 348 225l82 -25q-41 -132 -155.5 -211.5t-278.5 -79.5q-231 0 -355.5 135.5t-124.5 383.5q0 258 132.5 404.5
t351.5 146.5zM580 958q-161 0 -261 -99.5t-112 -303.5h711q-1 73 -11 130.5t-33.5 110t-60.5 87t-96 55t-137 20.5z" />
    <glyph glyph-name="edieresis" unicode="&#xeb;" horiz-adv-x="1097" 
d="M397 1239q-38 0 -58 21t-20 55q0 33 20 54.5t58 21.5q35 0 54.5 -22t19.5 -54q0 -34 -19 -55t-55 -21zM696 1239q-38 0 -56.5 21t-18.5 55q0 33 18.5 54.5t56.5 21.5q37 0 56.5 -21.5t19.5 -54.5q0 -34 -19.5 -55t-56.5 -21zM582 1047q236 0 343.5 -151.5t86.5 -416.5
h-807q4 -206 105.5 -308.5t271.5 -102.5q254 0 348 225l82 -25q-41 -132 -155.5 -211.5t-278.5 -79.5q-231 0 -355.5 135.5t-124.5 383.5q0 258 132.5 404.5t351.5 146.5zM580 958q-161 0 -261 -99.5t-112 -303.5h711q-1 73 -11 130.5t-33.5 110t-60.5 87t-96 55t-137 20.5z
" />
    <glyph glyph-name="igrave" unicode="&#xec;" horiz-adv-x="485" 
d="M305 1159h-76l-235 357h135zM295 0h-105v1024h105v-1024z" />
    <glyph glyph-name="iacute" unicode="&#xed;" horiz-adv-x="485" 
d="M254 1159h-76l176 357h133zM295 0h-105v1024h105v-1024z" />
    <glyph glyph-name="icircumflex" unicode="&#xee;" horiz-adv-x="485" 
d="M301 1516l211 -357h-102l-164 299l-166 -299h-105l213 357h113zM295 0h-105v1024h105v-1024z" />
    <glyph glyph-name="idieresis" unicode="&#xef;" horiz-adv-x="485" 
d="M94 1239q-38 0 -58 21t-20 55q0 33 20 54.5t58 21.5q35 0 54.5 -22t19.5 -54q0 -34 -19 -55t-55 -21zM393 1239q-38 0 -57 21t-19 55q0 33 19 54.5t57 21.5q37 0 56.5 -21.5t19.5 -54.5q0 -34 -19.5 -55t-56.5 -21zM295 0h-105v1024h105v-1024z" />
    <glyph glyph-name="eth" unicode="&#xf0;" horiz-adv-x="1249" 
d="M745 1288l398 180v-86l-340 -153q63 -68 115 -142.5t99.5 -165t74 -195t26.5 -210.5q0 -245 -124.5 -392t-358.5 -147q-231 0 -354 131.5t-123 356.5q0 117 39 211t103 151t142 87t162 30q211 0 334 -158l23 13q-68 199 -248 389l-473 -215v86l413 188q-106 101 -239 197
h143q85 -53 188 -156zM631 70q84 0 151.5 25.5t120 79.5t81 147t28.5 219q0 27 -2 39q-19 55 -47.5 100.5t-72.5 87.5t-110.5 66t-148.5 24q-71 0 -134.5 -23t-116 -68.5t-83.5 -123t-31 -178.5q0 -183 94.5 -289t270.5 -106z" />
    <glyph glyph-name="ntilde" unicode="&#xf1;" horiz-adv-x="1200" 
d="M428 1194l-63 10q-10 92 37 173t133 81q36 0 65.5 -18.5t49.5 -45t38 -53t40 -45t48 -18.5q89 0 80 180l62 -14q8 -59 -2.5 -114t-46.5 -95.5t-93 -40.5q-38 0 -68.5 18.5t-49.5 44.5t-36.5 52t-40 44.5t-49.5 18.5q-40 0 -65 -32t-32.5 -69.5t-6.5 -76.5zM702 1047
q151 0 237.5 -91t86.5 -247v-709h-102v676q0 129 -67.5 201.5t-194.5 72.5q-114 0 -199 -65.5t-126.5 -171.5t-41.5 -236v-477h-105v1024h78l19 -266h37q44 129 141 209t237 80z" />
    <glyph glyph-name="ograve" unicode="&#xf2;" horiz-adv-x="1159" 
d="M637 1159h-76l-235 357h135zM575 -23q-228 0 -353.5 140.5t-123.5 392.5q3 250 129 393.5t348 143.5q225 0 353 -144t125 -393q-2 -255 -126 -394t-352 -139zM575 70q185 0 278 114t93 328q0 213 -94 329.5t-277 116.5q-180 0 -274 -118t-94 -328q0 -213 93 -327.5
t275 -114.5z" />
    <glyph glyph-name="oacute" unicode="&#xf3;" horiz-adv-x="1159" 
d="M588 1159h-76l176 357h133zM575 -23q-228 0 -353.5 140.5t-123.5 392.5q3 250 129 393.5t348 143.5q225 0 353 -144t125 -393q-2 -255 -126 -394t-352 -139zM575 70q185 0 278 114t93 328q0 213 -94 329.5t-277 116.5q-180 0 -274 -118t-94 -328q0 -213 93 -327.5
t275 -114.5z" />
    <glyph glyph-name="ocircumflex" unicode="&#xf4;" horiz-adv-x="1159" 
d="M741 1159l-163 299l-166 -299h-105l213 357h113l211 -357h-103zM575 1047q225 0 353 -144t125 -393q-2 -255 -126 -394t-352 -139t-353.5 140.5t-123.5 392.5q3 250 129 393.5t348 143.5zM575 70q185 0 278 114t93 328q0 213 -94 329.5t-277 116.5q-180 0 -274 -118
t-94 -328q0 -213 93 -327.5t275 -114.5z" />
    <glyph glyph-name="otilde" unicode="&#xf5;" horiz-adv-x="1159" 
d="M356 1194l-63 10q-10 92 37 173t133 81q36 0 65.5 -18.5t49.5 -45t38.5 -53t40.5 -45t48 -18.5q88 0 79 180l62 -14q8 -60 -2.5 -114.5t-46 -95t-92.5 -40.5q-38 0 -68.5 18.5t-49.5 44.5t-36.5 52t-40 44.5t-49.5 18.5q-40 0 -65.5 -32t-33 -69.5t-6.5 -76.5zM575 -23
q-228 0 -353.5 140.5t-123.5 392.5q3 250 129 393.5t348 143.5q225 0 353 -144t125 -393q-2 -255 -126 -394t-352 -139zM575 70q185 0 278 114t93 328q0 213 -94 329.5t-277 116.5q-180 0 -274 -118t-94 -328q0 -213 93 -327.5t275 -114.5z" />
    <glyph glyph-name="odieresis" unicode="&#xf6;" horiz-adv-x="1159" 
d="M428 1239q-38 0 -58 21t-20 55q0 33 20 54.5t58 21.5q35 0 54.5 -22t19.5 -54q0 -34 -19 -55t-55 -21zM727 1239q-38 0 -57 21t-19 55q0 33 19 54.5t57 21.5q37 0 56.5 -21.5t19.5 -54.5q0 -34 -19.5 -55t-56.5 -21zM575 -23q-228 0 -353.5 140.5t-123.5 392.5
q3 250 129 393.5t348 143.5q225 0 353 -144t125 -393q-2 -255 -126 -394t-352 -139zM575 70q185 0 278 114t93 328q0 213 -94 329.5t-277 116.5q-180 0 -274 -118t-94 -328q0 -213 93 -327.5t275 -114.5z" />
    <glyph glyph-name="divide" unicode="&#xf7;" horiz-adv-x="1009" 
d="M504 975q-39 0 -59.5 22.5t-20.5 57.5q0 36 20.5 59t59.5 23q41 0 61.5 -23t20.5 -59q0 -35 -20.5 -57.5t-61.5 -22.5zM907 676h-805v80h805v-80zM504 295q-40 0 -60 22t-20 58q0 35 20.5 57.5t59.5 22.5q41 0 61.5 -22.5t20.5 -57.5q0 -36 -20.5 -58t-61.5 -22z" />
    <glyph glyph-name="oslash" unicode="&#xf8;" horiz-adv-x="1165" 
d="M975 1024h88l-121 -139q114 -139 111 -375q-2 -255 -126 -394t-352 -139q-202 0 -325 111l-76 -88h-86l119 137q-109 136 -109 373q3 250 129 393.5t348 143.5q200 0 322 -113zM207 512q0 -186 69 -295l558 645q-93 96 -259 96q-180 0 -274 -118t-94 -328zM946 512
q0 185 -69 297l-560 -643q93 -96 258 -96q185 0 278 114t93 328z" />
    <glyph glyph-name="ugrave" unicode="&#xf9;" horiz-adv-x="1179" 
d="M475 1516l176 -357h-76l-235 357h135zM885 612v412h102v-1024h-78l-14 270h-33q-40 -125 -135 -209t-227 -84q-152 0 -239 91t-87 247v709h102v-684q0 -128 67 -200t187 -72q113 0 194.5 73.5t121 195t39.5 275.5z" />
    <glyph glyph-name="uacute" unicode="&#xfa;" horiz-adv-x="1179" 
d="M700 1516h134l-234 -357h-76zM885 612v412h102v-1024h-78l-14 270h-33q-40 -125 -135 -209t-227 -84q-152 0 -239 91t-87 247v709h102v-684q0 -128 67 -200t187 -72q113 0 194.5 73.5t121 195t39.5 275.5z" />
    <glyph glyph-name="ucircumflex" unicode="&#xfb;" horiz-adv-x="1179" 
d="M756 1159l-164 299l-166 -299h-104l213 357h112l211 -357h-102zM885 612v412h102v-1024h-78l-14 270h-33q-40 -125 -135 -209t-227 -84q-152 0 -239 91t-87 247v709h102v-684q0 -128 67 -200t187 -72q113 0 194.5 73.5t121 195t39.5 275.5z" />
    <glyph glyph-name="udieresis" unicode="&#xfc;" horiz-adv-x="1179" 
d="M440 1239q-38 0 -58 21t-20 55q0 33 20 54.5t58 21.5q35 0 54.5 -22t19.5 -54q0 -34 -19 -55t-55 -21zM739 1239q-38 0 -56.5 21t-18.5 55q0 33 18.5 54.5t56.5 21.5q37 0 56.5 -21.5t19.5 -54.5q0 -34 -19.5 -55t-56.5 -21zM885 612v412h102v-1024h-78l-14 270h-33
q-40 -125 -135 -209t-227 -84q-152 0 -239 91t-87 247v709h102v-684q0 -128 67 -200t187 -72q113 0 194.5 73.5t121 195t39.5 275.5z" />
    <glyph glyph-name="yacute" unicode="&#xfd;" horiz-adv-x="974" 
d="M600 1516h133l-233 -357h-76zM631 492l194 532h115l-391 -1024q-70 -184 -136.5 -262t-158.5 -78q-56 0 -104 25t-76 57l61 82q59 -64 125 -64q71 0 126.5 67t86.5 173h-45l-393 1024h115l198 -532q4 -11 26 -73t32 -91t26 -81t25 -91t12 -72h41q4 40 19.5 98.5t30 102
t39 113.5t32.5 94z" />
    <glyph glyph-name="thorn" unicode="&#xfe;" horiz-adv-x="1259" 
d="M717 1047q203 0 320.5 -136t117.5 -399q0 -247 -120 -391.5t-330 -143.5q-144 1 -243.5 78.5t-144.5 214.5h-34q12 -210 12 -385v-295h-105v1848h105v-297q0 -313 -6 -383h37q51 135 151.5 212t239.5 77zM684 68q174 0 268.5 115.5t94.5 326.5q0 217 -91 332.5
t-270 115.5q-162 0 -265.5 -117.5t-103.5 -338.5q0 -212 100 -323t267 -111z" />
    <glyph glyph-name="ydieresis" unicode="&#xff;" horiz-adv-x="974" 
d="M340 1239q-38 0 -58 21t-20 55q0 33 20 54.5t58 21.5q35 0 54.5 -22t19.5 -54q0 -34 -19 -55t-55 -21zM639 1239q-38 0 -57 21t-19 55q0 33 19 54.5t57 21.5q37 0 56.5 -21.5t19.5 -54.5q0 -34 -19.5 -55t-56.5 -21zM631 492l194 532h115l-391 -1024
q-70 -184 -136.5 -262t-158.5 -78q-56 0 -104 25t-76 57l61 82q59 -64 125 -64q71 0 126.5 67t86.5 173h-45l-393 1024h115l198 -532q4 -11 26 -73t32 -91t26 -81t25 -91t12 -72h41q4 40 19.5 98.5t30 102t39 113.5t32.5 94z" />
    <glyph glyph-name="Amacron" unicode="&#x100;" horiz-adv-x="1263" 
d="M354 1704h559v-78h-559v78zM1219 0h-115l-152 440h-651l-145 -440h-111l465 1413h225zM428 825l-98 -295h592l-101 295q-127 376 -139 492h-121q-8 -75 -52.5 -230t-80.5 -262z" />
    <glyph glyph-name="amacron" unicode="&#x101;" horiz-adv-x="1191" 
d="M324 1315h559v-78h-559v78zM1159 94l25 -67q-23 -18 -62.5 -34t-79.5 -16q-90 0 -133 69.5t-18 223.5h-39q-41 -130 -141.5 -211.5t-253.5 -81.5q-167 0 -252.5 83t-85.5 212q0 157 122.5 241.5t338.5 84.5q109 0 286 -20v129q0 251 -295 251q-134 0 -214 -63t-105 -178
l-86 26q19 137 131.5 220.5t282.5 83.5q180 0 284.5 -83t104.5 -249v-508q0 -52 16 -86t43 -46t61 -7.5t70 26.5zM465 68q175 0 283.5 109t117.5 325q-643 87 -643 -228q0 -99 63 -152.5t179 -53.5z" />
    <glyph glyph-name="Abreve" unicode="&#x102;" horiz-adv-x="1263" 
d="M621 1536q-132 0 -204.5 92t-72.5 287h78q0 -297 199 -297q99 0 148.5 71t49.5 226h76q0 -195 -72 -287t-202 -92zM1219 0h-115l-152 440h-651l-145 -440h-111l465 1413h225zM428 825l-98 -295h592l-101 295q-127 376 -139 492h-121q-8 -75 -52.5 -230t-80.5 -262z" />
    <glyph glyph-name="abreve" unicode="&#x103;" horiz-adv-x="1191" 
d="M590 1147q-132 0 -204.5 92t-72.5 287h78q0 -297 199 -297q99 0 148.5 71t49.5 226h76q0 -195 -72 -287t-202 -92zM1159 94l25 -67q-23 -18 -62.5 -34t-79.5 -16q-90 0 -133 69.5t-18 223.5h-39q-41 -130 -141.5 -211.5t-253.5 -81.5q-167 0 -252.5 83t-85.5 212
q0 157 122.5 241.5t338.5 84.5q109 0 286 -20v129q0 251 -295 251q-134 0 -214 -63t-105 -178l-86 26q19 137 131.5 220.5t282.5 83.5q180 0 284.5 -83t104.5 -249v-508q0 -52 16 -86t43 -46t61 -7.5t70 26.5zM465 68q175 0 283.5 109t117.5 325q-643 87 -643 -228
q0 -99 63 -152.5t179 -53.5z" />
    <glyph glyph-name="Aogonek" unicode="&#x104;" horiz-adv-x="1263" 
d="M1036 -188q0 -58 41 -96.5t96 -50t107 -1.5v-70q-84 -17 -159 2.5t-121 71t-46 123.5t45.5 126t108.5 83h-4l-152 440h-651l-145 -440h-111l465 1413h225l484 -1413h-29q-22 -8 -46.5 -23t-50 -37.5t-41.5 -56.5t-16 -71zM428 825l-98 -295h592l-101 295
q-127 376 -139 492h-121q-8 -75 -52.5 -230t-80.5 -262z" />
    <glyph glyph-name="aogonek" unicode="&#x105;" horiz-adv-x="1191" 
d="M973 -188q0 -58 41 -96.5t96 -50t107 -1.5v-70q-84 -17 -159 2.5t-121 71t-46 123.5q0 61 33.5 109t83.5 80q-159 28 -117 290h-39q-41 -130 -141.5 -211.5t-253.5 -81.5q-167 0 -252.5 83t-85.5 212q0 157 122.5 241.5t338.5 84.5q109 0 286 -20v129q0 251 -295 251
q-134 0 -214 -63t-105 -178l-86 26q19 137 131.5 220.5t282.5 83.5q180 0 284.5 -83t104.5 -249v-508q0 -52 16 -86t43 -46t61 -7.5t70 26.5l25 -67q-42 -33 -94 -43q-117 -68 -117 -172zM465 68q175 0 283.5 109t117.5 325q-643 87 -643 -228q0 -99 63 -152.5t179 -53.5z
" />
    <glyph glyph-name="Cacute" unicode="&#x106;" horiz-adv-x="1429" 
d="M780 1548h-75l176 357h133zM770 -23q-162 0 -284.5 52t-198 147.5t-113 224.5t-37.5 289q0 347 169 546.5t460 199.5q265 0 404.5 -127.5t152.5 -341.5l-96 -17q-47 393 -459 393q-240 0 -378 -172.5t-138 -478.5q0 -300 138 -460t386 -160q102 0 183.5 28t134.5 77
t86 104.5t49 119.5l92 -26q-13 -57 -37 -110t-69 -106.5t-104.5 -93t-147.5 -64t-193 -24.5z" />
    <glyph glyph-name="cacute" unicode="&#x107;" horiz-adv-x="1071" 
d="M571 1159h-75l176 357h133zM569 -23q-220 0 -345.5 132t-125.5 403q0 256 132 395.5t350 139.5q169 0 271.5 -70t127.5 -205l-84 -27q-50 213 -309 213q-177 0 -278 -114t-101 -334q0 -218 97 -329t278 -111q126 0 209 58.5t120 162.5l82 -27q-33 -126 -142.5 -206.5
t-281.5 -80.5z" />
    <glyph glyph-name="Ccircumflex" unicode="&#x108;" horiz-adv-x="1429" 
d="M934 1548l-164 299l-166 -299h-104l213 357h112l211 -357h-102zM776 72q102 0 183.5 28t134.5 77t86 104.5t49 119.5l92 -26q-13 -57 -37 -110t-69 -106.5t-104.5 -93t-147.5 -64t-193 -24.5q-162 0 -284.5 52t-198 147.5t-113 224.5t-37.5 289q0 347 169 546.5
t460 199.5q265 0 404.5 -127.5t152.5 -341.5l-96 -17q-47 393 -459 393q-240 0 -378 -172.5t-138 -478.5q0 -300 138 -460t386 -160z" />
    <glyph glyph-name="ccircumflex" unicode="&#x109;" horiz-adv-x="1071" 
d="M725 1159l-164 299l-166 -299h-104l213 357h112l211 -357h-102zM911 291l82 -27q-33 -126 -142.5 -206.5t-281.5 -80.5q-220 0 -345.5 132t-125.5 403q0 256 132 395.5t350 139.5q169 0 271.5 -70t127.5 -205l-84 -27q-50 213 -309 213q-177 0 -278 -114t-101 -334
q0 -218 97 -329t278 -111q126 0 209 58.5t120 162.5z" />
    <glyph glyph-name="Cdotaccent" unicode="&#x10a;" horiz-adv-x="1429" 
d="M770 1626q-38 0 -58 22t-20 58q0 33 20 54.5t58 21.5q37 0 56.5 -21.5t19.5 -54.5q0 -35 -19.5 -57.5t-56.5 -22.5zM770 -23q-162 0 -284.5 52t-198 147.5t-113 224.5t-37.5 289q0 347 169 546.5t460 199.5q265 0 404.5 -127.5t152.5 -341.5l-96 -17q-47 393 -459 393
q-240 0 -378 -172.5t-138 -478.5q0 -300 138 -460t386 -160q102 0 183.5 28t134.5 77t86 104.5t49 119.5l92 -26q-13 -57 -37 -110t-69 -106.5t-104.5 -93t-147.5 -64t-193 -24.5z" />
    <glyph glyph-name="cdotaccent" unicode="&#x10b;" horiz-adv-x="1071" 
d="M559 1237q-38 0 -58 22t-20 58q0 33 20 54.5t58 21.5q37 0 56.5 -21.5t19.5 -54.5q0 -35 -19.5 -57.5t-56.5 -22.5zM569 -23q-220 0 -345.5 132t-125.5 403q0 256 132 395.5t350 139.5q169 0 271.5 -70t127.5 -205l-84 -27q-50 213 -309 213q-177 0 -278 -114t-101 -334
q0 -218 97 -329t278 -111q126 0 209 58.5t120 162.5l82 -27q-33 -126 -142.5 -206.5t-281.5 -80.5z" />
    <glyph glyph-name="Ccaron" unicode="&#x10c;" horiz-adv-x="1429" 
d="M709 1548l-213 357h104l166 -299l164 299h102l-211 -357h-112zM776 72q102 0 183.5 28t134.5 77t86 104.5t49 119.5l92 -26q-13 -57 -37 -110t-69 -106.5t-104.5 -93t-147.5 -64t-193 -24.5q-162 0 -284.5 52t-198 147.5t-113 224.5t-37.5 289q0 347 169 546.5t460 199.5
q265 0 404.5 -127.5t152.5 -341.5l-96 -17q-47 393 -459 393q-240 0 -378 -172.5t-138 -478.5q0 -300 138 -460t386 -160z" />
    <glyph glyph-name="ccaron" unicode="&#x10d;" horiz-adv-x="1079" 
d="M506 1159l-213 357h104l166 -299l164 299h102l-211 -357h-112zM911 291l82 -27q-33 -126 -142.5 -206.5t-281.5 -80.5q-220 0 -345.5 132t-125.5 403q0 256 132 395.5t350 139.5q169 0 271.5 -70t127.5 -205l-84 -27q-50 213 -309 213q-177 0 -278 -114t-101 -334
q0 -218 97 -329t278 -111q126 0 209 58.5t120 162.5z" />
    <glyph glyph-name="Dcaron" unicode="&#x10e;" horiz-adv-x="1531" 
d="M705 1548l-211 357h102l166 -299l164 299h104l-213 -357h-112zM776 1413q99 0 180.5 -15t152 -48.5t122.5 -88t89.5 -131.5t56 -182t18.5 -237q0 -192 -41.5 -330t-123.5 -221t-193.5 -121.5t-260.5 -38.5h-555v1413h555zM332 96h416q104 0 184.5 18t147.5 61.5
t110 113.5t66.5 175.5t23.5 246.5q0 173 -34 292t-104 188.5t-166 99.5t-231 30h-413v-1225z" />
    <glyph glyph-name="dcaron" unicode="&#x10f;" horiz-adv-x="1261" 
d="M1257 1536q86 0 86 -109q0 -87 -40.5 -167t-98.5 -123l-61 104q51 21 98 60.5t64 91.5q-21 -21 -56 -21q-38 0 -56.5 22.5t-18.5 57.5q0 36 21 60t62 24zM961 1141v303h102v-1444h-78l-18 270h-37q-45 -139 -141.5 -216t-231.5 -77q-209 0 -334 137.5t-125 397.5
q0 249 124.5 393t334.5 142q146 -1 241.5 -76.5t137.5 -212.5h37q0 8 -2.5 52t-4.5 84.5t-3.5 109.5t-1.5 137zM578 70q76 0 139.5 27t113 81t77.5 142.5t28 203.5q0 209 -99 323t-259 114q-176 0 -273.5 -116.5t-97.5 -330.5t96 -329t275 -115z" />
    <glyph glyph-name="Dcroat" unicode="&#x110;" horiz-adv-x="1574" 
d="M819 1413q99 0 180 -15t151.5 -48.5t122.5 -88t89.5 -131.5t56.5 -182.5t19 -236.5q0 -192 -42 -330t-124 -221t-193.5 -121.5t-259.5 -38.5h-555v688h-178v92h178v633h555zM373 96h415q104 0 185 18t148 61.5t110.5 113.5t67.5 175.5t24 246.5q0 173 -34 292t-104 188.5
t-166 99.5t-231 30h-415v-541h440v-92h-440v-592z" />
    <glyph glyph-name="dcroat" unicode="&#x111;" horiz-adv-x="1261" 
d="M1063 1270h135v-80h-135v-1190h-78l-18 270h-37q-45 -139 -141.5 -216t-231.5 -77q-209 0 -334 137.5t-125 397.5q0 249 124.5 393t334.5 142q146 -1 241.5 -76.5t137.5 -212.5h37q0 8 -2.5 52t-4.5 84.5t-3.5 109.5t-1.5 137v49h-326v80h326v174h102v-174zM578 70
q76 0 139.5 27t113 81t77.5 142.5t28 203.5q0 209 -99 323t-259 114q-176 0 -273.5 -116.5t-97.5 -330.5t96 -329t275 -115z" />
    <glyph glyph-name="Emacron" unicode="&#x112;" horiz-adv-x="1241" 
d="M414 1704h559v-78h-559v78zM332 688v-592h811v-96h-922v1413h893v-92h-782v-541h696l-12 -92h-684z" />
    <glyph glyph-name="emacron" unicode="&#x113;" horiz-adv-x="1105" 
d="M287 1315h559v-78h-559v78zM582 1047q236 0 343.5 -151.5t86.5 -416.5h-807q4 -206 105.5 -308.5t271.5 -102.5q254 0 348 225l82 -25q-41 -132 -155.5 -211.5t-278.5 -79.5q-231 0 -355.5 135.5t-124.5 383.5q0 258 132.5 404.5t351.5 146.5zM580 958q-161 0 -261 -99.5
t-112 -303.5h711q-1 73 -11 130.5t-33.5 110t-60.5 87t-96 55t-137 20.5z" />
    <glyph glyph-name="Ebreve" unicode="&#x114;" horiz-adv-x="1241" 
d="M680 1536q-132 0 -204.5 92t-72.5 287h78q0 -297 199 -297q99 0 149 71t50 226h75q0 -195 -72 -287t-202 -92zM332 688v-592h811v-96h-922v1413h893v-92h-782v-541h696l-12 -92h-684z" />
    <glyph glyph-name="ebreve" unicode="&#x115;" horiz-adv-x="1097" 
d="M547 1147q-132 0 -204.5 92t-72.5 287h78q0 -297 199 -297q99 0 148.5 71t49.5 226h76q0 -195 -72 -287t-202 -92zM582 1047q236 0 343.5 -151.5t86.5 -416.5h-807q4 -206 105.5 -308.5t271.5 -102.5q254 0 348 225l82 -25q-41 -132 -155.5 -211.5t-278.5 -79.5
q-231 0 -355.5 135.5t-124.5 383.5q0 258 132.5 404.5t351.5 146.5zM580 958q-161 0 -261 -99.5t-112 -303.5h711q-1 73 -11 130.5t-33.5 110t-60.5 87t-96 55t-137 20.5z" />
    <glyph glyph-name="Edotaccent" unicode="&#x116;" horiz-adv-x="1241" 
d="M680 1626q-38 0 -58 22t-20 58q0 33 20 54.5t58 21.5q37 0 56.5 -21.5t19.5 -54.5q0 -35 -19.5 -57.5t-56.5 -22.5zM332 688v-592h811v-96h-922v1413h893v-92h-782v-541h696l-12 -92h-684z" />
    <glyph glyph-name="edotaccent" unicode="&#x117;" horiz-adv-x="1097" 
d="M547 1237q-38 0 -58 22t-20 58q0 33 20 54.5t58 21.5q37 0 56.5 -21.5t19.5 -54.5q0 -35 -19.5 -57.5t-56.5 -22.5zM582 1047q236 0 343.5 -151.5t86.5 -416.5h-807q4 -206 105.5 -308.5t271.5 -102.5q254 0 348 225l82 -25q-41 -132 -155.5 -211.5t-278.5 -79.5
q-231 0 -355.5 135.5t-124.5 383.5q0 258 132.5 404.5t351.5 146.5zM580 958q-161 0 -261 -99.5t-112 -303.5h711q-1 73 -11 130.5t-33.5 110t-60.5 87t-96 55t-137 20.5z" />
    <glyph glyph-name="Eogonek" unicode="&#x118;" horiz-adv-x="1241" 
d="M977 -186q0 -58 41 -96.5t96 -50t107 -1.5v-69q-84 -17 -159 2t-121 70.5t-46 123.5q0 70 43.5 123t105.5 84h-823v1413h893v-92h-782v-541h696l-12 -92h-684v-592h811v-96h-19q-52 -20 -99.5 -69t-47.5 -117z" />
    <glyph glyph-name="eogonek" unicode="&#x119;" horiz-adv-x="1097" 
d="M582 1047q236 0 343.5 -151.5t86.5 -416.5h-807q4 -206 105.5 -308.5t271.5 -102.5q254 0 348 225l82 -25q-31 -99 -105 -170.5t-182 -101.5q-52 -26 -91.5 -71t-39.5 -107q0 -58 41 -96.5t96 -50t107 -1.5v-69q-84 -17 -159 2t-121 70.5t-46 123.5q0 110 106 183
q-21 -3 -40 -3q-231 0 -355.5 135.5t-124.5 383.5q0 258 132.5 404.5t351.5 146.5zM580 958q-161 0 -261 -99.5t-112 -303.5h711q-1 73 -11 130.5t-33.5 110t-60.5 87t-96 55t-137 20.5z" />
    <glyph glyph-name="Ecaron" unicode="&#x11a;" horiz-adv-x="1241" 
d="M621 1548l-213 357h102l166 -301l166 301h102l-213 -357h-110zM332 688v-592h811v-96h-922v1413h893v-92h-782v-541h696l-12 -92h-684z" />
    <glyph glyph-name="ecaron" unicode="&#x11b;" horiz-adv-x="1105" 
d="M494 1159l-213 357h102l166 -302l166 302h102l-213 -357h-110zM582 1047q236 0 343.5 -151.5t86.5 -416.5h-807q4 -206 105.5 -308.5t271.5 -102.5q254 0 348 225l82 -25q-41 -132 -155.5 -211.5t-278.5 -79.5q-231 0 -355.5 135.5t-124.5 383.5q0 258 132.5 404.5
t351.5 146.5zM580 958q-161 0 -261 -99.5t-112 -303.5h711q-1 73 -11 130.5t-33.5 110t-60.5 87t-96 55t-137 20.5z" />
    <glyph glyph-name="Gcircumflex" unicode="&#x11c;" horiz-adv-x="1527" 
d="M932 1548l-164 299l-166 -299h-104l213 357h112l211 -357h-102zM764 641v88h600l-4 -729h-74l-18 641h-37q-4 -96 -22 -185.5t-58.5 -178.5t-98.5 -154t-148 -105.5t-202 -40.5q-141 0 -249.5 50.5t-177 144t-103.5 221t-35 285.5q0 224 74 393.5t225 267t363 97.5
q236 0 376 -116t162 -310l-92 -19q-26 161 -139 256.5t-305 95.5q-264 0 -406.5 -177.5t-142.5 -485.5q0 -293 123 -449.5t348 -156.5q95 0 172.5 37t126.5 95.5t84 135.5t50.5 151t19.5 148h-412z" />
    <glyph glyph-name="gcircumflex" unicode="&#x11d;" horiz-adv-x="1140" 
d="M729 1159l-164 299l-166 -299h-104l213 357h113l210 -357h-102zM594 147q237 0 343.5 -68t106.5 -200q0 -145 -122.5 -228t-380.5 -83q-222 0 -337.5 68t-115.5 192q0 95 80 163.5t242 82.5v39q-122 0 -190 29t-68 87q0 114 258 136v36q-119 0 -194 69.5t-75 221.5
q0 73 25.5 136t75 112.5t130.5 78t185 28.5q154 0 248 -48q32 94 100 159t168 65l12 -121h-51q-128 0 -196 -121q135 -91 135 -289q0 -170 -111 -262t-305 -92q-152 0 -215 -20t-63 -72q0 -99 315 -99zM242 690q0 -135 78 -197.5t237 -62.5q151 0 233 65t82 195
q0 135 -81.5 204t-233.5 69q-141 0 -228 -70.5t-87 -202.5zM545 -344q197 0 298 55.5t101 161.5q0 43 -16.5 75.5t-56 58t-112 39t-177.5 13.5q-201 0 -301.5 -57t-100.5 -154q0 -90 88.5 -141t276.5 -51z" />
    <glyph glyph-name="Gbreve" unicode="&#x11e;" horiz-adv-x="1527" 
d="M766 1536q-132 0 -204.5 92t-72.5 287h78q0 -297 199 -297q99 0 149 71t50 226h75q0 -195 -72 -287t-202 -92zM764 641v88h600l-4 -729h-74l-18 641h-37q-4 -96 -22 -185.5t-58.5 -178.5t-98.5 -154t-148 -105.5t-202 -40.5q-141 0 -249.5 50.5t-177 144t-103.5 221
t-35 285.5q0 224 74 393.5t225 267t363 97.5q236 0 376 -116t162 -310l-92 -19q-26 161 -139 256.5t-305 95.5q-264 0 -406.5 -177.5t-142.5 -485.5q0 -293 123 -449.5t348 -156.5q95 0 172.5 37t126.5 95.5t84 135.5t50.5 151t19.5 148h-412z" />
    <glyph glyph-name="gbreve" unicode="&#x11f;" horiz-adv-x="1140" 
d="M563 1147q-276 0 -276 379h78q0 -154 50 -225.5t148 -71.5q99 0 149 71t50 226h76q0 -195 -72.5 -287t-202.5 -92zM594 147q237 0 343.5 -68t106.5 -200q0 -145 -122.5 -228t-380.5 -83q-222 0 -337.5 68t-115.5 192q0 95 80 163.5t242 82.5v39q-122 0 -190 29t-68 87
q0 114 258 136v36q-119 0 -194 69.5t-75 221.5q0 73 25.5 136t75 112.5t130.5 78t185 28.5q154 0 248 -48q32 94 100 159t168 65l12 -121h-51q-128 0 -196 -121q135 -91 135 -289q0 -170 -111 -262t-305 -92q-152 0 -215 -20t-63 -72q0 -99 315 -99zM242 690
q0 -135 78 -197.5t237 -62.5q151 0 233 65t82 195q0 135 -81.5 204t-233.5 69q-141 0 -228 -70.5t-87 -202.5zM545 -344q197 0 298 55.5t101 161.5q0 43 -16.5 75.5t-56 58t-112 39t-177.5 13.5q-201 0 -301.5 -57t-100.5 -154q0 -90 88.5 -141t276.5 -51z" />
    <glyph glyph-name="Gdotaccent" unicode="&#x120;" horiz-adv-x="1527" 
d="M766 1626q-38 0 -58 22t-20 58q0 33 20 54.5t58 21.5q37 0 56.5 -21.5t19.5 -54.5q0 -35 -19.5 -57.5t-56.5 -22.5zM764 641v88h600l-4 -729h-74l-18 641h-37q-4 -96 -22 -185.5t-58.5 -178.5t-98.5 -154t-148 -105.5t-202 -40.5q-141 0 -249.5 50.5t-177 144t-103.5 221
t-35 285.5q0 224 74 393.5t225 267t363 97.5q236 0 376 -116t162 -310l-92 -19q-26 161 -139 256.5t-305 95.5q-264 0 -406.5 -177.5t-142.5 -485.5q0 -293 123 -449.5t348 -156.5q95 0 172.5 37t126.5 95.5t84 135.5t50.5 151t19.5 148h-412z" />
    <glyph glyph-name="gdotaccent" unicode="&#x121;" horiz-adv-x="1140" 
d="M563 1237q-38 0 -58 22t-20 58q0 33 20 54.5t58 21.5q37 0 56.5 -21.5t19.5 -54.5q0 -35 -19.5 -57.5t-56.5 -22.5zM594 147q237 0 343.5 -68t106.5 -200q0 -145 -122.5 -228t-380.5 -83q-222 0 -337.5 68t-115.5 192q0 95 80 163.5t242 82.5v39q-122 0 -190 29t-68 87
q0 114 258 136v36q-119 0 -194 69.5t-75 221.5q0 73 25.5 136t75 112.5t130.5 78t185 28.5q154 0 248 -48q32 94 100 159t168 65l12 -121h-51q-128 0 -196 -121q135 -91 135 -289q0 -170 -111 -262t-305 -92q-152 0 -215 -20t-63 -72q0 -99 315 -99zM242 690
q0 -135 78 -197.5t237 -62.5q151 0 233 65t82 195q0 135 -81.5 204t-233.5 69q-141 0 -228 -70.5t-87 -202.5zM545 -344q197 0 298 55.5t101 161.5q0 43 -16.5 75.5t-56 58t-112 39t-177.5 13.5q-201 0 -301.5 -57t-100.5 -154q0 -90 88.5 -141t276.5 -51z" />
    <glyph glyph-name="uni0122" unicode="&#x122;" horiz-adv-x="1527" 
d="M764 641v88h600l-4 -729h-74l-18 641h-37q-4 -96 -22 -185.5t-58.5 -178.5t-98.5 -154t-148 -105.5t-202 -40.5q-141 0 -249.5 50.5t-177 144t-103.5 221t-35 285.5q0 224 74 393.5t225 267t363 97.5q236 0 376 -116t162 -310l-92 -19q-26 161 -139 256.5t-305 95.5
q-264 0 -406.5 -177.5t-142.5 -485.5q0 -293 123 -449.5t348 -156.5q95 0 172.5 37t126.5 95.5t84 135.5t50.5 151t19.5 148h-412zM733 -74q86 0 86 -92q0 -88 -49 -173t-127 -116l-37 107q56 14 111 56.5t69 96.5q-24 -24 -61 -24q-38 0 -58 20t-20 52t22.5 52.5t63.5 20.5
z" />
    <glyph glyph-name="uni0123" unicode="&#x123;" horiz-adv-x="1140" 
d="M561 1157q-44 0 -68 24t-24 64q0 62 48 129t104 99l51 -72q-39 -13 -95 -56.5t-67 -80.5q24 12 55 12q36 0 56 -16t20 -41q0 -27 -21 -44.5t-59 -17.5zM594 147q237 0 343.5 -68t106.5 -200q0 -145 -122.5 -228t-380.5 -83q-222 0 -337.5 68t-115.5 192q0 95 80 163.5
t242 82.5v39q-122 0 -190 29t-68 87q0 114 258 136v36q-119 0 -194 69.5t-75 221.5q0 73 25.5 136t75 112.5t130.5 78t185 28.5q154 0 248 -48q32 94 100 159t168 65l12 -121h-51q-128 0 -196 -121q135 -91 135 -289q0 -170 -111 -262t-305 -92q-152 0 -215 -20t-63 -72
q0 -99 315 -99zM242 690q0 -135 78 -197.5t237 -62.5q151 0 233 65t82 195q0 135 -81.5 204t-233.5 69q-141 0 -228 -70.5t-87 -202.5zM545 -344q197 0 298 55.5t101 161.5q0 43 -16.5 75.5t-56 58t-112 39t-177.5 13.5q-201 0 -301.5 -57t-100.5 -154q0 -90 88.5 -141
t276.5 -51z" />
    <glyph glyph-name="Hcircumflex" unicode="&#x124;" horiz-adv-x="1490" 
d="M911 1548l-163 299l-166 -299h-105l213 357h113l211 -357h-103zM1161 770v643h109v-1413h-109v678h-829v-678h-111v1413h111v-643h829z" />
    <glyph glyph-name="hcircumflex" unicode="&#x125;" horiz-adv-x="1200" 
d="M514 1579h-102l-164 299l-166 -299h-105l213 356h113zM700 1047q155 0 240.5 -91.5t85.5 -248.5v-707h-102v674q0 127 -66.5 201.5t-193.5 74.5q-70 0 -131 -26.5t-104 -71.5t-73.5 -105t-45.5 -127t-15 -137v-483h-105v1444h105v-301q0 -207 -14 -385h38
q42 126 142 207.5t239 81.5z" />
    <glyph glyph-name="Hbar" unicode="&#x126;" horiz-adv-x="1490" 
d="M1270 1106h100v-82h-100v-1024h-109v678h-829v-678h-111v1024h-100v82h100v307h111v-307h829v307h109v-307zM332 770h829v254h-829v-254z" />
    <glyph glyph-name="hbar" unicode="&#x127;" horiz-adv-x="1200" 
d="M700 1047q155 0 240.5 -91.5t85.5 -248.5v-707h-102v674q0 127 -66.5 201.5t-193.5 74.5q-70 0 -131 -26.5t-104 -71.5t-73.5 -105t-45.5 -127t-15 -137v-483h-105v1190h-116v80h116v174h105v-174h342v-80h-342v-47q0 -207 -14 -385h38q42 126 142 207.5t239 81.5z" />
    <glyph glyph-name="Itilde" unicode="&#x128;" horiz-adv-x="552" 
d="M57 1583l-63 10q-10 92 37 173t133 81q36 0 65.5 -18.5t49.5 -45t38.5 -53t40.5 -45t48 -18.5q88 0 79 180l62 -14q8 -60 -2.5 -114.5t-46 -95t-92.5 -40.5q-38 0 -68.5 18.5t-49.5 44.5t-36.5 52t-40 44.5t-49.5 18.5q-40 0 -65.5 -32t-33 -69.5t-6.5 -76.5zM332 0h-111
v1413h111v-1413z" />
    <glyph glyph-name="itilde" unicode="&#x129;" horiz-adv-x="485" 
d="M25 1194l-64 10q-10 92 37 173t133 81q36 0 65.5 -18.5t49.5 -45t38.5 -53t40.5 -45t48 -18.5q89 0 80 180l61 -14q8 -60 -2.5 -114.5t-46 -95t-92.5 -40.5q-38 0 -68.5 18.5t-49.5 44.5t-36.5 52t-40 44.5t-49.5 18.5q-40 0 -65 -32t-32.5 -69.5t-6.5 -76.5zM295 0h-105
v1024h105v-1024z" />
    <glyph glyph-name="Imacron" unicode="&#x12a;" horiz-adv-x="552" 
d="M10 1626v78h559v-78h-559zM332 0h-111v1413h111v-1413z" />
    <glyph glyph-name="imacron" unicode="&#x12b;" horiz-adv-x="485" 
d="M-23 1237v78h560v-78h-560zM295 0h-105v1024h105v-1024z" />
    <glyph glyph-name="Ibreve" unicode="&#x12c;" horiz-adv-x="552" 
d="M0 1915h78q0 -154 50 -225.5t148 -71.5q99 0 149 71t50 226h76q0 -195 -72.5 -287t-202.5 -92q-276 0 -276 379zM332 0h-111v1413h111v-1413z" />
    <glyph glyph-name="Iogonek" unicode="&#x12e;" horiz-adv-x="552" 
d="M178 -188q0 -58 41 -96.5t96 -50t107 -1.5v-70q-84 -17 -159 2.5t-121 71t-46 123.5t45.5 126t108.5 83h-29v1413h111v-1413q-22 -8 -46.5 -23t-50 -37.5t-41.5 -56.5t-16 -71z" />
    <glyph glyph-name="iogonek" unicode="&#x12f;" horiz-adv-x="485" 
d="M244 1237q-38 0 -58 22t-20 58q0 33 20 54.5t58 21.5q36 0 55.5 -21.5t19.5 -54.5q0 -36 -19 -58t-56 -22zM139 -188q0 -58 41 -96.5t96 -50t107 -1.5v-70q-84 -17 -159 2.5t-121 71t-46 123.5t45.5 126t108.5 83h-21v1024h105v-1024h-2q-22 -8 -46.5 -23t-50 -37.5
t-41.5 -56.5t-16 -71z" />
    <glyph glyph-name="Idotaccent" unicode="&#x130;" horiz-adv-x="552" 
d="M276 1626q-38 0 -57.5 22t-19.5 58q0 33 19.5 54.5t57.5 21.5q37 0 56.5 -21.5t19.5 -54.5q0 -35 -19.5 -57.5t-56.5 -22.5zM332 0h-111v1413h111v-1413z" />
    <glyph glyph-name="dotlessi" unicode="&#x131;" horiz-adv-x="485" 
d="M295 0h-105v1024h105v-1024z" />
    <glyph glyph-name="IJ" unicode="&#x132;" 
d="M1047 1413h108v-1003q0 -205 -115.5 -319t-332.5 -114q-204 0 -337 117t-159 316l106 18q26 -167 130.5 -260.5t259.5 -93.5q157 0 248.5 85t91.5 253v1001zM211 1413h111v-758h-111v758z" />
    <glyph glyph-name="ij" unicode="&#x133;" horiz-adv-x="897" 
d="M217 1466q38 0 58 -21t20 -54q0 -36 -20 -58t-58 -22t-58 22t-20 58q0 33 20 54t58 21zM680 1466q38 0 58 -21t20 -54q0 -36 -20 -58t-58 -22t-58 22t-20 58q0 33 20 54t58 21zM268 0h-102v1024h102v-1024zM629 1024h102v-1006q0 -199 -59 -303.5t-183 -148.5l-30 82
q33 14 61 38.5t53.5 64t40.5 102t15 141.5v1030z" />
    <glyph glyph-name="Jcircumflex" unicode="&#x134;" horiz-adv-x="1226" 
d="M819 1548l-164 299l-166 -299h-104l213 357h113l211 -357h-103zM272 1413h734v-1016q0 -202 -115 -311t-330 -109q-203 0 -336 109.5t-164 296.5l95 29q30 -162 137.5 -250t267.5 -88q156 0 246 79t90 246v922h-625v92z" />
    <glyph glyph-name="jcircumflex" unicode="&#x135;" horiz-adv-x="462" 
d="M307 1516l211 -357h-102l-164 299l-166 -299h-104l213 357h112zM195 1024h102v-1006q0 -199 -59 -303.5t-183 -148.5l-30 82q33 14 61 38.5t53.5 64t40.5 102t15 141.5v1030z" />
    <glyph glyph-name="uni0136" unicode="&#x136;" horiz-adv-x="1302" 
d="M1219 1413l-517 -606l586 -807h-141l-512 727l-303 -356v-371h-111v1413h111v-557q0 -198 -23 -373h41q83 150 232 328l505 602h132zM651 -74q86 0 86 -92q0 -88 -49 -173t-127 -116l-37 107q56 14 111.5 56.5t69.5 96.5q-24 -24 -62 -24t-58 20t-20 52t22.5 52.5
t63.5 20.5z" />
    <glyph glyph-name="uni0137" unicode="&#x137;" horiz-adv-x="1077" 
d="M1004 1024l-457 -430l485 -594h-139l-420 526l-178 -170v-356h-105v1444h105v-643q0 -196 -16 -346h40q73 104 199 227l352 342h134zM539 -74q86 0 86 -92q0 -88 -49 -173t-127 -116l-37 107q56 14 111 56.5t69 96.5q-24 -24 -62 -24t-57.5 20t-19.5 52t22.5 52.5
t63.5 20.5z" />
    <glyph glyph-name="kgreenlandic" unicode="&#x138;" horiz-adv-x="1077" 
d="M1032 0h-139l-420 526l-178 -170v-356h-105v1024h105v-223q0 -196 -16 -346h40q73 104 199 227l352 342h134l-457 -430z" />
    <glyph glyph-name="Lacute" unicode="&#x139;" horiz-adv-x="1128" 
d="M389 1905h133l-233 -357h-76zM332 1413v-1317h778v-96h-889v1413h111z" />
    <glyph glyph-name="lacute" unicode="&#x13a;" horiz-adv-x="595" 
d="M352 1935h133l-233 -356h-76zM547 104l31 -77q-24 -17 -75.5 -33.5t-111.5 -16.5q-105 0 -153 54.5t-48 161.5v1251h105v-1239q0 -135 125 -135q66 0 127 34z" />
    <glyph glyph-name="uni013B" unicode="&#x13b;" horiz-adv-x="1128" 
d="M332 1413v-1317h778v-96h-889v1413h111zM543 -74q86 0 86 -92q0 -88 -49 -173t-127 -116l-37 107q56 14 111 56.5t69 96.5q-24 -24 -61 -24q-38 0 -58 20t-20 52t22.5 52.5t63.5 20.5z" />
    <glyph glyph-name="uni013C" unicode="&#x13c;" horiz-adv-x="595" 
d="M391 -23q-105 0 -153 54.5t-48 161.5v1251h105v-1239q0 -135 125 -135q66 0 127 34l31 -77q-24 -17 -75.5 -33.5t-111.5 -16.5zM322 -74q86 0 86 -92q0 -88 -49 -173t-128 -116l-36 107q56 14 111 56.5t69 96.5q-24 -24 -62 -24t-57.5 20t-19.5 52t22.5 52.5t63.5 20.5z
" />
    <glyph glyph-name="Lcaron" unicode="&#x13d;" horiz-adv-x="1128" 
d="M823 1034l-59 105q50 21 97 61t63 90q-20 -20 -56 -20q-38 0 -56.5 23t-18.5 59q0 35 22 59.5t64 24.5q40 0 63 -28t23 -83q0 -87 -41 -167.5t-101 -123.5zM332 1413v-1317h778v-96h-889v1413h111z" />
    <glyph glyph-name="lcaron" unicode="&#x13e;" horiz-adv-x="595" 
d="M473 1137l-59 104q50 21 96.5 60.5t62.5 89.5q-29 -19 -53 -19q-38 0 -58 23t-20 57q0 36 22.5 60t63.5 24q40 0 63 -27.5t23 -81.5q0 -87 -40.5 -167t-100.5 -123zM420 70q66 0 127 34l31 -77q-24 -17 -75.5 -33.5t-111.5 -16.5q-105 0 -153 54.5t-48 161.5v1251h105
v-1239q0 -135 125 -135z" />
    <glyph glyph-name="Ldot" unicode="&#x13f;" horiz-adv-x="1128" 
d="M332 1413v-1317h778v-96h-889v1413h111zM827 457q-37 0 -58 22.5t-21 57.5t21 57t58 22t59.5 -22t22.5 -57t-22.5 -57.5t-59.5 -22.5z" />
    <glyph glyph-name="ldot" unicode="&#x140;" horiz-adv-x="673" 
d="M420 70q66 0 127 34l31 -77q-24 -17 -75.5 -33.5t-111.5 -16.5q-105 0 -153 54.5t-48 161.5v1251h105v-1239q0 -135 125 -135zM598 616q38 0 60 -22t22 -57t-22.5 -57.5t-59.5 -22.5q-36 0 -58 23t-22 57t22 56.5t58 22.5z" />
    <glyph glyph-name="Lslash" unicode="&#x141;" horiz-adv-x="1128" 
d="M332 647v-551h778v-96h-889v590l-123 -62l-43 82l166 84v719h111v-663l375 190l41 -82z" />
    <glyph glyph-name="lslash" unicode="&#x142;" horiz-adv-x="595" 
d="M547 104l31 -77q-24 -17 -75.5 -33.5t-111.5 -16.5q-105 0 -153 54.5t-48 161.5v497l-170 -78v86l170 78v668h105v-621l182 82v-86l-182 -82v-532q0 -135 125 -135q66 0 127 34z" />
    <glyph glyph-name="Nacute" unicode="&#x143;" horiz-adv-x="1513" 
d="M866 1905h133l-233 -357h-76zM1186 799v614h106v-1413h-166l-788 1321h-47q37 -264 37 -670v-651h-107v1413h180l783 -1304h43q-41 276 -41 690z" />
    <glyph glyph-name="nacute" unicode="&#x144;" horiz-adv-x="1200" 
d="M760 1516h133l-234 -357h-75zM702 1047q151 0 237.5 -91t86.5 -247v-709h-102v676q0 129 -67.5 201.5t-194.5 72.5q-114 0 -199 -65.5t-126.5 -171.5t-41.5 -236v-477h-105v1024h78l19 -266h37q44 129 141 209t237 80z" />
    <glyph glyph-name="uni0145" unicode="&#x145;" horiz-adv-x="1513" 
d="M1186 799v614h106v-1413h-166l-788 1321h-47q37 -264 37 -670v-651h-107v1413h180l783 -1304h43q-41 276 -41 690zM745 -74q86 0 86 -92q0 -88 -49 -173t-127 -116l-37 107q56 14 111.5 56.5t69.5 96.5q-24 -24 -62 -24t-58 20t-20 52t22.5 52.5t63.5 20.5z" />
    <glyph glyph-name="uni0146" unicode="&#x146;" horiz-adv-x="1200" 
d="M702 1047q151 0 237.5 -91t86.5 -247v-709h-102v676q0 129 -67.5 201.5t-194.5 72.5q-114 0 -199 -65.5t-126.5 -171.5t-41.5 -236v-477h-105v1024h78l19 -266h37q44 129 141 209t237 80zM600 -74q86 0 86 -92q0 -88 -49 -173t-127 -116l-37 107q56 14 111 56.5t69 96.5
q-24 -24 -61 -24q-38 0 -58 20t-20 52t22.5 52.5t63.5 20.5z" />
    <glyph glyph-name="Ncaron" unicode="&#x147;" horiz-adv-x="1513" 
d="M694 1548l-213 357h103l166 -301l165 301h103l-213 -357h-111zM1186 799v614h106v-1413h-166l-788 1321h-47q37 -264 37 -670v-651h-107v1413h180l783 -1304h43q-41 276 -41 690z" />
    <glyph glyph-name="ncaron" unicode="&#x148;" horiz-adv-x="1200" 
d="M588 1159l-213 357h102l166 -302l166 302h102l-213 -357h-110zM702 1047q151 0 237.5 -91t86.5 -247v-709h-102v676q0 129 -67.5 201.5t-194.5 72.5q-114 0 -199 -65.5t-126.5 -171.5t-41.5 -236v-477h-105v1024h78l19 -266h37q44 129 141 209t237 80z" />
    <glyph glyph-name="napostrophe" unicode="&#x149;" horiz-adv-x="1464" 
d="M135 1098q43 0 69.5 -30t26.5 -89q0 -117 -41 -255.5t-84 -186.5l-79 114q52 55 95 138t64 172q-29 -25 -61 -25q-36 0 -57 21.5t-21 54.5q0 36 24 61t64 25zM967 1047q151 0 237 -91t86 -247v-709h-102v676q0 129 -68 201.5t-194 72.5q-115 0 -200.5 -65.5t-127 -171.5
t-41.5 -236v-477h-102v1024h77l19 -266h37q42 128 140.5 208.5t238.5 80.5z" />
    <glyph glyph-name="Eng" unicode="&#x14a;" horiz-adv-x="1513" 
d="M1186 799v614h106v-1413q-3 -192 -62.5 -293.5t-180.5 -144.5l-31 80q34 14 62 38.5t54 64t41 102t15 141.5v12h-64l-788 1321h-47q37 -264 37 -670v-651h-107v1413h180l783 -1304h6v452q-4 152 -4 238z" />
    <glyph glyph-name="eng" unicode="&#x14b;" horiz-adv-x="1200" 
d="M702 1047q151 0 237.5 -91t86.5 -247v-691q0 -198 -59.5 -303t-182.5 -149l-30 82q33 14 61 38.5t53.5 64t40.5 102t15 141.5v682q0 129 -67.5 201.5t-194.5 72.5q-114 0 -199 -65.5t-126.5 -171.5t-41.5 -236v-477h-105v1024h78l19 -266h37q44 129 141 209t237 80z" />
    <glyph glyph-name="Omacron" unicode="&#x14c;" horiz-adv-x="1587" 
d="M528 1626v78h559v-78h-559zM795 -23q-329 0 -493.5 187.5t-164.5 540.5q0 337 171.5 534t486.5 197t486 -197t171 -534q0 -353 -164 -540.5t-493 -187.5zM795 74q268 0 405 159t137 467q0 314 -138.5 477.5t-403.5 163.5q-266 0 -404.5 -164t-138.5 -477
q0 -308 137.5 -467t405.5 -159z" />
    <glyph glyph-name="omacron" unicode="&#x14d;" horiz-adv-x="1165" 
d="M317 1237v78h560v-78h-560zM575 -23q-228 0 -353.5 140.5t-123.5 392.5q3 250 129 393.5t348 143.5q225 0 353 -144t125 -393q-2 -255 -126 -394t-352 -139zM575 70q185 0 278 114t93 328q0 213 -94 329.5t-277 116.5q-180 0 -274 -118t-94 -328q0 -213 93 -327.5
t275 -114.5z" />
    <glyph glyph-name="Obreve" unicode="&#x14e;" horiz-adv-x="1587" 
d="M516 1915h78q0 -297 199 -297q99 0 148.5 71t49.5 226h76q0 -195 -72 -287t-202 -92q-132 0 -204.5 92t-72.5 287zM795 -23q-329 0 -493.5 187.5t-164.5 540.5q0 337 171.5 534t486.5 197t486 -197t171 -534q0 -353 -164 -540.5t-493 -187.5zM795 74q268 0 405 159
t137 467q0 314 -138.5 477.5t-403.5 163.5q-266 0 -404.5 -164t-138.5 -477q0 -308 137.5 -467t405.5 -159z" />
    <glyph glyph-name="obreve" unicode="&#x14f;" horiz-adv-x="1159" 
d="M299 1526h78q0 -154 50 -225.5t148 -71.5q99 0 149 71t50 226h76q0 -195 -72.5 -287t-202.5 -92q-276 0 -276 379zM575 -23q-228 0 -353.5 140.5t-123.5 392.5q3 250 129 393.5t348 143.5q225 0 353 -144t125 -393q-2 -255 -126 -394t-352 -139zM575 70q185 0 278 114
t93 328q0 213 -94 329.5t-277 116.5q-180 0 -274 -118t-94 -328q0 -213 93 -327.5t275 -114.5z" />
    <glyph glyph-name="Ohungarumlaut" unicode="&#x150;" horiz-adv-x="1587" 
d="M682 1548h-74l127 357h123zM893 1548h-74l127 357h125zM795 -23q-329 0 -493.5 187.5t-164.5 540.5q0 337 171.5 534t486.5 197t486 -197t171 -534q0 -353 -164 -540.5t-493 -187.5zM795 74q268 0 405 159t137 467q0 314 -138.5 477.5t-403.5 163.5q-266 0 -404.5 -164
t-138.5 -477q0 -308 137.5 -467t405.5 -159z" />
    <glyph glyph-name="ohungarumlaut" unicode="&#x151;" horiz-adv-x="1165" 
d="M471 1159h-74l127 357h123zM682 1159h-74l127 357h125zM575 -23q-228 0 -353.5 140.5t-123.5 392.5q3 250 129 393.5t348 143.5q225 0 353 -144t125 -393q-2 -255 -126 -394t-352 -139zM575 70q185 0 278 114t93 328q0 213 -94 329.5t-277 116.5q-180 0 -274 -118
t-94 -328q0 -213 93 -327.5t275 -114.5z" />
    <glyph glyph-name="OE" unicode="&#x152;" horiz-adv-x="2287" 
d="M1419 688v-594h770v-94h-880v348q-55 -185 -186.5 -278t-350.5 -93q-319 0 -477 187.5t-158 540.5q0 221 72 384.5t216.5 255t346.5 91.5q425 0 537 -379v356h852v-92h-742v-541h643v-92h-643zM782 74q265 0 396 154.5t131 471.5q0 641 -527 641q-261 0 -395.5 -163.5
t-134.5 -477.5q0 -309 133.5 -467.5t396.5 -158.5z" />
    <glyph glyph-name="oe" unicode="&#x153;" horiz-adv-x="1945" 
d="M1430 1047q236 0 343.5 -151.5t86.5 -416.5h-811q6 -206 108.5 -308.5t272.5 -102.5q254 0 348 225l82 -25q-41 -132 -156 -211.5t-279 -79.5q-161 0 -269.5 68.5t-158.5 198.5q-51 -130 -158 -198.5t-264 -68.5q-228 0 -353.5 140.5t-123.5 392.5q3 250 129 393.5
t348 143.5q157 0 265.5 -73t160.5 -208q56 135 167 208t262 73zM575 68q185 0 280 115t95 329q0 212 -95.5 329t-279.5 117q-180 0 -274 -118t-94 -328q0 -214 93 -329t275 -115zM1427 958q-161 0 -262.5 -100.5t-113.5 -302.5h714q-1 73 -11 130.5t-33.5 110t-60.5 87
t-96 55t-137 20.5z" />
    <glyph glyph-name="Racute" unicode="&#x154;" horiz-adv-x="1394" 
d="M795 1905h133l-234 -357h-76zM1174 459l118 -459h-116l-115 459q-28 94 -93.5 134t-193.5 40h-442v-633h-111v1413h567q204 0 293.5 -92.5t89.5 -267.5q0 -138 -69 -230t-201 -121v-38q123 0 186 -54.5t87 -150.5zM332 1323v-600h440q124 0 206.5 88.5t82.5 226.5
q0 143 -74.5 214t-247.5 71h-407z" />
    <glyph glyph-name="racute" unicode="&#x155;" horiz-adv-x="802" 
d="M530 1516h134l-234 -357h-76zM627 1047q107 0 176 -62l-29 -102q-23 28 -66.5 48.5t-93.5 20.5q-106 0 -178.5 -82.5t-106.5 -225t-34 -335.5v-309h-105v1024h78l17 -313h32q19 142 98 239t212 97z" />
    <glyph glyph-name="uni0156" unicode="&#x156;" horiz-adv-x="1394" 
d="M1174 459l118 -459h-116l-115 459q-28 94 -93.5 134t-193.5 40h-442v-633h-111v1413h567q204 0 293.5 -92.5t89.5 -267.5q0 -138 -69 -230t-201 -121v-38q123 0 186 -54.5t87 -150.5zM332 1323v-600h440q124 0 206.5 88.5t82.5 226.5q0 143 -74.5 214t-247.5 71h-407z
M684 -74q86 0 86 -92q0 -88 -49 -173t-127 -116l-37 107q56 14 111 56.5t69 96.5q-24 -24 -61 -24q-38 0 -58 20t-20 52t22.5 52.5t63.5 20.5z" />
    <glyph glyph-name="uni0157" unicode="&#x157;" horiz-adv-x="802" 
d="M627 1047q107 0 176 -62l-29 -102q-23 28 -66.5 48.5t-93.5 20.5q-106 0 -178.5 -82.5t-106.5 -225t-34 -335.5v-309h-105v1024h78l17 -313h32q19 142 98 239t212 97zM248 -74q86 0 86 -92q0 -88 -49 -173t-127 -116l-37 107q56 14 111 56.5t69 96.5q-24 -24 -61 -24
q-38 0 -58 20t-20 52t22.5 52.5t63.5 20.5z" />
    <glyph glyph-name="Rcaron" unicode="&#x158;" horiz-adv-x="1394" 
d="M623 1548l-211 357h102l166 -299l164 299h104l-213 -357h-112zM1174 459l118 -459h-116l-115 459q-28 94 -93.5 134t-193.5 40h-442v-633h-111v1413h567q204 0 293.5 -92.5t89.5 -267.5q0 -138 -69 -230t-201 -121v-38q123 0 186 -54.5t87 -150.5zM332 1323v-600h440
q124 0 206.5 88.5t82.5 226.5q0 143 -74.5 214t-247.5 71h-407z" />
    <glyph glyph-name="rcaron" unicode="&#x159;" horiz-adv-x="802" 
d="M358 1159l-213 357h105l166 -299l164 299h102l-211 -357h-113zM627 1047q107 0 176 -62l-29 -102q-23 28 -66.5 48.5t-93.5 20.5q-106 0 -178.5 -82.5t-106.5 -225t-34 -335.5v-309h-105v1024h78l17 -313h32q19 142 98 239t212 97z" />
    <glyph glyph-name="Sacute" unicode="&#x15a;" horiz-adv-x="1308" 
d="M668 1548h-76l176 357h133zM686 -23q-218 0 -364 115t-193 332l92 41q43 -188 166 -289.5t291 -101.5q180 0 285.5 88t105.5 237q0 66 -22.5 115.5t-57.5 80t-92.5 52.5t-113.5 33t-134 20q-61 7 -105.5 14t-101 21t-96.5 31t-81 44.5t-66.5 62.5t-41.5 84t-16 108
q0 162 129.5 265.5t356.5 103.5q244 0 370 -100.5t148 -307.5l-94 -27q-7 60 -22.5 108t-47 93t-77 75t-116 48t-161.5 18q-168 0 -270.5 -71.5t-102.5 -194.5q0 -46 14 -83t34.5 -63t57.5 -47t69 -33t84.5 -23t88 -16.5t94.5 -12.5q86 -10 149 -23t130 -40.5t109 -68
t69 -106.5t27 -153q0 -198 -137.5 -313.5t-356.5 -115.5z" />
    <glyph glyph-name="sacute" unicode="&#x15b;" horiz-adv-x="1054" 
d="M541 1159h-76l176 357h133zM532 -23q-174 0 -288 74.5t-138 210.5l84 27q22 -103 109 -161t233 -58q149 0 232.5 61.5t83.5 173.5q0 46 -15 78.5t-41 54t-73.5 35.5t-101 21.5t-134.5 13.5q-193 12 -281.5 69t-88.5 181q0 130 109 209.5t288 79.5q174 0 286 -71.5
t130 -213.5l-80 -27q-48 223 -336 223q-137 0 -218 -53.5t-81 -144.5q-1 -47 22.5 -79t72.5 -50t101.5 -26t131.5 -13q111 -8 185 -25t126 -49.5t75 -84t23 -126.5q0 -158 -117 -244t-299 -86z" />
    <glyph glyph-name="Scircumflex" unicode="&#x15c;" horiz-adv-x="1308" 
d="M821 1548l-164 299l-165 -299h-105l213 357h113l211 -357h-103zM696 797q86 -10 149 -23t130 -40.5t109 -68t69 -106.5t27 -153q0 -198 -137.5 -313.5t-356.5 -115.5q-218 0 -364 115t-193 332l92 41q43 -188 166 -289.5t291 -101.5q180 0 285.5 88t105.5 237
q0 66 -22.5 115.5t-57.5 80t-92.5 52.5t-113.5 33t-134 20q-61 7 -105.5 14t-101 21t-96.5 31t-81 44.5t-66.5 62.5t-41.5 84t-16 108q0 162 129.5 265.5t356.5 103.5q244 0 370 -100.5t148 -307.5l-94 -27q-7 60 -22.5 108t-47 93t-77 75t-116 48t-161.5 18
q-168 0 -270.5 -71.5t-102.5 -194.5q0 -46 14 -83t34.5 -63t57.5 -47t69 -33t84.5 -23t88 -16.5t94.5 -12.5z" />
    <glyph glyph-name="scircumflex" unicode="&#x15d;" horiz-adv-x="1054" 
d="M694 1159l-164 299l-165 -299h-105l213 357h113l211 -357h-103zM539 592q111 -8 185 -25t126 -49.5t75 -84t23 -126.5q0 -158 -117 -244t-299 -86q-174 0 -288 74.5t-138 210.5l84 27q22 -103 109 -161t233 -58q149 0 232.5 61.5t83.5 173.5q0 46 -15 78.5t-41 54
t-73.5 35.5t-101 21.5t-134.5 13.5q-193 12 -281.5 69t-88.5 181q0 130 109 209.5t288 79.5q174 0 286 -71.5t130 -213.5l-80 -27q-48 223 -336 223q-137 0 -218 -53.5t-81 -144.5q-1 -47 22.5 -79t72.5 -50t101.5 -26t131.5 -13z" />
    <glyph glyph-name="Scedilla" unicode="&#x15e;" horiz-adv-x="1308" 
d="M1180 406q0 -193 -132 -308.5t-343 -120.5l-13 -77q106 4 162.5 -41t56.5 -113q0 -79 -64.5 -129.5t-164.5 -50.5q-80 0 -141 30.5t-84 61.5l43 51q22 -27 68.5 -50.5t105.5 -23.5q78 0 116.5 32t38.5 81q0 54 -46.5 82t-127.5 16l-43 35l21 99q-198 14 -329 127.5
t-175 316.5l92 41q43 -188 166 -289.5t291 -101.5q180 0 285.5 88t105.5 237q0 66 -22.5 115.5t-57.5 80t-92.5 52.5t-113.5 33t-134 20q-61 7 -105.5 14t-101 21t-96.5 31t-81 44.5t-66.5 62.5t-41.5 84t-16 108q0 162 129.5 265.5t356.5 103.5q244 0 370 -100.5
t148 -307.5l-94 -27q-7 60 -22.5 108t-47 93t-77 75t-116 48t-161.5 18q-168 0 -270.5 -71.5t-102.5 -194.5q0 -46 14 -83t34.5 -63t57.5 -47t69 -33t84.5 -23t88 -16.5t94.5 -12.5q86 -10 149 -23t130 -40.5t109 -68t69 -106.5t27 -153z" />
    <glyph glyph-name="scedilla" unicode="&#x15f;" horiz-adv-x="1054" 
d="M948 307q0 -151 -107.5 -236.5t-277.5 -93.5l-12 -77q106 4 162.5 -41t56.5 -113q0 -79 -64.5 -129.5t-164.5 -50.5q-81 0 -142 30.5t-84 61.5l43 51q22 -27 68.5 -50.5t105.5 -23.5q78 0 117 32.5t39 80.5q0 54 -46.5 82t-127.5 16l-43 35l21 99q-159 8 -261 81
t-125 201l84 27q22 -103 109 -161t233 -58q149 0 232.5 61.5t83.5 173.5q0 46 -15 78.5t-41 54t-73.5 35.5t-101 21.5t-134.5 13.5q-193 12 -281.5 69t-88.5 181q0 130 109 209.5t288 79.5q174 0 286 -71.5t130 -213.5l-80 -27q-48 223 -336 223q-137 0 -218 -53.5
t-81 -144.5q-1 -47 22.5 -79t72.5 -50t101.5 -26t131.5 -13q111 -8 185 -25t126 -49.5t75 -84t23 -126.5z" />
    <glyph glyph-name="Scaron" unicode="&#x160;" horiz-adv-x="1308" 
d="M596 1548l-213 357h102l166 -301l166 301h103l-213 -357h-111zM696 797q86 -10 149 -23t130 -40.5t109 -68t69 -106.5t27 -153q0 -198 -137.5 -313.5t-356.5 -115.5q-218 0 -364 115t-193 332l92 41q43 -188 166 -289.5t291 -101.5q180 0 285.5 88t105.5 237
q0 66 -22.5 115.5t-57.5 80t-92.5 52.5t-113.5 33t-134 20q-61 7 -105.5 14t-101 21t-96.5 31t-81 44.5t-66.5 62.5t-41.5 84t-16 108q0 162 129.5 265.5t356.5 103.5q244 0 370 -100.5t148 -307.5l-94 -27q-7 60 -22.5 108t-47 93t-77 75t-116 48t-161.5 18
q-168 0 -270.5 -71.5t-102.5 -194.5q0 -46 14 -83t34.5 -63t57.5 -47t69 -33t84.5 -23t88 -16.5t94.5 -12.5z" />
    <glyph glyph-name="scaron" unicode="&#x161;" horiz-adv-x="1054" 
d="M469 1159l-213 357h102l166 -302l166 302h103l-213 -357h-111zM539 592q111 -8 185 -25t126 -49.5t75 -84t23 -126.5q0 -158 -117 -244t-299 -86q-174 0 -288 74.5t-138 210.5l84 27q22 -103 109 -161t233 -58q149 0 232.5 61.5t83.5 173.5q0 46 -15 78.5t-41 54
t-73.5 35.5t-101 21.5t-134.5 13.5q-193 12 -281.5 69t-88.5 181q0 130 109 209.5t288 79.5q174 0 286 -71.5t130 -213.5l-80 -27q-48 223 -336 223q-137 0 -218 -53.5t-81 -144.5q-1 -47 22.5 -79t72.5 -50t101.5 -26t131.5 -13z" />
    <glyph glyph-name="uni0162" unicode="&#x162;" horiz-adv-x="1185" 
d="M647 1321v-1321h-12l-14 -100q106 4 162.5 -41t56.5 -113q0 -79 -65 -129.5t-165 -50.5q-80 0 -141 30.5t-84 61.5l43 51q22 -27 68.5 -50.5t105.5 -23.5q78 0 117 32.5t39 80.5q0 54 -46.5 82t-127.5 16l-43 35l24 119h-26v1321h-535v92h1180v-92h-537z" />
    <glyph glyph-name="uni0163" unicode="&#x163;" horiz-adv-x="872" 
d="M526 -23h-2l-12 -77q106 4 162.5 -41t56.5 -113q0 -79 -64.5 -129.5t-164.5 -50.5q-81 0 -142 30.5t-84 61.5l43 51q22 -27 69 -50.5t106 -23.5q78 0 116.5 32t38.5 81q0 54 -46.5 82t-127.5 16l-43 35l21 103q-93 19 -145 81.5t-52 155.5v723h-190v80h198l41 299h55
v-299h410v-80h-410v-692q0 -182 185 -182q61 0 115.5 30.5t86 68t56.5 83.5l51 -59q-116 -216 -328 -216z" />
    <glyph glyph-name="Tcaron" unicode="&#x164;" horiz-adv-x="1185" 
d="M532 1548l-210 357h102l166 -299l164 299h104l-213 -357h-113zM1184 1413v-92h-537v-1321h-108v1321h-535v92h1180z" />
    <glyph glyph-name="tcaron" unicode="&#x165;" horiz-adv-x="868" 
d="M604 1137l-59 104q50 21 96.5 60.5t63.5 91.5q-21 -21 -56 -21q-38 0 -57 22.5t-19 57.5q0 36 22 60t64 24q40 0 63 -27.5t23 -81.5q0 -87 -40.5 -167t-100.5 -123zM803 252l51 -59q-116 -216 -328 -216q-125 0 -197.5 66.5t-72.5 177.5v723h-190v80h198l41 299h55v-299
h410v-80h-410v-692q0 -182 185 -182q61 0 115.5 30.5t86 68t56.5 83.5z" />
    <glyph glyph-name="Tbar" unicode="&#x166;" horiz-adv-x="1185" 
d="M1184 1413v-92h-537v-541h311v-92h-311v-688h-108v688h-310v92h310v541h-535v92h1180z" />
    <glyph glyph-name="tbar" unicode="&#x167;" horiz-adv-x="872" 
d="M803 252l51 -59q-116 -216 -328 -216q-125 0 -197.5 66.5t-72.5 177.5v354h-190v80h190v289h-190v80h198l41 299h55v-299h410v-80h-410v-289h316v-80h-316v-323q0 -182 185 -182q61 0 115.5 30.5t86 68t56.5 83.5z" />
    <glyph glyph-name="Utilde" unicode="&#x168;" horiz-adv-x="1501" 
d="M528 1583l-63 10q-10 92 37 173t133 81q36 0 65.5 -18.5t49.5 -45t38.5 -53t40.5 -45t48 -18.5q88 0 79 180l62 -14q8 -60 -2.5 -114.5t-46 -95t-92.5 -40.5q-38 0 -68.5 18.5t-49.5 44.5t-36.5 52t-40 44.5t-49.5 18.5q-40 0 -65.5 -32t-33 -69.5t-6.5 -76.5zM1174 1413
h108v-938q0 -235 -136.5 -366.5t-397.5 -131.5q-260 0 -398.5 132t-138.5 366v938h111v-926q0 -207 115.5 -310t310.5 -103q200 0 313 102.5t113 310.5v926z" />
    <glyph glyph-name="utilde" unicode="&#x169;" horiz-adv-x="1179" 
d="M371 1194l-64 10q-10 92 37 173t133 81q36 0 65.5 -18.5t49.5 -45t38.5 -53t40.5 -45t48 -18.5q89 0 80 180l61 -14q8 -60 -2.5 -114.5t-46 -95t-92.5 -40.5q-38 0 -68.5 18.5t-49.5 44.5t-36.5 52t-40 44.5t-49.5 18.5q-40 0 -65 -32t-32.5 -69.5t-6.5 -76.5zM885 612
v412h102v-1024h-78l-14 270h-33q-40 -125 -135 -209t-227 -84q-152 0 -239 91t-87 247v709h102v-684q0 -128 67 -200t187 -72q113 0 194.5 73.5t121 195t39.5 275.5z" />
    <glyph glyph-name="Umacron" unicode="&#x16a;" horiz-adv-x="1507" 
d="M489 1704h560v-78h-560v78zM1174 1413h108v-938q0 -235 -136.5 -366.5t-397.5 -131.5q-260 0 -398.5 132t-138.5 366v938h111v-926q0 -207 115.5 -310t310.5 -103q200 0 313 102.5t113 310.5v926z" />
    <glyph glyph-name="umacron" unicode="&#x16b;" horiz-adv-x="1179" 
d="M324 1315h559v-78h-559v78zM885 612v412h102v-1024h-78l-14 270h-33q-40 -125 -135 -209t-227 -84q-152 0 -239 91t-87 247v709h102v-684q0 -128 67 -200t187 -72q113 0 194.5 73.5t121 195t39.5 275.5z" />
    <glyph glyph-name="Ubreve" unicode="&#x16c;" horiz-adv-x="1501" 
d="M748 1536q-132 0 -204.5 92t-72.5 287h78q0 -297 199 -297q99 0 148.5 71t49.5 226h76q0 -195 -72 -287t-202 -92zM1174 1413h108v-938q0 -235 -136.5 -366.5t-397.5 -131.5q-260 0 -398.5 132t-138.5 366v938h111v-926q0 -207 115.5 -310t310.5 -103q200 0 313 102.5
t113 310.5v926z" />
    <glyph glyph-name="ubreve" unicode="&#x16d;" horiz-adv-x="1179" 
d="M590 1147q-132 0 -204.5 92t-72.5 287h78q0 -297 199 -297q99 0 148.5 71t49.5 226h76q0 -195 -72 -287t-202 -92zM885 612v412h102v-1024h-78l-14 270h-33q-40 -125 -135 -209t-227 -84q-152 0 -239 91t-87 247v709h102v-684q0 -128 67 -200t187 -72q113 0 194.5 73.5
t121 195t39.5 275.5z" />
    <glyph glyph-name="Uring" unicode="&#x16e;" horiz-adv-x="1501" 
d="M748 1546q-78 0 -124 46.5t-46 127.5q0 79 47.5 127.5t122.5 48.5q74 0 122 -48.5t48 -127.5q0 -81 -46 -127.5t-124 -46.5zM748 1837q-45 0 -73 -29t-28 -86q0 -114 101 -114q102 0 102 114q0 58 -27 86.5t-75 28.5zM1174 1413h108v-938q0 -235 -136.5 -366.5
t-397.5 -131.5q-260 0 -398.5 132t-138.5 366v938h111v-926q0 -207 115.5 -310t310.5 -103q200 0 313 102.5t113 310.5v926z" />
    <glyph glyph-name="uring" unicode="&#x16f;" horiz-adv-x="1179" 
d="M590 1157q-78 0 -124 46.5t-46 127.5q0 79 47.5 127.5t122.5 48.5q74 0 122 -48.5t48 -127.5q0 -81 -46 -127.5t-124 -46.5zM590 1448q-45 0 -73 -29t-28 -86q0 -114 101 -114q102 0 102 114q0 58 -27 86.5t-75 28.5zM885 612v412h102v-1024h-78l-14 270h-33
q-40 -125 -135 -209t-227 -84q-152 0 -239 91t-87 247v709h102v-684q0 -128 67 -200t187 -72q113 0 194.5 73.5t121 195t39.5 275.5z" />
    <glyph glyph-name="Uhungarumlaut" unicode="&#x170;" horiz-adv-x="1507" 
d="M696 1905h123l-176 -357h-74zM1032 1905l-178 -357h-74l127 357h125zM1174 1413h108v-938q0 -235 -136.5 -366.5t-397.5 -131.5q-260 0 -398.5 132t-138.5 366v938h111v-926q0 -207 115.5 -310t310.5 -103q200 0 313 102.5t113 310.5v926z" />
    <glyph glyph-name="uhungarumlaut" unicode="&#x171;" horiz-adv-x="1179" 
d="M530 1516h125l-178 -357h-74zM866 1516l-176 -357h-74l127 357h123zM885 612v412h102v-1024h-78l-14 270h-33q-40 -125 -135 -209t-227 -84q-152 0 -239 91t-87 247v709h102v-684q0 -128 67 -200t187 -72q113 0 194.5 73.5t121 195t39.5 275.5z" />
    <glyph glyph-name="Uogonek" unicode="&#x172;" horiz-adv-x="1501" 
d="M1174 1413h108v-938q0 -193 -93.5 -317.5t-275.5 -163.5q-52 -25 -94.5 -71.5t-42.5 -110.5q0 -58 41 -96.5t96 -50t107 -1.5v-70q-84 -17 -159 2.5t-121 71t-46 123.5q0 112 117 189q-30 -3 -63 -3q-260 0 -398.5 132t-138.5 366v938h111v-926q0 -207 115.5 -310
t310.5 -103q200 0 313 102.5t113 310.5v926z" />
    <glyph glyph-name="uogonek" unicode="&#x173;" horiz-adv-x="1179" 
d="M834 -188q0 -58 40.5 -96.5t95.5 -50t107 -1.5v-70q-129 -27 -227 30.5t-98 166.5q0 74 46 127.5t111 83.5l-14 268h-33q-40 -125 -135 -209t-227 -84q-152 0 -239 91t-87 247v709h102v-684q0 -128 67 -200t187 -72q113 0 194.5 73.5t121 195t39.5 275.5v412h102v-1024
q-53 -18 -103 -67.5t-50 -120.5z" />
    <glyph glyph-name="Wcircumflex" unicode="&#x174;" horiz-adv-x="1863" 
d="M1098 1548l-164 299l-166 -299h-104l213 357h112l211 -357h-102zM1518 623l194 790h121l-360 -1413h-226l-213 911q-61 260 -80 406h-47q-16 -139 -78 -406l-208 -911h-232l-358 1413h119l200 -790q27 -110 62.5 -279.5t40.5 -251.5h106q7 114 96 531l185 790h184
l184 -790q1 -4 22.5 -100t34.5 -158t28 -146t18 -127h106q5 82 40 255t61 276z" />
    <glyph glyph-name="wcircumflex" unicode="&#x175;" horiz-adv-x="1521" 
d="M926 1159l-164 299l-166 -299h-104l213 357h112l211 -357h-102zM1225 449l159 575h105l-297 -1024h-152l-143 498q-84 289 -109 446h-45q-18 -111 -102 -444l-135 -500h-152l-319 1024h108l168 -567q92 -296 99 -373h41q10 102 88 373l151 567h152l159 -575
q89 -280 99 -365h41q5 57 31.5 167t52.5 198z" />
    <glyph glyph-name="Ycircumflex" unicode="&#x176;" horiz-adv-x="1228" 
d="M780 1548l-164 299l-165 -299h-105l213 357h113l211 -357h-103zM1071 1413h127l-536 -844v-569h-109v569l-522 844h131l225 -377q10 -17 48.5 -81.5t61 -104t50.5 -94t41 -90.5h43q9 25 25.5 58.5t31 60t40.5 70t38 63t41 65.5t33 53z" />
    <glyph glyph-name="ycircumflex" unicode="&#x177;" horiz-adv-x="974" 
d="M653 1159l-164 299l-165 -299h-105l213 357h113l211 -357h-103zM631 492l194 532h115l-391 -1024q-70 -184 -136.5 -262t-158.5 -78q-56 0 -104 25t-76 57l61 82q59 -64 125 -64q71 0 126.5 67t86.5 173h-45l-393 1024h115l198 -532q4 -11 26 -73t32 -91t26 -81t25 -91
t12 -72h41q4 40 19.5 98.5t30 102t39 113.5t32.5 94z" />
    <glyph glyph-name="Ydieresis" unicode="&#x178;" horiz-adv-x="1228" 
d="M467 1628q-38 0 -58 21t-20 55q0 33 20 54.5t58 21.5q35 0 54.5 -22t19.5 -54q0 -34 -19 -55t-55 -21zM766 1628q-38 0 -57 21t-19 55q0 33 19 54.5t57 21.5q37 0 56.5 -21.5t19.5 -54.5q0 -34 -19.5 -55t-56.5 -21zM1071 1413h127l-536 -844v-569h-109v569l-522 844h131
l225 -377q10 -17 48.5 -81.5t61 -104t50.5 -94t41 -90.5h43q9 25 25.5 58.5t31 60t40.5 70t38 63t41 65.5t33 53z" />
    <glyph glyph-name="Zacute" unicode="&#x179;" horiz-adv-x="1294" 
d="M760 1905h133l-234 -357h-75zM233 127l9 -33l936 2v-96h-1061v94l588 793q211 286 354 407l-6 29h-879v90h993v-90l-546 -727q-255 -351 -388 -469z" />
    <glyph glyph-name="zacute" unicode="&#x17a;" horiz-adv-x="954" 
d="M586 1516h133l-234 -357h-75zM172 119v-33h713v-86h-813v104l495 619q82 102 176 182v39h-628v80h741v-98l-469 -592q-113 -134 -215 -215z" />
    <glyph glyph-name="Zdotaccent" unicode="&#x17b;" horiz-adv-x="1294" 
d="M647 1626q-38 0 -58 22t-20 58q0 33 20 54.5t58 21.5q37 0 56.5 -21.5t19.5 -54.5q0 -35 -19.5 -57.5t-56.5 -22.5zM233 127l9 -33l936 2v-96h-1061v94l588 793q211 286 354 407l-6 29h-879v90h993v-90l-546 -727q-255 -351 -388 -469z" />
    <glyph glyph-name="zdotaccent" unicode="&#x17c;" horiz-adv-x="954" 
d="M475 1237q-38 0 -58 22t-20 58q0 33 20 54.5t58 21.5q37 0 56.5 -21.5t19.5 -54.5q0 -35 -19.5 -57.5t-56.5 -22.5zM172 119v-33h713v-86h-813v104l495 619q82 102 176 182v39h-628v80h741v-98l-469 -592q-113 -134 -215 -215z" />
    <glyph glyph-name="Zcaron" unicode="&#x17d;" horiz-adv-x="1294" 
d="M588 1548l-213 357h102l166 -301l166 301h102l-213 -357h-110zM233 127l9 -33l936 2v-96h-1061v94l588 793q211 286 354 407l-6 29h-879v90h993v-90l-546 -727q-255 -351 -388 -469z" />
    <glyph glyph-name="zcaron" unicode="&#x17e;" horiz-adv-x="954" 
d="M414 1159l-211 357h102l166 -299l164 299h104l-213 -357h-112zM172 119v-33h713v-86h-813v104l495 619q82 102 176 182v39h-628v80h741v-98l-469 -592q-113 -134 -215 -215z" />
    <glyph glyph-name="uni01EA" unicode="&#x1ea;" horiz-adv-x="1587" 
d="M973 -6q-53 -26 -93 -71.5t-40 -108.5q0 -58 40.5 -96.5t95.5 -50t107 -1.5v-69q-84 -17 -159 2t-120.5 70.5t-45.5 123.5q0 60 32.5 108t81.5 79q-40 -3 -77 -3q-329 0 -493.5 187.5t-164.5 540.5q0 337 171.5 534t486.5 197t486 -197t171 -534q0 -301 -119 -482.5
t-360 -228.5zM252 700q0 -308 137.5 -467t405.5 -159t405 159t137 467q0 314 -138.5 477.5t-403.5 163.5q-266 0 -404.5 -164t-138.5 -477z" />
    <glyph glyph-name="uni01EB" unicode="&#x1eb;" horiz-adv-x="1159" 
d="M575 1047q225 0 353 -144t125 -393q-2 -201 -80 -331.5t-225 -176.5q-48 -26 -82.5 -69.5t-34.5 -102.5q0 -58 40.5 -96.5t95.5 -49.5t107 -1v-70q-129 -27 -227 30.5t-98 166.5q0 103 92 170q-11 0 -33 -1.5t-33 -1.5q-228 0 -353.5 140.5t-123.5 392.5q3 250 129 393.5
t348 143.5zM575 70q185 0 278 114t93 328q0 213 -94 329.5t-277 116.5q-180 0 -274 -118t-94 -328q0 -213 93 -327.5t275 -114.5z" />
    <glyph glyph-name="AEacute" unicode="&#x1fc;" horiz-adv-x="1843" 
d="M1176 1905h133l-234 -357h-76zM973 688v-594h772v-94h-881v440h-467l-223 -440h-129l739 1413h930v-92h-741v-541h645v-92h-645zM594 825l-150 -295h420v791h-41q-9 -33 -30.5 -85t-53 -117.5t-53.5 -110.5t-55.5 -111t-36.5 -72z" />
    <glyph glyph-name="aeacute" unicode="&#x1fd;" horiz-adv-x="1837" 
d="M1026 1516h133l-233 -357h-76zM1321 1047q237 0 344 -145.5t86 -409.5h-811q1 -212 104.5 -318t276.5 -106q254 0 348 225l82 -25q-41 -132 -155.5 -211.5t-278.5 -79.5q-171 0 -284 75.5t-159 217.5h-43q-37 -134 -131.5 -213.5t-244.5 -79.5q-164 0 -250 84.5
t-86 210.5q0 156 121 241t333 85q153 0 267 -20v129q0 251 -281 251q-253 0 -305 -241l-88 26q19 139 124.5 221.5t274.5 82.5q299 0 357 -216q62 104 164.5 160t234.5 56zM1317 958q-158 0 -258 -97t-117 -294h715q-2 91 -18 158.5t-53 122t-104.5 82.5t-164.5 28zM463 72
q174 0 272 105t105 323q-615 86 -615 -226q0 -96 62 -149t176 -53z" />
    <glyph glyph-name="Oslashacute" unicode="&#x1fe;" horiz-adv-x="1587" 
d="M905 1905h133l-233 -357h-76zM1407 1444l-147 -182q192 -195 192 -557q0 -353 -164 -540.5t-493 -187.5q-284 0 -453 146l-98 -123h-88l139 172q-158 186 -158 533q0 337 171.5 534t486.5 197q249 0 413 -127l109 135h90zM252 700q0 -281 115 -438l778 969
q-131 110 -350 110q-266 0 -404.5 -164t-138.5 -477zM795 74q268 0 405 159t137 467q0 315 -141 482l-784 -973q135 -135 383 -135z" />
    <glyph glyph-name="oslashacute" unicode="&#x1ff;" horiz-adv-x="1165" 
d="M688 1516h133l-233 -357h-76zM975 1024h88l-121 -139q114 -139 111 -375q-2 -255 -126 -394t-352 -139q-202 0 -325 111l-76 -88h-86l119 137q-109 136 -109 373q3 250 129 393.5t348 143.5q200 0 322 -113zM207 512q0 -186 69 -295l558 645q-93 96 -259 96
q-180 0 -274 -118t-94 -328zM946 512q0 185 -69 297l-560 -643q93 -96 258 -96q185 0 278 114t93 328z" />
    <glyph glyph-name="uni0218" unicode="&#x218;" horiz-adv-x="1308" 
d="M696 797q86 -10 149 -23t130 -40.5t109 -68t69 -106.5t27 -153q0 -198 -137.5 -313.5t-356.5 -115.5q-218 0 -364 115t-193 332l92 41q43 -188 166 -289.5t291 -101.5q180 0 285.5 88t105.5 237q0 66 -22.5 115.5t-57.5 80t-92.5 52.5t-113.5 33t-134 20q-61 7 -105.5 14
t-101 21t-96.5 31t-81 44.5t-66.5 62.5t-41.5 84t-16 108q0 162 129.5 265.5t356.5 103.5q244 0 370 -100.5t148 -307.5l-94 -27q-7 60 -22.5 108t-47 93t-77 75t-116 48t-161.5 18q-168 0 -270.5 -71.5t-102.5 -194.5q0 -46 14 -83t34.5 -63t57.5 -47t69 -33t84.5 -23
t88 -16.5t94.5 -12.5zM672 -74q86 0 86 -92q0 -88 -49 -173t-127 -116l-37 107q56 14 111 56.5t69 96.5q-24 -24 -61 -24q-38 0 -58 20t-20 52t22.5 52.5t63.5 20.5z" />
    <glyph glyph-name="uni0219" unicode="&#x219;" horiz-adv-x="1054" 
d="M539 592q111 -8 185 -25t126 -49.5t75 -84t23 -126.5q0 -158 -117 -244t-299 -86q-174 0 -288 74.5t-138 210.5l84 27q22 -103 109 -161t233 -58q149 0 232.5 61.5t83.5 173.5q0 46 -15 78.5t-41 54t-73.5 35.5t-101 21.5t-134.5 13.5q-193 12 -281.5 69t-88.5 181
q0 130 109 209.5t288 79.5q174 0 286 -71.5t130 -213.5l-80 -27q-48 223 -336 223q-137 0 -218 -53.5t-81 -144.5q-1 -47 22.5 -79t72.5 -50t101.5 -26t131.5 -13zM528 -74q86 0 86 -92q0 -88 -49 -173t-127 -116l-37 107q56 14 111.5 56.5t69.5 96.5q-24 -24 -62 -24
t-58 20t-20 52t22.5 52.5t63.5 20.5z" />
    <glyph glyph-name="uni021A" unicode="&#x21a;" horiz-adv-x="1185" 
d="M1184 1413v-92h-537v-1321h-108v1321h-535v92h1180zM598 -74q86 0 86 -92q0 -88 -49 -173t-127 -116l-37 107q56 14 111 56.5t69 96.5q-24 -24 -61 -24q-38 0 -58 20t-20 52t22.5 52.5t63.5 20.5z" />
    <glyph glyph-name="uni021B" unicode="&#x21b;" horiz-adv-x="872" 
d="M803 252l51 -59q-116 -216 -328 -216q-125 0 -197.5 66.5t-72.5 177.5v723h-190v80h198l41 299h55v-299h410v-80h-410v-692q0 -182 185 -182q61 0 115.5 30.5t86 68t56.5 83.5zM489 -74q86 0 86 -92q0 -88 -49 -173t-127 -116l-37 107q56 14 111.5 56.5t69.5 96.5
q-24 -24 -62 -24t-58 20t-20 52t22.5 52.5t63.5 20.5z" />
    <glyph glyph-name="uni0237" unicode="&#x237;" horiz-adv-x="462" 
d="M195 1024h102v-1006q0 -199 -59 -303.5t-183 -148.5l-30 82q33 14 61 38.5t53.5 64t40.5 102t15 141.5v1030z" />
    <glyph glyph-name="circumflex" unicode="&#x2c6;" horiz-adv-x="858" 
d="M485 1516l211 -357h-102l-164 299l-166 -299h-104l213 357h112z" />
    <glyph glyph-name="caron" unicode="&#x2c7;" horiz-adv-x="858" 
d="M430 1217l164 299h102l-211 -357h-112l-213 357h104z" />
    <glyph glyph-name="breve" unicode="&#x2d8;" horiz-adv-x="872" 
d="M160 1526h78q0 -154 50 -225.5t148 -71.5q99 0 149 71t50 226h76q0 -195 -72.5 -287t-202.5 -92q-276 0 -276 379z" />
    <glyph glyph-name="dotaccent" unicode="&#x2d9;" horiz-adv-x="434" 
d="M217 1237q-38 0 -58 22t-20 58q0 33 20 54.5t58 21.5q37 0 56.5 -21.5t19.5 -54.5q0 -35 -19.5 -57.5t-56.5 -22.5z" />
    <glyph glyph-name="ring" unicode="&#x2da;" horiz-adv-x="620" 
d="M309 1157q-78 0 -124 46.5t-46 127.5q0 79 47.5 127.5t122.5 48.5q74 0 122 -48.5t48 -127.5q0 -81 -46 -127.5t-124 -46.5zM309 1219q103 0 103 114q0 58 -27.5 86.5t-75.5 28.5q-45 0 -72.5 -29t-27.5 -86q0 -114 100 -114z" />
    <glyph glyph-name="ogonek" unicode="&#x2db;" horiz-adv-x="645" 
d="M375 0l20 -20q-53 -18 -103 -68t-50 -121q0 -58 40.5 -96.5t95.5 -49.5t107 -1v-70q-129 -27 -227 30.5t-98 166.5q0 49 23 92t58 70.5t70 44.5t64 22z" />
    <glyph glyph-name="tilde" unicode="&#x2dc;" horiz-adv-x="837" 
d="M205 1194l-64 10q-10 92 37 173t133 81q36 0 65.5 -18.5t49.5 -45t38.5 -53t40.5 -45t48 -18.5q89 0 80 180l61 -14q8 -60 -2.5 -114.5t-46 -95t-92.5 -40.5q-38 0 -68.5 18.5t-49.5 44.5t-36.5 52t-40 44.5t-49.5 18.5q-40 0 -65 -32t-32.5 -69.5t-6.5 -76.5z" />
    <glyph glyph-name="hungarumlaut" unicode="&#x2dd;" horiz-adv-x="743" 
d="M213 1159h-74l127 357h125zM426 1159h-74l127 357h125z" />
    <glyph glyph-name="gravecomb" unicode="&#x300;" horiz-adv-x="0" 
d="M-139 1159h-76l-236 357h136z" />
    <glyph glyph-name="acutecomb" unicode="&#x301;" horiz-adv-x="0" 
d="M-377 1159h-76l177 357h133z" />
    <glyph glyph-name="uni0302" unicode="&#x302;" horiz-adv-x="0" 
d="M-373 1516l211 -357h-102l-164 299l-166 -299h-104l213 357h112z" />
    <glyph glyph-name="tildecomb" unicode="&#x303;" horiz-adv-x="0" 
d="M-633 1194l-63 10q-10 92 37 173t133 81q36 0 65.5 -18.5t49.5 -45t38 -53t40 -45t48 -18.5q89 0 80 180l62 -14q8 -59 -2.5 -114t-46.5 -95.5t-93 -40.5q-38 0 -68 18.5t-49 44.5t-36.5 52t-40 44.5t-49.5 18.5q-40 0 -65.5 -32t-33 -69.5t-6.5 -76.5z" />
    <glyph glyph-name="uni0304" unicode="&#x304;" horiz-adv-x="0" 
d="M-721 1237v78h559v-78h-559z" />
    <glyph glyph-name="uni0306" unicode="&#x306;" horiz-adv-x="0" 
d="M-713 1526h78q0 -297 199 -297q99 0 148.5 71t49.5 226h76q0 -195 -72 -287t-202 -92q-132 0 -204.5 92t-72.5 287z" />
    <glyph glyph-name="uni0307" unicode="&#x307;" horiz-adv-x="0" 
d="M-217 1237q-38 0 -58 22t-20 58q0 33 20 54.5t58 21.5q37 0 56.5 -21.5t19.5 -54.5q0 -35 -19.5 -57.5t-56.5 -22.5z" />
    <glyph glyph-name="uni0308" unicode="&#x308;" horiz-adv-x="0" 
d="M-514 1239q-38 0 -58 21t-20 55q0 33 20 54.5t58 21.5q35 0 54.5 -22t19.5 -54q0 -34 -19 -55t-55 -21zM-215 1239q-38 0 -57 21t-19 55q0 33 19 54.5t57 21.5q37 0 56.5 -21.5t19.5 -54.5q0 -34 -19.5 -55t-56.5 -21z" />
    <glyph glyph-name="uni030A" unicode="&#x30a;" horiz-adv-x="0" 
d="M-311 1157q-78 0 -124 46.5t-46 127.5q0 79 47.5 127.5t122.5 48.5q74 0 122 -48.5t48 -127.5q0 -81 -46 -127.5t-124 -46.5zM-311 1219q102 0 102 114q0 58 -27 86.5t-75 28.5q-45 0 -73 -29t-28 -86q0 -114 101 -114z" />
    <glyph glyph-name="uni030B" unicode="&#x30b;" horiz-adv-x="0" 
d="M-926 1159h-75l176 357h135zM-641 1159h-76l176 357h133z" />
    <glyph glyph-name="uni030C" unicode="&#x30c;" horiz-adv-x="0" 
d="M-420 1516h105l-70 -340l2 -17h-92l2 12l-70 345h103l10 -66z" />
    <glyph glyph-name="uni0312" unicode="&#x312;" horiz-adv-x="0" 
d="M-272 1276q36 0 55.5 -15.5t19.5 -41.5q0 -27 -20.5 -44.5t-58.5 -17.5q-44 0 -68.5 24t-24.5 64q0 62 48 129t104 99l51 -72q-39 -13 -95 -56.5t-67 -80.5q24 12 56 12z" />
    <glyph glyph-name="uni0326" unicode="&#x326;" horiz-adv-x="0" 
d="M-246 -74q86 0 86 -92q0 -88 -49 -173t-127 -116l-37 107q56 14 111 56.5t69 96.5q-24 -24 -61 -24q-38 0 -58 20t-20 52t22.5 52.5t63.5 20.5z" />
    <glyph glyph-name="uni0327" unicode="&#x327;" horiz-adv-x="0" 
d="M-342 10l-16 -110q106 4 162.5 -41t56.5 -113q0 -79 -65 -129.5t-165 -50.5q-81 0 -141.5 30.5t-83.5 61.5l43 51q22 -27 68.5 -50.5t105.5 -23.5q78 0 117 32.5t39 80.5q0 54 -46.5 82t-127.5 16l-43 35l26 129h70z" />
    <glyph glyph-name="uni0328" unicode="&#x328;" horiz-adv-x="0" 
d="M-270 0l20 -20q-53 -18 -103 -68t-50 -121q0 -58 40.5 -96.5t95.5 -49.5t107 -1v-70q-129 -27 -227 30.5t-98 166.5q0 49 23 92t58 70.5t70 44.5t64 22z" />
    <glyph glyph-name="Wgrave" unicode="&#x1e80;" horiz-adv-x="1863" 
d="M817 1905l176 -357h-75l-236 357h135zM1518 623l194 790h121l-360 -1413h-226l-213 911q-61 260 -80 406h-47q-16 -139 -78 -406l-208 -911h-232l-358 1413h119l200 -790q27 -110 62.5 -279.5t40.5 -251.5h106q7 114 96 531l185 790h184l184 -790q1 -4 22.5 -100
t34.5 -158t28 -146t18 -127h106q5 82 40 255t61 276z" />
    <glyph glyph-name="wgrave" unicode="&#x1e81;" horiz-adv-x="1521" 
d="M647 1516l176 -357h-75l-236 357h135zM1225 449l159 575h105l-297 -1024h-152l-143 498q-84 289 -109 446h-45q-18 -111 -102 -444l-135 -500h-152l-319 1024h108l168 -567q92 -296 99 -373h41q10 102 88 373l151 567h152l159 -575q89 -280 99 -365h41q5 57 31.5 167
t52.5 198z" />
    <glyph glyph-name="Wacute" unicode="&#x1e82;" horiz-adv-x="1863" 
d="M1042 1905h134l-234 -357h-76zM1518 623l194 790h121l-360 -1413h-226l-213 911q-61 260 -80 406h-47q-16 -139 -78 -406l-208 -911h-232l-358 1413h119l200 -790q27 -110 62.5 -279.5t40.5 -251.5h106q7 114 96 531l185 790h184l184 -790q1 -4 22.5 -100t34.5 -158
t28 -146t18 -127h106q5 82 40 255t61 276z" />
    <glyph glyph-name="wacute" unicode="&#x1e83;" horiz-adv-x="1521" 
d="M872 1516h134l-234 -357h-76zM1225 449l159 575h105l-297 -1024h-152l-143 498q-84 289 -109 446h-45q-18 -111 -102 -444l-135 -500h-152l-319 1024h108l168 -567q92 -296 99 -373h41q10 102 88 373l151 567h152l159 -575q89 -280 99 -365h41q5 57 31.5 167t52.5 198z
" />
    <glyph glyph-name="Wdieresis" unicode="&#x1e84;" horiz-adv-x="1863" 
d="M782 1628q-38 0 -57.5 21t-19.5 55q0 33 19.5 54.5t57.5 21.5q35 0 54.5 -22t19.5 -54q0 -34 -19 -55t-55 -21zM1081 1628q-38 0 -56.5 21t-18.5 55q0 33 18.5 54.5t56.5 21.5q37 0 56.5 -21.5t19.5 -54.5q0 -34 -19.5 -55t-56.5 -21zM1518 623l194 790h121l-360 -1413
h-226l-213 911q-61 260 -80 406h-47q-16 -139 -78 -406l-208 -911h-232l-358 1413h119l200 -790q27 -110 62.5 -279.5t40.5 -251.5h106q7 114 96 531l185 790h184l184 -790q1 -4 22.5 -100t34.5 -158t28 -146t18 -127h106q5 82 40 255t61 276z" />
    <glyph glyph-name="wdieresis" unicode="&#x1e85;" horiz-adv-x="1521" 
d="M612 1239q-38 0 -57.5 21t-19.5 55q0 33 19.5 54.5t57.5 21.5q35 0 54.5 -22t19.5 -54q0 -34 -19 -55t-55 -21zM911 1239q-38 0 -56.5 21t-18.5 55q0 33 18.5 54.5t56.5 21.5q37 0 56.5 -21.5t19.5 -54.5q0 -34 -19.5 -55t-56.5 -21zM1225 449l159 575h105l-297 -1024
h-152l-143 498q-84 289 -109 446h-45q-18 -111 -102 -444l-135 -500h-152l-319 1024h108l168 -567q92 -296 99 -373h41q10 102 88 373l151 567h152l159 -575q89 -280 99 -365h41q5 57 31.5 167t52.5 198z" />
    <glyph glyph-name="Ygrave" unicode="&#x1ef2;" horiz-adv-x="1228" 
d="M502 1905l176 -357h-76l-235 357h135zM1071 1413h127l-536 -844v-569h-109v569l-522 844h131l225 -377q10 -17 48.5 -81.5t61 -104t50.5 -94t41 -90.5h43q9 25 25.5 58.5t31 60t40.5 70t38 63t41 65.5t33 53z" />
    <glyph glyph-name="ygrave" unicode="&#x1ef3;" horiz-adv-x="974" 
d="M373 1516l176 -357h-76l-235 357h135zM631 492l194 532h115l-391 -1024q-70 -184 -136.5 -262t-158.5 -78q-56 0 -104 25t-76 57l61 82q59 -64 125 -64q71 0 126.5 67t86.5 173h-45l-393 1024h115l198 -532q4 -11 26 -73t32 -91t26 -81t25 -91t12 -72h41q4 40 19.5 98.5
t30 102t39 113.5t32.5 94z" />
    <glyph glyph-name="endash" unicode="&#x2013;" horiz-adv-x="1050" 
d="M948 553h-846v82h846v-82z" />
    <glyph glyph-name="emdash" unicode="&#x2014;" horiz-adv-x="1771" 
d="M1669 553h-1567v82h1567v-82z" />
    <glyph glyph-name="quoteleft" unicode="&#x2018;" horiz-adv-x="380" 
d="M195 1102q36 0 56.5 -21.5t20.5 -54.5q0 -36 -24 -61t-64 -25q-43 0 -69.5 30t-26.5 89q0 116 41.5 255t85.5 187l78 -115q-52 -55 -94 -137t-64 -170q27 23 60 23z" />
    <glyph glyph-name="quoteright" unicode="&#x2019;" horiz-adv-x="380" 
d="M197 1466q43 0 69.5 -29.5t26.5 -88.5q0 -117 -41 -256t-84 -187l-80 115q52 55 95.5 137.5t64.5 171.5q-28 -24 -62 -24q-36 0 -56.5 21t-20.5 54q0 36 24 61t64 25z" />
    <glyph glyph-name="quotesinglbase" unicode="&#x201a;" horiz-adv-x="380" 
d="M197 236q43 0 69.5 -30t26.5 -89q0 -117 -41 -256t-84 -187l-80 115q52 55 95.5 137.5t64.5 171.5q-28 -24 -62 -24q-36 0 -56.5 21.5t-20.5 54.5q0 36 24 61t64 25z" />
    <glyph glyph-name="quotedblleft" unicode="&#x201c;" horiz-adv-x="638" 
d="M215 1407l78 -115q-114 -125 -158 -307q27 23 60 23q36 0 56.5 -22.5t20.5 -55.5q0 -35 -24 -59.5t-64 -24.5q-44 0 -70 29t-26 88q0 118 41.5 257t85.5 187zM453 1008q36 0 56.5 -22.5t20.5 -55.5q0 -35 -24 -59.5t-64 -24.5q-44 0 -70 29t-26 88q0 118 41 257t84 187
l80 -115q-51 -54 -94 -136.5t-66 -172.5q29 25 62 25z" />
    <glyph glyph-name="quotedblright" unicode="&#x201d;" horiz-adv-x="638" 
d="M197 1466q43 0 69.5 -29.5t26.5 -88.5q0 -117 -41 -256t-84 -187l-80 115q52 55 95.5 137.5t64.5 171.5q-28 -24 -62 -24q-36 0 -56.5 21t-20.5 54q0 36 24 61t64 25zM455 1466q43 0 69.5 -29.5t26.5 -88.5q0 -117 -42 -256t-85 -187l-78 115q52 55 94 137t64 170
q-26 -22 -60 -22q-36 0 -56.5 21t-20.5 54q0 36 24 61t64 25z" />
    <glyph glyph-name="quotedblbase" unicode="&#x201e;" horiz-adv-x="638" 
d="M197 147q44 0 70 -29t26 -89q0 -117 -41 -256t-84 -187l-80 115q52 55 95.5 137.5t64.5 171.5q-24 -24 -62 -24q-36 0 -56.5 21.5t-20.5 55.5q0 35 24 59.5t64 24.5zM455 147q44 0 70 -29t26 -89q0 -117 -42 -256t-85 -187l-78 115q52 55 94 137t64 170q-22 -22 -60 -22
q-36 0 -56.5 21.5t-20.5 55.5q0 35 24 59.5t64 24.5z" />
    <glyph glyph-name="dagger" unicode="&#x2020;" horiz-adv-x="763" 
d="M662 1270v-123q-49 0 -87 5.5t-92.5 20.5t-74.5 19q2 -20 24.5 -108.5t22.5 -151.5q0 -55 -7.5 -118t-24 -163.5t-20.5 -128.5h-43q-4 29 -20.5 125.5t-23.5 160t-7 124.5q0 65 22.5 153.5t24.5 104.5q-17 -4 -74 -18t-95.5 -19.5t-84.5 -5.5v123q46 0 84.5 -5.5
t95.5 -19.5t74 -18q-2 21 -14.5 70t-22.5 111.5t-10 129.5h146q0 -67 -10 -129.5t-23.5 -113t-15.5 -68.5q26 5 77 18t90.5 19t88.5 6z" />
    <glyph glyph-name="daggerdbl" unicode="&#x2021;" horiz-adv-x="763" 
d="M662 1280v-123q-24 0 -49 2t-42.5 4.5t-44 8t-38.5 8t-41.5 10.5t-38.5 10q1 -3 23 -62.5t22 -97.5q0 -31 -10 -60.5t-25 -58.5t-19 -42q9 2 58.5 14.5t69 16.5t59 9t76.5 5v-123q-37 0 -76.5 5t-59 9t-69 16.5t-58.5 14.5q3 -12 16 -65.5t19.5 -85t13.5 -82t7 -91.5
h-146q0 51 9.5 109t26.5 127.5t20 87.5q-11 -3 -40.5 -10t-43.5 -10.5t-41 -9t-45.5 -8.5t-43.5 -5t-49 -2v123q24 0 49.5 -2.5t42.5 -4.5t47.5 -8.5t39.5 -8.5t45 -11t39 -10q0 1 -27 60t-27 101q0 38 22 97.5t23 62.5q-7 -2 -33 -8.5l-36 -9t-33.5 -7.5t-37.5 -7.5
t-35 -5.5t-40 -4t-39 -1v123q33 0 72 -5t57.5 -9t68.5 -16t56 -13l-24 121q-23 121 -23 180h146q0 -59 -23 -174.5t-24 -126.5q10 3 38.5 10t41 10t38 8.5t44 8t43 4.5t49.5 2z" />
    <glyph glyph-name="bullet" unicode="&#x2022;" horiz-adv-x="534" 
d="M266 518q-68 0 -116 48t-48 116t48 116t116 48t117 -48.5t49 -115.5t-49 -115.5t-117 -48.5z" />
    <glyph glyph-name="ellipsis" unicode="&#x2026;" horiz-adv-x="919" 
d="M201 -23q-39 0 -58.5 22.5t-19.5 57.5t19.5 56.5t58.5 21.5t59.5 -22t20.5 -56q0 -35 -20.5 -57.5t-59.5 -22.5zM459 -23q-39 0 -58.5 22.5t-19.5 57.5t19.5 56.5t58.5 21.5t59.5 -22t20.5 -56q0 -35 -20.5 -57.5t-59.5 -22.5zM717 -23q-39 0 -58.5 22.5t-19.5 57.5
t19.5 56.5t58.5 21.5t59.5 -22t20.5 -56q0 -35 -20.5 -57.5t-59.5 -22.5z" />
    <glyph glyph-name="perthousand" unicode="&#x2030;" horiz-adv-x="2414" 
d="M434 842q-144 0 -238 90t-94 221q0 132 94 222.5t238 90.5q143 0 236.5 -90.5t93.5 -222.5q0 -131 -93.5 -221t-236.5 -90zM279 0h-105l1174 1444h104zM434 922q107 0 176.5 65.5t69.5 165.5q0 103 -69.5 169.5t-176.5 66.5q-108 0 -177 -66.5t-69 -169.5
q0 -100 69 -165.5t177 -65.5zM1198 -23q-143 0 -237.5 90.5t-94.5 221.5t94.5 221t237.5 90t237.5 -90t94.5 -221t-94.5 -221.5t-237.5 -90.5zM1980 -23q-143 0 -236 90.5t-93 221.5t93 221t236 90q144 0 238 -90t94 -221t-94 -221.5t-238 -90.5zM1198 57q107 0 176.5 65.5
t69.5 164.5q0 104 -69.5 170.5t-176.5 66.5t-176.5 -66.5t-69.5 -170.5q0 -99 69.5 -164.5t176.5 -65.5zM1980 57q108 0 177 65.5t69 164.5q0 104 -68.5 170.5t-177.5 66.5q-107 0 -176 -66.5t-69 -170.5q0 -99 69 -164.5t176 -65.5z" />
    <glyph glyph-name="guilsinglleft" unicode="&#x2039;" horiz-adv-x="774" 
d="M678 963l-105 -97q-40 -37 -115 -110t-128.5 -122.5t-83.5 -70.5v-28q31 -21 79 -65.5t134.5 -130t113.5 -112.5l101 -94v-59l-578 446v55l582 449v-61z" />
    <glyph glyph-name="guilsinglright" unicode="&#x203a;" horiz-adv-x="774" 
d="M100 965v59l578 -446v-56l-582 -448v61l103 96q31 29 111.5 107.5t132.5 125.5t83 68v31q-30 22 -82 70.5t-126.5 122t-118.5 114.5z" />
    <glyph glyph-name="fraction" unicode="&#x2044;" horiz-adv-x="1232" 
d="M88 0h-82l1153 1444h82z" />
    <glyph glyph-name="Euro" unicode="&#x20ac;" horiz-adv-x="1536" 
d="M1333 389l94 -27q-18 -71 -55.5 -134.5t-101.5 -122t-166 -93.5t-230 -35q-268 0 -424.5 139t-197.5 384h-143v71h133q-6 58 -6 121q0 35 4 101h-131v73h139q41 268 203 419t413 151q262 0 396.5 -124t150.5 -333l-96 -16q-11 82 -37 145.5t-75.5 119t-134.5 85.5
t-202 30q-203 0 -335 -125t-169 -352l803 -2v-71h-811q-4 -66 -4 -101q0 -62 6 -121h809v-71h-798q41 -209 172 -318.5t335 -109.5q82 0 152 18t119.5 48t88.5 71.5t62 85.5t37 94z" />
    <glyph glyph-name="trademark" unicode="&#x2122;" horiz-adv-x="1585" 
d="M61 1413h603v-63h-261v-676h-84v676h-258v63zM1249 1139l111 274h123v-739h-80v289q0 194 27 387h-27l-236 -629h-98l-250 629h-26q30 -206 30 -387v-289h-82v739h123l117 -274q107 -262 125 -355h24q20 102 119 355z" />
    <glyph glyph-name="uni2150" unicode="&#x2150;" horiz-adv-x="1292" 
d="M6 0l1153 1444h82l-1153 -1444h-82zM430 760h-297v59h121v320h-121v59q83 0 102 19.5t19 99.5v96h65v-594h111v-59zM748 594v59h469l8 -57q-154 -98 -219.5 -235.5t-65.5 -360.5h-76q0 207 70.5 354.5t226.5 239.5h-413z" />
    <glyph glyph-name="uni2151" unicode="&#x2151;" horiz-adv-x="1292" 
d="M6 0l1153 1444h82l-1153 -1444h-82zM430 760h-297v59h121v320h-121v59q83 0 102 19.5t19 99.5v96h65v-594h111v-59zM979 674q133 -1 192.5 -85t59.5 -255q0 -170 -70 -263.5t-198 -93.5q-100 0 -154 49t-61 121l65 11q20 -119 150 -119q58 0 98.5 23.5t62 68t31 96.5
t10.5 121h-18q-17 -49 -67.5 -86t-123.5 -37q-101 0 -158 58t-57 157q0 112 65 174t173 60zM971 283q87 0 129.5 49.5t42.5 118.5q0 70 -40 118.5t-124 48.5q-78 0 -123 -46.5t-45 -129.5q0 -75 41 -117t119 -42z" />
    <glyph glyph-name="uni2153" unicode="&#x2153;" horiz-adv-x="1292" 
d="M6 0l1153 1444h82l-1153 -1444h-82zM430 760h-297v59h121v320h-121v59q83 0 102 19.5t19 99.5v96h65v-594h111v-59zM1071 375v-17q162 -24 162 -172q0 -98 -62.5 -153.5t-179.5 -55.5q-121 0 -185 48.5t-67 134.5l70 8q13 -127 184 -127q86 0 126 40.5t40 111.5
q0 137 -168 137h-86v61h111q50 0 86.5 32.5t36.5 84.5q0 110 -148 110q-78 0 -119.5 -33.5t-46.5 -84.5l-71 8q9 72 72.5 119t166.5 47q102 0 159.5 -40.5t57.5 -117.5q0 -54 -39 -92t-100 -49z" />
    <glyph glyph-name="uni2154" unicode="&#x2154;" 
d="M92 0l1153 1444h82l-1153 -1444h-82zM541 795l-297 -35h-172l2 26h-2q0 112 50.5 180t164.5 101q96 29 138 72t42 108q0 54 -36.5 91.5t-108.5 37.5q-70 0 -115.5 -41t-54.5 -114l-66 10q9 94 75 148.5t163 54.5q99 0 157 -51t58 -138q0 -162 -217 -227q-99 -29 -138 -78
t-39 -127l230 6zM1157 375v-17q162 -24 162 -172q0 -98 -62.5 -153.5t-179.5 -55.5q-121 0 -185 48.5t-67 134.5l70 8q13 -127 184 -127q86 0 126 40.5t40 111.5q0 137 -168 137h-86v61h111q50 0 86.5 32.5t36.5 84.5q0 110 -148 110q-78 0 -119.5 -33.5t-46.5 -84.5l-71 8
q9 72 72.5 119t166.5 47q102 0 159.5 -40.5t57.5 -117.5q0 -54 -39 -92t-100 -49z" />
    <glyph glyph-name="uni2155" unicode="&#x2155;" horiz-adv-x="1292" 
d="M6 0l1153 1444h82l-1153 -1444h-82zM430 760h-297v59h121v320h-121v59q83 0 102 19.5t19 99.5v96h65v-594h111v-59zM1016 453q95 0 154 -57t59 -167q0 -120 -65 -186t-183 -66q-107 0 -168.5 50t-69.5 125l64 10q9 -57 54 -90t124 -33q82 0 127 50t45 142q0 79 -42 123.5
t-120 44.5q-48 0 -84.5 -17.5t-54.5 -39.5l-90 33l31 278h401l2 -57h-344l-20 -199l16 -10q66 66 164 66z" />
    <glyph glyph-name="uni2156" unicode="&#x2156;" 
d="M92 0l1153 1444h82l-1153 -1444h-82zM541 795l-297 -35h-172l2 26h-2q0 112 50.5 180t164.5 101q96 29 138 72t42 108q0 54 -36.5 91.5t-108.5 37.5q-70 0 -115.5 -41t-54.5 -114l-66 10q9 94 75 148.5t163 54.5q99 0 157 -51t58 -138q0 -162 -217 -227q-99 -29 -138 -78
t-39 -127l230 6zM1102 453q95 0 154 -57t59 -167q0 -120 -65 -186t-183 -66q-107 0 -168.5 50t-69.5 125l64 10q9 -57 54 -90t124 -33q82 0 127 50t45 142q0 79 -42 123.5t-120 44.5q-48 0 -84.5 -17.5t-54.5 -39.5l-90 33l31 278h401l2 -57h-344l-20 -199l16 -10
q66 66 164 66z" />
    <glyph glyph-name="uni2157" unicode="&#x2157;" 
d="M92 0l1153 1444h82l-1153 -1444h-82zM313 801q166 0 166 151q0 138 -168 138h-86v61h111q50 0 86.5 32.5t36.5 84.5q0 110 -148 110q-78 0 -119.5 -33.5t-46.5 -84.5l-71 8q9 72 72.5 119t166.5 47q102 0 159.5 -40.5t57.5 -117.5q0 -54 -39 -92t-100 -49v-17
q162 -24 162 -172q0 -98 -62.5 -153.5t-179.5 -55.5q-121 0 -185 48.5t-67 134.5l70 8q13 -127 184 -127zM1102 453q95 0 154 -57t59 -167q0 -120 -65 -186t-183 -66q-107 0 -168.5 50t-69.5 125l64 10q9 -57 54 -90t124 -33q82 0 127 50t45 142q0 79 -42 123.5t-120 44.5
q-48 0 -84.5 -17.5t-54.5 -39.5l-90 33l31 278h401l2 -57h-344l-20 -199l16 -10q66 66 164 66z" />
    <glyph glyph-name="uni2158" unicode="&#x2158;" 
d="M92 0l1153 1444h82l-1153 -1444h-82zM483 760h-65v135h-352l-17 61l346 457h88v-459h82v-59h-82v-135zM418 1358l-297 -404h297v404zM1102 453q95 0 154 -57t59 -167q0 -120 -65 -186t-183 -66q-107 0 -168.5 50t-69.5 125l64 10q9 -57 54 -90t124 -33q82 0 127 50
t45 142q0 79 -42 123.5t-120 44.5q-48 0 -84.5 -17.5t-54.5 -39.5l-90 33l31 278h401l2 -57h-344l-20 -199l16 -10q66 66 164 66z" />
    <glyph glyph-name="uni2159" unicode="&#x2159;" horiz-adv-x="1292" 
d="M6 0l1153 1444h82l-1153 -1444h-82zM430 760h-297v59h121v320h-121v59q83 0 102 19.5t19 99.5v96h65v-594h111v-59zM1016 426q101 0 158 -56t57 -155q0 -113 -63.5 -175.5t-174.5 -62.5q-133 1 -192.5 85.5t-59.5 256.5q0 169 70.5 262t198.5 93q100 0 154 -49t61 -121
l-64 -10q-20 124 -151 124q-199 0 -203 -315h18q16 48 66 85.5t125 37.5zM993 41q82 0 125 44t43 130q0 73 -41 114.5t-119 41.5q-88 0 -131 -49.5t-43 -118.5t39 -115.5t127 -46.5z" />
    <glyph glyph-name="uni215A" unicode="&#x215a;" 
d="M92 0l1153 1444h82l-1153 -1444h-82zM305 799q82 0 127 50t45 142q0 79 -42 123.5t-120 44.5q-48 0 -84.5 -17.5t-54.5 -39.5l-90 33l31 278h401l2 -57h-344l-20 -199l16 -10q65 65 164 65q95 0 154 -56.5t59 -166.5q0 -120 -65 -186t-183 -66q-107 0 -168.5 49.5
t-69.5 124.5l64 11q9 -57 54 -90t124 -33zM1102 426q101 0 158 -56t57 -155q0 -113 -63.5 -175.5t-174.5 -62.5q-133 1 -192.5 85.5t-59.5 256.5q0 169 70.5 262t198.5 93q100 0 154 -49t61 -121l-64 -10q-20 124 -151 124q-199 0 -203 -315h18q16 48 66 85.5t125 37.5z
M1079 41q82 0 125 44t43 130q0 73 -41 114.5t-119 41.5q-88 0 -131 -49.5t-43 -118.5t39 -115.5t127 -46.5z" />
    <glyph glyph-name="oneeighth" unicode="&#x215b;" horiz-adv-x="1292" 
d="M6 0l1153 1444h82l-1153 -1444h-82zM430 760h-297v59h121v320h-121v59q83 0 102 19.5t19 99.5v96h65v-594h111v-59zM1083 377v-19q69 -10 112.5 -56.5t43.5 -127.5q0 -94 -64.5 -145.5t-193.5 -51.5q-121 0 -183.5 51.5t-62.5 145.5q0 77 44 125.5t104 58.5v19
q-123 28 -123 137q0 71 59 115.5t162 44.5q112 0 171.5 -44t59.5 -116q0 -109 -129 -137zM829 506q0 -49 37 -81t115 -32q86 0 124 31.5t38 81.5q0 112 -162 112q-74 0 -113 -30t-39 -82zM981 41q96 0 142 37.5t46 103.5q0 152 -188 152q-178 0 -178 -152q0 -66 44.5 -103.5
t133.5 -37.5z" />
    <glyph glyph-name="threeeighths" unicode="&#x215c;" 
d="M92 0l1153 1444h82l-1153 -1444h-82zM313 801q166 0 166 151q0 138 -168 138h-86v61h111q50 0 86.5 32.5t36.5 84.5q0 110 -148 110q-78 0 -119.5 -33.5t-46.5 -84.5l-71 8q9 72 72.5 119t166.5 47q102 0 159.5 -40.5t57.5 -117.5q0 -54 -39 -92t-100 -49v-17
q162 -24 162 -172q0 -98 -62.5 -153.5t-179.5 -55.5q-121 0 -185 48.5t-67 134.5l70 8q13 -127 184 -127zM1169 377v-19q69 -10 112.5 -56.5t43.5 -127.5q0 -94 -64.5 -145.5t-193.5 -51.5q-121 0 -183.5 51.5t-62.5 145.5q0 77 44 125.5t104 58.5v19q-123 28 -123 137
q0 71 59 115.5t162 44.5q112 0 171.5 -44t59.5 -116q0 -109 -129 -137zM915 506q0 -49 37 -81t115 -32q86 0 124 31.5t38 81.5q0 112 -162 112q-74 0 -113 -30t-39 -82zM1067 41q96 0 142 37.5t46 103.5q0 152 -188 152q-178 0 -178 -152q0 -66 44.5 -103.5t133.5 -37.5z
" />
    <glyph glyph-name="fiveeighths" unicode="&#x215d;" 
d="M92 0l1153 1444h82l-1153 -1444h-82zM305 799q82 0 127 50t45 142q0 79 -42 123.5t-120 44.5q-48 0 -84.5 -17.5t-54.5 -39.5l-90 33l31 278h401l2 -57h-344l-20 -199l16 -10q65 65 164 65q95 0 154 -56.5t59 -166.5q0 -120 -65 -186t-183 -66q-107 0 -168.5 49.5
t-69.5 124.5l64 11q9 -57 54 -90t124 -33zM1169 377v-19q69 -10 112.5 -56.5t43.5 -127.5q0 -94 -64.5 -145.5t-193.5 -51.5q-121 0 -183.5 51.5t-62.5 145.5q0 77 44 125.5t104 58.5v19q-123 28 -123 137q0 71 59 115.5t162 44.5q112 0 171.5 -44t59.5 -116
q0 -109 -129 -137zM915 506q0 -49 37 -81t115 -32q86 0 124 31.5t38 81.5q0 112 -162 112q-74 0 -113 -30t-39 -82zM1067 41q96 0 142 37.5t46 103.5q0 152 -188 152q-178 0 -178 -152q0 -66 44.5 -103.5t133.5 -37.5z" />
    <glyph glyph-name="seveneighths" unicode="&#x215e;" 
d="M92 0l1153 1444h82l-1153 -1444h-82zM260 760h-76q0 207 70.5 354.5t226.5 239.5h-413v59h469l8 -57q-154 -98 -219.5 -235.5t-65.5 -360.5zM1169 377v-19q69 -10 112.5 -56.5t43.5 -127.5q0 -94 -64.5 -145.5t-193.5 -51.5q-121 0 -183.5 51.5t-62.5 145.5
q0 77 44 125.5t104 58.5v19q-123 28 -123 137q0 71 59 115.5t162 44.5q112 0 171.5 -44t59.5 -116q0 -109 -129 -137zM915 506q0 -49 37 -81t115 -32q86 0 124 31.5t38 81.5q0 112 -162 112q-74 0 -113 -30t-39 -82zM1067 41q96 0 142 37.5t46 103.5q0 152 -188 152
q-178 0 -178 -152q0 -66 44.5 -103.5t133.5 -37.5z" />
    <glyph glyph-name="arrowleft" unicode="&#x2190;" horiz-adv-x="1468" 
d="M289 725l1087 -31v-61l-1087 -33l338 -436l-35 -35l-500 500v67l500 500l35 -37z" />
    <glyph glyph-name="arrowup" unicode="&#x2191;" horiz-adv-x="1251" 
d="M659 1352l500 -500l-35 -35l-436 338l-31 -1087h-61l-33 1087l-436 -338l-35 35l500 500h67z" />
    <glyph glyph-name="arrowright" unicode="&#x2192;" horiz-adv-x="1468" 
d="M842 1161l35 37l499 -500v-67l-499 -500l-35 35l340 436l-1090 31v59l1088 35z" />
    <glyph glyph-name="arrowdown" unicode="&#x2193;" horiz-adv-x="1251" 
d="M688 197l436 338l35 -35l-500 -500h-67l-500 500l35 35l436 -338l31 1087h61z" />
    <glyph glyph-name="arrowboth" unicode="&#x2194;" horiz-adv-x="1847" 
d="M1221 1128l34 35l500 -499v-68l-500 -500l-34 35l354 459h-1303l355 -459l-35 -35l-500 500v68l500 499l35 -35l-355 -458h1303z" />
    <glyph glyph-name="arrowupdn" unicode="&#x2195;" horiz-adv-x="1128" 
d="M618 170l390 303l28 -29l-438 -444h-68l-438 444l29 29l389 -303q20 515 0 1030l-389 -301l-29 29l438 444h68l438 -444l-28 -29l-390 301q-20 -516 0 -1030z" />
    <glyph glyph-name="uni2196" unicode="&#x2196;" horiz-adv-x="1136" 
d="M297 1253l750 -790l-43 -43l-795 745l-68 -547h-49v707l47 47h707v-51z" />
    <glyph glyph-name="uni2197" unicode="&#x2197;" horiz-adv-x="1136" 
d="M291 1372h706l47 -47v-707h-49l-67 549l-793 -749l-43 43l746 794l-547 68v49z" />
    <glyph glyph-name="uni2198" unicode="&#x2198;" horiz-adv-x="1136" 
d="M928 207l67 547h52v-707l-50 -47h-706v49l549 68l-748 792l43 43z" />
    <glyph glyph-name="uni2199" unicode="&#x2199;" horiz-adv-x="1136" 
d="M1001 954l43 -43l-745 -794l547 -68v-49h-707l-47 47v707h49l68 -549z" />
    <glyph glyph-name="product" unicode="&#x220f;" horiz-adv-x="2113" 
d="M1055 1528q286 0 489 -89.5t315.5 -278t112.5 -466.5q0 -209 -63.5 -368t-183.5 -261t-288 -153t-382 -51q-286 0 -489.5 89.5t-316 277.5t-112.5 466q0 209 63.5 368t183.5 261t288.5 153.5t382.5 51.5zM1055 -82q402 0 624 195t222 581t-222 581t-624 195
q-404 0 -626 -195t-222 -581t222 -581t626 -195zM834 506l-91 65l254 314l-391 106l35 107l379 -144l-23 404h113l-23 -406l379 146l35 -107l-391 -106l254 -314l-88 -65l-221 342zM1061 150q162 0 281.5 31.5t189.5 101t70 172.5h94q0 -99 -46 -172.5t-131.5 -118.5
t-199.5 -66.5t-258 -21.5q-146 0 -261.5 21.5t-201.5 66.5t-132 118.5t-46 172.5h98q0 -103 70.5 -172.5t190 -101t282.5 -31.5z" />
    <glyph glyph-name="minus" unicode="&#x2212;" horiz-adv-x="1009" 
d="M907 674h-805v82h805v-82z" />
    <glyph glyph-name="infinity" unicode="&#x221e;" horiz-adv-x="1597" 
d="M193 1343l471 -436l43 506h43v-618l-41 -41h-617v43l502 45l-434 471zM1434 1313l-433 -473l504 -45v-41h-618l-41 41v618h41l45 -506l471 436zM92 614v43h617l41 -41v-616h-43l-43 506l-469 -438l-31 32l432 471zM846 0v616l41 41h618v-43l-508 -43l439 -469l-31 -30
l-473 430l-45 -502h-41z" />
    <glyph glyph-name="approxequal" unicode="&#x2248;" horiz-adv-x="1064" 
d="M770 745q-56 0 -103.5 22t-79 54.5t-64.5 71t-60.5 71t-66 54.5t-81.5 22q-66 0 -103.5 -46t-37.5 -115q0 -18 4.5 -40t11 -43t7.5 -26h-56q-39 80 -39 145q0 92 65 152.5t157 60.5q65 0 119.5 -30.5t92.5 -73.5t73 -86t78 -73.5t91 -30.5q55 0 85 40t30 103
q0 37 -27 121h54q43 -75 43 -154q0 -89 -55.5 -144t-137.5 -55zM770 303q-48 0 -90 16t-72 42t-58 57t-53.5 62.5t-51.5 57.5t-59 42t-71 16q-67 0 -104 -45.5t-37 -114.5q0 -19 4.5 -40.5t11 -42t7.5 -25.5h-56q-39 80 -39 145q0 91 65 151t157 60q55 0 103 -21.5
t80.5 -54.5t66 -70.5t61 -70.5t65 -54.5t78.5 -21.5q55 0 85 40t30 101q0 37 -27 121h54q43 -72 43 -151q0 -89 -55.5 -144t-137.5 -55z" />
    <glyph glyph-name="notequal" unicode="&#x2260;" horiz-adv-x="1183" 
d="M907 899v-82h-293l-141 -203h434v-82h-491l-158 -225h-82l158 225h-232v82h289l144 203h-433v82h490l158 225h79l-157 -225h235z" />
    <glyph glyph-name="lessequal" unicode="&#x2264;" horiz-adv-x="804" 
d="M102 831l600 267v-90l-546 -228l546 -233v-90l-600 270v104zM702 291h-600v71h600v-71z" />
    <glyph glyph-name="greaterequal" unicode="&#x2265;" horiz-adv-x="804" 
d="M102 1008v90l600 -267v-104l-600 -270v90l547 233zM702 291h-600v71h600v-71z" />
    <glyph glyph-name="circle" unicode="&#x25cb;" horiz-adv-x="2107" 
d="M1055 -176q-286 0 -489.5 89.5t-316 277.5t-112.5 466q0 209 63.5 368t183.5 261t288.5 153.5t382.5 51.5q286 0 489 -89.5t315.5 -278t112.5 -466.5q0 -209 -63.5 -368t-183.5 -261t-288 -153t-382 -51zM1055 -119q402 0 624 195t222 581t-222 581.5t-624 195.5
q-266 0 -454 -83.5t-291 -259t-103 -434.5q0 -386 222 -581t626 -195z" />
    <glyph glyph-name="uniF8FF" unicode="&#xf8ff;" horiz-adv-x="1679" 
d="M856 1221h-33q-27 34 -174 204l17 15q138 -99 170 -109h8q32 10 170 109l18 -15q-118 -131 -176 -204zM840 -102q-172 0 -318.5 85t-231.5 231t-85 318q0 128 50.5 245t135.5 201.5t202.5 134.5t246.5 50t246.5 -50t202.5 -134.5t135.5 -201.5t50.5 -245
q0 -129 -50 -246.5t-135 -202.5t-202.5 -135t-247.5 -50zM827 88q122 0 198.5 67.5t76.5 174.5q0 58 -29.5 106.5t-73.5 80t-95.5 65t-95.5 62t-73.5 69.5t-29.5 88q0 57 39.5 93t101.5 36q71 0 111.5 -48.5t72.5 -172.5l19 2q0 131 20 258l-18 4q-1 -15 -16.5 -25
t-35.5 -10q-22 0 -69 9t-86 9q-101 0 -169.5 -55.5t-68.5 -138.5q0 -70 40.5 -126t98 -94t114.5 -74t97.5 -84.5t40.5 -107.5q0 -71 -42 -115t-109 -44q-82 0 -135.5 60t-53.5 151q0 55 23 106l-16 8q-82 -63 -82 -159q0 -85 69 -140t176 -55z" />
    <glyph glyph-name="J.ss01" horiz-adv-x="1226" 
d="M897 1413h109v-1016q0 -202 -115 -311t-330 -109q-203 0 -336 109.5t-164 296.5l95 29q30 -162 137.5 -250t267.5 -88q156 0 246 79t90 246v1014z" />
    <glyph glyph-name="Jcircumflex.ss01" horiz-adv-x="1226" 
d="M1014 1905l211 -357h-103l-164 299l-165 -299h-105l213 357h113zM897 1413h109v-1016q0 -202 -115 -311t-330 -109q-203 0 -336 109.5t-164 296.5l95 29q30 -162 137.5 -250t267.5 -88q156 0 246 79t90 246v1014z" />
    <glyph glyph-name="K.ss01" horiz-adv-x="1335" 
d="M1028 580l201 -580h-113l-178 510q-27 76 -56 114t-76 55t-128 17h-70l-276 -325v-371h-111v1413h111v-557q0 -198 -23 -373h41q83 150 232 328l505 602h132l-541 -637h61q48 0 85.5 -7t77.5 -26.5t72 -60.5t54 -102z" />
    <glyph glyph-name="uni0136.ss01" horiz-adv-x="1335" 
d="M1028 580l201 -580h-113l-178 510q-27 76 -56 114t-76 55t-128 17h-70l-276 -325v-371h-111v1413h111v-557q0 -198 -23 -373h41q83 150 232 328l505 602h132l-541 -637h61q48 0 85.5 -7t77.5 -26.5t72 -60.5t54 -102zM651 -74q86 0 86 -92q0 -88 -49 -173t-127 -116
l-37 107q56 14 111.5 56.5t69.5 96.5q-24 -24 -62 -24t-58 20t-20 52t22.5 52.5t63.5 20.5z" />
    <glyph glyph-name="a.ss01" horiz-adv-x="1251" 
d="M967 758l16 266h78v-1024h-78l-16 270h-31q-43 -139 -141.5 -215.5t-243.5 -77.5q-210 -1 -331.5 141.5t-121.5 389.5q0 264 124.5 401.5t328.5 137.5q142 0 238 -75.5t141 -213.5h37zM578 68q159 0 258.5 110.5t99.5 325.5q0 222 -97.5 338t-260.5 116
q-177 0 -274 -118.5t-97 -333.5q0 -212 98.5 -325t272.5 -113z" />
    <glyph glyph-name="aacute.ss01" horiz-adv-x="1251" 
d="M721 1516h133l-233 -357h-76zM967 758l16 266h78v-1024h-78l-16 270h-31q-43 -139 -141.5 -215.5t-243.5 -77.5q-210 -1 -331.5 141.5t-121.5 389.5q0 264 124.5 401.5t328.5 137.5q142 0 238 -75.5t141 -213.5h37zM578 68q159 0 258.5 110.5t99.5 325.5q0 222 -97.5 338
t-260.5 116q-177 0 -274 -118.5t-97 -333.5q0 -212 98.5 -325t272.5 -113z" />
    <glyph glyph-name="abreve.ss01" horiz-adv-x="1251" 
d="M608 1147q-276 0 -276 379h78q0 -154 50 -225.5t148 -71.5q99 0 149 71t50 226h76q0 -195 -72.5 -287t-202.5 -92zM967 758l16 266h78v-1024h-78l-16 270h-31q-43 -139 -141.5 -215.5t-243.5 -77.5q-210 -1 -331.5 141.5t-121.5 389.5q0 264 124.5 401.5t328.5 137.5
q142 0 238 -75.5t141 -213.5h37zM578 68q159 0 258.5 110.5t99.5 325.5q0 222 -97.5 338t-260.5 116q-177 0 -274 -118.5t-97 -333.5q0 -212 98.5 -325t272.5 -113z" />
    <glyph glyph-name="acircumflex.ss01" horiz-adv-x="1251" 
d="M774 1159l-164 299l-166 -299h-104l213 357h113l211 -357h-103zM967 758l16 266h78v-1024h-78l-16 270h-31q-43 -139 -141.5 -215.5t-243.5 -77.5q-210 -1 -331.5 141.5t-121.5 389.5q0 264 124.5 401.5t328.5 137.5q142 0 238 -75.5t141 -213.5h37zM578 68
q159 0 258.5 110.5t99.5 325.5q0 222 -97.5 338t-260.5 116q-177 0 -274 -118.5t-97 -333.5q0 -212 98.5 -325t272.5 -113z" />
    <glyph glyph-name="adieresis.ss01" horiz-adv-x="1251" 
d="M461 1239q-38 0 -58 21t-20 55q0 33 20 54.5t58 21.5q35 0 54.5 -22t19.5 -54q0 -34 -19 -55t-55 -21zM760 1239q-38 0 -57 21t-19 55q0 33 19 54.5t57 21.5q37 0 56.5 -21.5t19.5 -54.5q0 -34 -19.5 -55t-56.5 -21zM967 758l16 266h78v-1024h-78l-16 270h-31
q-43 -139 -141.5 -215.5t-243.5 -77.5q-210 -1 -331.5 141.5t-121.5 389.5q0 264 124.5 401.5t328.5 137.5q142 0 238 -75.5t141 -213.5h37zM578 68q159 0 258.5 110.5t99.5 325.5q0 222 -97.5 338t-260.5 116q-177 0 -274 -118.5t-97 -333.5q0 -212 98.5 -325t272.5 -113z
" />
    <glyph glyph-name="agrave.ss01" horiz-adv-x="1251" 
d="M496 1516l176 -357h-76l-236 357h136zM967 758l16 266h78v-1024h-78l-16 270h-31q-43 -139 -141.5 -215.5t-243.5 -77.5q-210 -1 -331.5 141.5t-121.5 389.5q0 264 124.5 401.5t328.5 137.5q142 0 238 -75.5t141 -213.5h37zM578 68q159 0 258.5 110.5t99.5 325.5
q0 222 -97.5 338t-260.5 116q-177 0 -274 -118.5t-97 -333.5q0 -212 98.5 -325t272.5 -113z" />
    <glyph glyph-name="amacron.ss01" horiz-adv-x="1251" 
d="M342 1315h559v-78h-559v78zM967 758l16 266h78v-1024h-78l-16 270h-31q-43 -139 -141.5 -215.5t-243.5 -77.5q-210 -1 -331.5 141.5t-121.5 389.5q0 264 124.5 401.5t328.5 137.5q142 0 238 -75.5t141 -213.5h37zM578 68q159 0 258.5 110.5t99.5 325.5q0 222 -97.5 338
t-260.5 116q-177 0 -274 -118.5t-97 -333.5q0 -212 98.5 -325t272.5 -113z" />
    <glyph glyph-name="aogonek.ss01" horiz-adv-x="1251" 
d="M907 -188q0 -58 41 -96.5t96 -50t107 -1.5v-70q-84 -17 -159 2.5t-121 71t-46 123.5q0 74 46.5 127.5t111.5 83.5l-16 268h-31q-43 -139 -141.5 -215.5t-243.5 -77.5q-210 -1 -331.5 141.5t-121.5 389.5q0 264 124.5 401.5t328.5 137.5q142 0 238 -75.5t141 -213.5h37
l16 266h78v-1024q-22 -8 -46.5 -23t-50 -37.5t-41.5 -56.5t-16 -71zM578 68q159 0 258.5 110.5t99.5 325.5q0 222 -97.5 338t-260.5 116q-177 0 -274 -118.5t-97 -333.5q0 -212 98.5 -325t272.5 -113z" />
    <glyph glyph-name="aring.ss01" horiz-adv-x="1251" 
d="M608 1157q-78 0 -124 46.5t-46 127.5q0 79 47.5 127.5t122.5 48.5q74 0 122 -48.5t48 -127.5q0 -81 -46 -127.5t-124 -46.5zM608 1448q-45 0 -72.5 -29t-27.5 -86q0 -114 100 -114q103 0 103 114q0 58 -27.5 86.5t-75.5 28.5zM967 758l16 266h78v-1024h-78l-16 270h-31
q-43 -139 -141.5 -215.5t-243.5 -77.5q-210 -1 -331.5 141.5t-121.5 389.5q0 264 124.5 401.5t328.5 137.5q142 0 238 -75.5t141 -213.5h37zM578 68q159 0 258.5 110.5t99.5 325.5q0 222 -97.5 338t-260.5 116q-177 0 -274 -118.5t-97 -333.5q0 -212 98.5 -325t272.5 -113z
" />
    <glyph glyph-name="atilde.ss01" horiz-adv-x="1251" 
d="M391 1194l-63 10q-10 92 37 173t133 81q36 0 65.5 -18.5t49.5 -45t38 -53t40 -45t48 -18.5q89 0 80 180l62 -14q8 -59 -2.5 -114t-46.5 -95.5t-93 -40.5q-38 0 -68 18.5t-49 44.5t-36.5 52t-40 44.5t-49.5 18.5q-40 0 -65.5 -32t-33 -69.5t-6.5 -76.5zM967 758l16 266h78
v-1024h-78l-16 270h-31q-43 -139 -141.5 -215.5t-243.5 -77.5q-210 -1 -331.5 141.5t-121.5 389.5q0 264 124.5 401.5t328.5 137.5q142 0 238 -75.5t141 -213.5h37zM578 68q159 0 258.5 110.5t99.5 325.5q0 222 -97.5 338t-260.5 116q-177 0 -274 -118.5t-97 -333.5
q0 -212 98.5 -325t272.5 -113z" />
    <glyph glyph-name="g.ss01" horiz-adv-x="1251" 
d="M967 758l16 266h78v-997q0 -98 -26.5 -178.5t-81 -145t-149 -100t-220.5 -35.5q-104 0 -191 30.5t-141.5 79t-87.5 100.5t-43 103l82 41q12 -46 42.5 -91t77 -84.5t116 -64t149.5 -24.5q183 0 276.5 90t93.5 260q0 146 15 277h-33q-41 -145 -139 -226t-246 -82
q-213 -1 -335 141.5t-122 389.5q0 265 124.5 402t330.5 137q142 0 237.5 -75.5t139.5 -213.5h37zM582 68q156 0 255 111t99 325q0 222 -97.5 338t-260.5 116q-177 0 -274 -118.5t-97 -333.5q0 -213 99 -325.5t276 -112.5z" />
    <glyph glyph-name="gbreve.ss01" horiz-adv-x="1251" 
d="M627 1147q-132 0 -204.5 92t-72.5 287h78q0 -297 199 -297q99 0 148.5 71t49.5 226h76q0 -195 -72 -287t-202 -92zM967 758l16 266h78v-997q0 -98 -26.5 -178.5t-81 -145t-149 -100t-220.5 -35.5q-104 0 -191 30.5t-141.5 79t-87.5 100.5t-43 103l82 41q12 -46 42.5 -91
t77 -84.5t116 -64t149.5 -24.5q183 0 276.5 90t93.5 260q0 146 15 277h-33q-41 -145 -139 -226t-246 -82q-213 -1 -335 141.5t-122 389.5q0 265 124.5 402t330.5 137q142 0 237.5 -75.5t139.5 -213.5h37zM582 68q156 0 255 111t99 325q0 222 -97.5 338t-260.5 116
q-177 0 -274 -118.5t-97 -333.5q0 -213 99 -325.5t276 -112.5z" />
    <glyph glyph-name="gcircumflex.ss01" horiz-adv-x="1251" 
d="M793 1159l-164 299l-166 -299h-105l213 357h113l211 -357h-102zM967 758l16 266h78v-997q0 -98 -26.5 -178.5t-81 -145t-149 -100t-220.5 -35.5q-104 0 -191 30.5t-141.5 79t-87.5 100.5t-43 103l82 41q12 -46 42.5 -91t77 -84.5t116 -64t149.5 -24.5q183 0 276.5 90
t93.5 260q0 146 15 277h-33q-41 -145 -139 -226t-246 -82q-213 -1 -335 141.5t-122 389.5q0 265 124.5 402t330.5 137q142 0 237.5 -75.5t139.5 -213.5h37zM582 68q156 0 255 111t99 325q0 222 -97.5 338t-260.5 116q-177 0 -274 -118.5t-97 -333.5q0 -213 99 -325.5
t276 -112.5z" />
    <glyph glyph-name="uni0123.ss01" horiz-adv-x="1251" 
d="M625 1157q-44 0 -68.5 24t-24.5 64q0 62 48 129t104 99l51 -72q-39 -13 -95 -56.5t-67 -80.5q24 12 56 12q36 0 56 -16t20 -41q0 -27 -21 -44.5t-59 -17.5zM967 758l16 266h78v-997q0 -98 -26.5 -178.5t-81 -145t-149 -100t-220.5 -35.5q-104 0 -191 30.5t-141.5 79
t-87.5 100.5t-43 103l82 41q12 -46 42.5 -91t77 -84.5t116 -64t149.5 -24.5q183 0 276.5 90t93.5 260q0 146 15 277h-33q-41 -145 -139 -226t-246 -82q-213 -1 -335 141.5t-122 389.5q0 265 124.5 402t330.5 137q142 0 237.5 -75.5t139.5 -213.5h37zM582 68q156 0 255 111
t99 325q0 222 -97.5 338t-260.5 116q-177 0 -274 -118.5t-97 -333.5q0 -213 99 -325.5t276 -112.5z" />
    <glyph glyph-name="gdotaccent.ss01" horiz-adv-x="1251" 
d="M627 1237q-38 0 -58 22t-20 58q0 33 20 54.5t58 21.5q36 0 55.5 -21.5t19.5 -54.5q0 -36 -19 -58t-56 -22zM967 758l16 266h78v-997q0 -98 -26.5 -178.5t-81 -145t-149 -100t-220.5 -35.5q-104 0 -191 30.5t-141.5 79t-87.5 100.5t-43 103l82 41q12 -46 42.5 -91
t77 -84.5t116 -64t149.5 -24.5q183 0 276.5 90t93.5 260q0 146 15 277h-33q-41 -145 -139 -226t-246 -82q-213 -1 -335 141.5t-122 389.5q0 265 124.5 402t330.5 137q142 0 237.5 -75.5t139.5 -213.5h37zM582 68q156 0 255 111t99 325q0 222 -97.5 338t-260.5 116
q-177 0 -274 -118.5t-97 -333.5q0 -213 99 -325.5t276 -112.5z" />
    <glyph glyph-name="l.ss01" horiz-adv-x="485" 
d="M295 0h-105v1444h105v-1444z" />
    <glyph glyph-name="lacute.ss01" horiz-adv-x="485" 
d="M256 1579h-76l176 356h133zM295 0h-105v1444h105v-1444z" />
    <glyph glyph-name="lcaron.ss01" horiz-adv-x="595" 
d="M528 1536q40 0 63 -27.5t23 -81.5q0 -87 -40.5 -167t-100.5 -123l-59 104q50 21 96.5 60.5t62.5 89.5q-29 -19 -53 -19q-38 0 -58 23t-20 57q0 36 22.5 60t63.5 24zM295 0h-105v1444h105v-1444z" />
    <glyph glyph-name="uni013C.ss01" horiz-adv-x="485" 
d="M190 1444h105v-1444h-105v1444zM238 -74q86 0 86 -92q0 -88 -49 -173t-128 -116l-36 107q56 14 111 56.5t69 96.5q-24 -24 -62 -24t-57.5 20t-19.5 52t22.5 52.5t63.5 20.5z" />
    <glyph glyph-name="ldot.ss01" horiz-adv-x="673" 
d="M295 0h-105v1444h105v-1444zM598 457q-36 0 -58 23t-22 57t22 56.5t58 22.5q38 0 60 -22t22 -57t-22.5 -57.5t-59.5 -22.5z" />
    <glyph glyph-name="lslash.ss01" horiz-adv-x="485" 
d="M295 823l180 82v-86l-180 -82v-737h-105v690l-172 -78v86l172 78v668h105v-621z" />
    <glyph glyph-name="fl.ss01" horiz-adv-x="1216" 
d="M631 1466q232 0 395 -104v-1362h-104v1319q-111 59 -283 59q-146 0 -219.5 -53t-73.5 -166v-135h416v-80h-416v-944h-102v944h-183v80h183v121q0 156 99 238.5t288 82.5z" />
    <glyph glyph-name="zero.osf" horiz-adv-x="1112" 
d="M555 -23q-467 0 -467 594q0 128 27 232.5t82 184.5t146 124.5t212 44.5t212 -44.5t146 -124.5t82 -184.5t27 -232.5q0 -594 -467 -594zM555 72q184 0 274.5 129.5t90.5 367.5q0 233 -92.5 365.5t-272.5 132.5q-179 0 -272 -132.5t-93 -365.5q0 -238 91 -367.5t274 -129.5
z" />
    <glyph glyph-name="one.osf" horiz-adv-x="948" 
d="M549 1135v-1041h323v-94h-755v94h329v531h-329v84q151 0 218.5 13.5t89 44.5t21.5 101v267h103z" />
    <glyph glyph-name="two.osf" horiz-adv-x="1118" 
d="M594 430q-180 -42 -287 -130t-114 -206h833v-94h-936v39q0 191 108 301.5t332 167.5q106 28 173.5 53.5t122.5 63t79.5 88.5t24.5 121q0 108 -83.5 170.5t-246.5 62.5q-166 0 -266 -79.5t-123 -239.5l-92 22q18 184 148 285.5t333 101.5q199 0 314.5 -84t115.5 -242
q0 -163 -109 -256t-327 -145z" />
    <glyph glyph-name="three.osf" horiz-adv-x="1112" 
d="M739 535v-39q57 -11 105.5 -35t92 -65.5t68.5 -109t25 -153.5q0 -208 -121.5 -327t-345.5 -119q-227 0 -351.5 106t-129.5 273l96 20q11 -144 107.5 -224.5t281.5 -80.5q184 0 274.5 97t90.5 267q0 82 -29 144t-80.5 97.5t-114.5 53t-137 17.5h-180v92h232
q103 0 183.5 72.5t80.5 183.5q0 123 -80.5 192.5t-239.5 69.5q-166 0 -258.5 -79.5t-103.5 -196.5l-92 18q6 146 129.5 247t326.5 101q194 0 304 -88.5t110 -241.5q0 -113 -65.5 -191t-178.5 -101z" />
    <glyph glyph-name="four.osf" horiz-adv-x="1112" 
d="M928 154h129v-95h-129v-352h-103v352h-733l-31 97l721 979h146v-981zM825 1055l-653 -901h653v901z" />
    <glyph glyph-name="five.osf" horiz-adv-x="1112" 
d="M598 694q204 0 321 -130t117 -355q0 -246 -130 -384t-359 -138q-92 0 -169 20.5t-131 55.5t-92.5 82t-57.5 99t-21 107l88 27q20 -142 115 -221.5t274 -79.5q192 0 288.5 116.5t96.5 317.5q0 182 -96.5 288.5t-276.5 106.5q-103 0 -186.5 -37t-134.5 -84l-113 56l68 594
h772l2 -93h-694l-50 -473l29 -12q37 29 59.5 45t68 41.5t98.5 38t114 12.5z" />
    <glyph glyph-name="six.osf" horiz-adv-x="1112" 
d="M602 901q204 0 319 -114.5t115 -311.5q0 -235 -128 -366.5t-343 -131.5q-261 0 -374 177t-113 538q0 350 139.5 548t384.5 198q100 0 179.5 -30t128.5 -81.5t77 -114t33 -133.5l-90 -18q-23 137 -103.5 212t-222.5 75q-424 0 -432 -697h39q33 103 134 176.5t257 73.5z
M571 72q171 0 269 104t98 295q0 163 -93 255.5t-257 92.5q-96 0 -172.5 -30.5t-123.5 -82.5t-71 -117.5t-24 -139.5q0 -58 12.5 -111t40.5 -102t70.5 -85t106.5 -57.5t144 -21.5z" />
    <glyph glyph-name="seven.osf" horiz-adv-x="1112" 
d="M76 1098h942l18 -86q-132 -85 -233 -194.5t-167 -233.5t-108 -273.5t-59.5 -304.5t-17.5 -336h-119q0 155 17 299.5t59.5 298t108 284t170.5 250t239 204.5h-850v92z" />
    <glyph glyph-name="eight.osf" horiz-adv-x="1112" 
d="M737 811v-37q140 -18 225 -115.5t85 -265.5q0 -192 -125.5 -304t-376.5 -112q-236 0 -357.5 112.5t-121.5 303.5q0 158 86 262t200 119v39q-120 28 -176.5 98t-56.5 189q0 144 112.5 240t313.5 96q215 0 331.5 -96t116.5 -240q0 -122 -61.5 -192.5t-194.5 -96.5z
M223 1087q0 -262 322 -262q344 0 344 262q0 116 -85.5 187.5t-258.5 71.5q-158 0 -240 -72t-82 -187zM545 72q401 0 401 336q0 159 -97.5 247t-303.5 88q-188 0 -283.5 -88.5t-95.5 -246.5q0 -336 379 -336z" />
    <glyph glyph-name="nine.osf" horiz-adv-x="1112" 
d="M547 1149q258 0 372.5 -174t114.5 -531q0 -224 -56.5 -395t-176 -272t-289.5 -99q-103 1 -183 31t-130 82.5t-78 118t-33 141.5l92 19q20 -144 104.5 -221.5t227.5 -77.5q420 0 428 714h-39q-15 -48 -46.5 -91.5t-78.5 -81.5t-116 -60.5t-150 -22.5q-203 0 -318.5 117
t-115.5 316q0 229 131 358t340 129zM524 313q96 0 172.5 30.5t122.5 82t70 116t24 136.5q0 71 -20.5 135.5t-62 120.5t-116.5 89.5t-173 33.5q-166 0 -265.5 -101.5t-99.5 -287.5q0 -166 92 -260.5t256 -94.5z" />
    <glyph glyph-name="zero.ss01" horiz-adv-x="2107" 
d="M1055 -176q-286 0 -489.5 89.5t-316 277.5t-112.5 466q0 209 63.5 368t183.5 261t288.5 153.5t382.5 51.5q286 0 489 -89.5t315.5 -278t112.5 -466.5q0 -209 -63.5 -368t-183.5 -261t-288 -153t-382 -51zM1055 -119q402 0 624 195t222 581t-222 581.5t-624 195.5
q-266 0 -454 -83.5t-291 -259t-103 -434.5q0 -386 222 -581t626 -195zM1055 78q-126 0 -217.5 43t-145.5 124t-79 186t-25 239q0 128 27 232.5t82 184.5t146 124t212 44t212 -44t146 -124t82 -184.5t27 -232.5q0 -134 -25 -239t-79 -186t-145.5 -124t-217.5 -43zM1055 172
q184 0 274 129t90 367q0 235 -92 367t-272 132q-179 0 -272 -132.5t-93 -366.5q0 -238 91 -367t274 -129z" />
    <glyph glyph-name="one.ss01" horiz-adv-x="2107" 
d="M1055 1491q286 0 489 -89.5t315.5 -278t112.5 -466.5q0 -209 -63.5 -368t-183.5 -261t-288 -153t-382 -51q-286 0 -489.5 89.5t-316 277.5t-112.5 466q0 209 63.5 368t183.5 261t288.5 153.5t382.5 51.5zM1055 -119q402 0 624 195t222 581t-222 581.5t-624 195.5
q-266 0 -454 -83.5t-291 -259t-103 -434.5q0 -386 222 -581t626 -195zM1036 965v266h103v-1135h-103v625h-329v84q92 0 148 4.5t94.5 13.5t56 29.5t24 45t6.5 67.5z" />
    <glyph glyph-name="two.ss01" horiz-adv-x="2107" 
d="M1055 1491q286 0 489 -89.5t315.5 -278t112.5 -466.5q0 -209 -63.5 -368t-183.5 -261t-288 -153t-382 -51q-286 0 -489.5 89.5t-316 277.5t-112.5 466q0 209 63.5 368t183.5 261t288.5 153.5t382.5 51.5zM1055 -119q402 0 624 195t222 581t-222 581.5t-624 195.5
q-266 0 -454 -83.5t-291 -259t-103 -434.5q0 -386 222 -581t626 -195zM1065 526q-180 -42 -287 -130t-114 -206h833v-94h-936v39q0 191 108 301.5t332 167.5q106 28 173.5 53.5t122.5 63t79.5 88.5t24.5 121q0 108 -83.5 170.5t-246.5 62.5q-166 0 -266 -79.5t-123 -239.5
l-92 22q18 184 148 285.5t333 101.5q200 0 315 -83.5t115 -241.5q0 -163 -109.5 -256.5t-326.5 -145.5z" />
    <glyph glyph-name="three.ss01" horiz-adv-x="2107" 
d="M1055 1491q286 0 489 -89.5t315.5 -278t112.5 -466.5q0 -209 -63.5 -368t-183.5 -261t-288 -153t-382 -51q-286 0 -489.5 89.5t-316 277.5t-112.5 466q0 209 63.5 368t183.5 261t288.5 153.5t382.5 51.5zM1055 -119q402 0 624 195t222 581t-222 581.5t-624 195.5
q-266 0 -454 -83.5t-291 -259t-103 -434.5q0 -386 222 -581t626 -195zM1229 735v-33q58 -7 106 -24.5t91.5 -49t68.5 -86t25 -126.5q0 -171 -119 -257.5t-346 -86.5q-229 0 -353.5 105.5t-130.5 273.5l97 20q12 -145 108 -225t281 -80q188 0 275 64t87 198q0 234 -329 234
h-207v94h229q53 0 97.5 9.5t83.5 30t61 59.5t22 93q0 105 -79.5 160t-239.5 55q-167 0 -259.5 -79.5t-103.5 -196.5l-92 18q8 146 131.5 247t325.5 101q196 0 305 -74t109 -210q0 -208 -244 -234z" />
    <glyph glyph-name="four.ss01" horiz-adv-x="2107" 
d="M1055 1491q286 0 489 -89.5t315.5 -278t112.5 -466.5q0 -209 -63.5 -368t-183.5 -261t-288 -153t-382 -51q-286 0 -489.5 89.5t-316 277.5t-112.5 466q0 209 63.5 368t183.5 261t288.5 153.5t382.5 51.5zM1055 -119q402 0 624 195t222 581t-222 581.5t-624 195.5
q-266 0 -454 -83.5t-291 -259t-103 -434.5q0 -386 222 -581t626 -195zM1329 1229v-844h191v-94h-191v-195h-102v195h-727l-31 96l715 842h145zM1227 1159l-645 -774h645v774z" />
    <glyph glyph-name="five.ss01" horiz-adv-x="2107" 
d="M1055 1491q286 0 489 -89.5t315.5 -278t112.5 -466.5q0 -209 -63.5 -368t-183.5 -261t-288 -153t-382 -51q-286 0 -489.5 89.5t-316 277.5t-112.5 466q0 209 63.5 368t183.5 261t288.5 153.5t382.5 51.5zM1055 -119q402 0 624 195t222 581t-222 581.5t-624 195.5
q-266 0 -454 -83.5t-291 -259t-103 -434.5q0 -386 222 -581t626 -195zM1106 874q189 0 299.5 -102.5t110.5 -282.5q0 -206 -126.5 -311.5t-355.5 -105.5q-116 0 -208.5 31t-149 84t-87 116.5t-34.5 134.5l92 25q42 -299 393 -299q189 0 282 84t93 244q0 139 -88 215.5
t-254 76.5q-123 0 -211.5 -36t-136.5 -82l-115 55l68 508h772l2 -92h-694l-47 -387l28 -13q33 27 58.5 44.5t73 42t107 37.5t128.5 13z" />
    <glyph glyph-name="six.ss01" horiz-adv-x="2107" 
d="M1053 1491q286 0 489 -89.5t315.5 -278t112.5 -466.5q0 -209 -63.5 -368t-183.5 -261t-288 -153t-382 -51q-286 0 -489.5 89.5t-316 277.5t-112.5 466q0 209 63.5 368t183.5 261t288.5 153.5t382.5 51.5zM1053 -119q404 0 626 195t222 581q0 259 -103 434.5t-291 259
t-454 83.5q-402 0 -624 -195.5t-222 -581.5t222 -581t624 -195zM1090 840q202 0 316 -98t114 -269q0 -194 -129 -297.5t-342 -103.5q-242 0 -365 130t-123 406q0 297 134 471t376 174q104 0 187 -29.5t134 -79.5t79.5 -110.5t33.5 -128.5l-90 -18q-23 131 -107 203.5
t-233 72.5q-98 0 -174 -36.5t-121 -93t-73.5 -135t-39.5 -152t-12 -154.5h31q31 107 132.5 177.5t271.5 70.5zM1055 166q104 0 185 33t130 103.5t49 168.5q0 138 -92 212.5t-256 74.5q-180 0 -285.5 -79t-105.5 -220q0 -125 97 -209t278 -84z" />
    <glyph glyph-name="seven.ss01" horiz-adv-x="2107" 
d="M1055 1491q286 0 489 -89.5t315.5 -278t112.5 -466.5q0 -209 -63.5 -368t-183.5 -261t-288 -153t-382 -51q-286 0 -489.5 89.5t-316 277.5t-112.5 466q0 209 63.5 368t183.5 261t288.5 153.5t382.5 51.5zM1055 -119q402 0 624 195t222 581t-222 581.5t-624 195.5
q-266 0 -454 -83.5t-291 -259t-103 -434.5q0 -386 222 -581t626 -195zM588 1137v92h915l19 -86q-161 -88 -274.5 -199t-180 -244.5t-96 -280t-29.5 -323.5h-115q-1 115 15.5 224.5t58 227.5t106 220.5t167.5 199.5t235 169h-821z" />
    <glyph glyph-name="eight.ss01" horiz-adv-x="2107" 
d="M1055 1491q286 0 489 -89.5t315.5 -278t112.5 -466.5q0 -209 -63.5 -368t-183.5 -261t-288 -153t-382 -51q-286 0 -489.5 89.5t-316 277.5t-112.5 466q0 209 63.5 368t183.5 261t288.5 153.5t382.5 51.5zM1055 -119q402 0 624 195t222 581t-222 581.5t-624 195.5
q-266 0 -454 -83.5t-291 -259t-103 -434.5q0 -386 222 -581t626 -195zM1237 737v-28q140 -18 223.5 -92t83.5 -203q0 -155 -125.5 -248.5t-374.5 -93.5q-235 0 -358 94t-123 248q0 122 86.5 201t202.5 94v30q-236 44 -236 226q0 125 113 206.5t315 81.5q215 0 331 -81
t116 -207q0 -93 -60 -149t-194 -79zM723 954q0 -194 321 -194q340 0 340 194q0 97 -83.5 153t-256.5 56q-160 0 -240.5 -56.5t-80.5 -152.5zM1044 166q398 0 398 262q0 118 -97 184t-301 66q-188 0 -283 -66t-95 -184q0 -262 378 -262z" />
    <glyph glyph-name="nine.ss01" horiz-adv-x="2107" 
d="M1055 1491q286 0 489 -89.5t315.5 -278t112.5 -466.5q0 -209 -63.5 -368t-183.5 -261t-288 -153t-382 -51q-286 0 -489.5 89.5t-316 277.5t-112.5 466q0 209 63.5 368t183.5 261t288.5 153.5t382.5 51.5zM1055 -119q402 0 624 195t222 581t-222 581.5t-624 195.5
q-266 0 -454 -83.5t-291 -259t-103 -434.5q0 -386 222 -581t626 -195zM1044 1253q235 0 362.5 -137t127.5 -403q0 -299 -132.5 -470t-379.5 -171q-104 0 -186.5 28.5t-133.5 77t-80 108.5t-34 128l92 20q21 -130 105.5 -200t234.5 -70q100 0 176 36t120 91.5t72.5 134
t38.5 150.5t11 155h-31q-20 -69 -64.5 -123t-131.5 -91.5t-205 -37.5q-205 0 -319 95.5t-114 271.5q0 186 131 296.5t340 110.5zM1022 563q182 0 286.5 79t104.5 220q0 118 -100 207.5t-275 89.5q-156 0 -260 -85.5t-104 -225.5t91 -212.5t257 -72.5z" />
    <glyph glyph-name="zero.tf" horiz-adv-x="1112" 
d="M555 -23q-252 0 -359.5 177t-107.5 553q0 364 112 546.5t355 182.5t355 -182.5t112 -546.5q0 -376 -107.5 -553t-359.5 -177zM555 72q128 0 206.5 60.5t118.5 200.5t40 372q0 340 -89 490.5t-276 150.5q-186 0 -274 -150.5t-88 -490.5q0 -233 39 -372t117 -200t206 -61z
" />
    <glyph glyph-name="one.tf" horiz-adv-x="1118" 
d="M612 1413v-1319h408v-94h-922v94h412v867h-412v83q77 0 130.5 1.5t99 6.5t73.5 10t50 18t32.5 25.5t17 36t8 45t1.5 58.5v168h102z" />
    <glyph glyph-name="two.tf" horiz-adv-x="1118" 
d="M188 78l529 16l319 -37l-612 -57h-334l6 41l-6 -2q0 102 24 190.5t75.5 168t140.5 141.5t211 100q210 67 299.5 156t89.5 243q0 130 -88.5 219t-245.5 89q-162 0 -262 -88.5t-123 -251.5l-90 22q19 191 146.5 299.5t326.5 108.5q195 0 315.5 -110t120.5 -290
q0 -178 -103.5 -292t-316.5 -179q-417 -127 -417 -485z" />
    <glyph glyph-name="three.tf" horiz-adv-x="1118" 
d="M741 811v-37q57 -10 105.5 -33t92 -63.5t68.5 -107t25 -152.5q0 -208 -120.5 -324.5t-344.5 -116.5q-228 0 -352.5 106.5t-130.5 274.5l96 19q12 -145 108 -225t281 -80q184 0 274.5 95t90.5 263q0 66 -19 118.5t-52 87t-79.5 57.5t-98.5 32.5t-112 9.5h-178v92h230
q104 0 183 72.5t79 183.5q0 124 -79.5 193.5t-238.5 69.5q-166 0 -258.5 -80t-103.5 -197l-92 18q8 146 131.5 247.5t324.5 101.5q194 0 304 -88.5t110 -241.5q0 -114 -65 -192t-179 -103z" />
    <glyph glyph-name="four.tf" horiz-adv-x="1118" 
d="M932 412h129v-95h-129v-317h-103v317h-733l-33 97l723 999h146v-1001zM829 1333l-653 -921h653v921z" />
    <glyph glyph-name="five.tf" horiz-adv-x="1118" 
d="M602 973q205 0 321.5 -124t116.5 -347q0 -246 -130 -385.5t-359 -139.5q-114 0 -205 31.5t-147 84t-86.5 117t-34.5 134.5l90 25q18 -140 114 -219.5t275 -79.5q191 0 286 116t95 318q0 179 -94 280t-275 101q-105 0 -188.5 -37t-132.5 -84l-115 55l68 594h774l2 -92
h-694l-50 -473l29 -12q30 24 45 35.5t52 34.5t68 35t78 22t97 10z" />
    <glyph glyph-name="six.tf" horiz-adv-x="1118" 
d="M606 901q204 0 319 -114.5t115 -311.5q0 -235 -128 -366.5t-343 -131.5q-262 0 -375.5 177t-113.5 538q0 350 139.5 548t384.5 198q100 0 179.5 -30t129.5 -81.5t78 -114t33 -133.5l-92 -18q-21 136 -102 211.5t-222 75.5q-424 0 -432 -697h39q33 103 134 176.5t257 73.5
zM575 72q170 0 267.5 104t97.5 295q0 163 -92 255.5t-256 92.5q-96 0 -172.5 -30.5t-123.5 -82.5t-71 -117.5t-24 -139.5q0 -58 12.5 -111t40.5 -102t70.5 -85t106.5 -57.5t144 -21.5z" />
    <glyph glyph-name="seven.tf" horiz-adv-x="1118" 
d="M78 1413h942l20 -86q-165 -105 -281 -245t-182.5 -310.5t-96 -358t-29.5 -413.5h-115q0 154 17 297t59.5 294.5t108 280.5t170 247t239.5 202h-852v92z" />
    <glyph glyph-name="eight.tf" horiz-adv-x="1118" 
d="M741 811v-37q139 -18 224.5 -115.5t85.5 -265.5q0 -192 -125.5 -304t-376.5 -112q-236 0 -358.5 112.5t-122.5 303.5q0 158 87 262t201 119v39q-120 28 -177.5 98t-57.5 189q0 143 113.5 239.5t314.5 96.5q215 0 331.5 -96t116.5 -240q0 -122 -61.5 -192.5t-194.5 -96.5z
M229 1087q0 -262 320 -262q342 0 342 262q0 116 -85 187.5t-257 71.5q-157 0 -238.5 -72t-81.5 -187zM549 72q397 0 397 336q0 159 -96 247t-301 88q-189 0 -283 -88.5t-94 -246.5q0 -336 377 -336z" />
    <glyph glyph-name="nine.tf" horiz-adv-x="1118" 
d="M551 1438q258 0 372.5 -174t114.5 -531q0 -167 -33 -304.5t-96.5 -239.5t-164 -157.5t-228.5 -54.5q-200 3 -306.5 108t-117.5 265l90 21q22 -145 105.5 -222t226.5 -77q420 0 428 704h-39q-15 -48 -45.5 -92t-77.5 -82t-116 -61t-150 -23q-204 0 -319 117t-115 317
q0 228 131.5 357t339.5 129zM528 602q96 0 172 30.5t122 82.5t69.5 117t23.5 137q0 56 -12 108t-40 101.5t-69.5 86t-105.5 59t-143 22.5q-166 0 -266.5 -102t-100.5 -288q0 -166 93 -260t257 -94z" />
    <glyph glyph-name="zero.dnom" horiz-adv-x="612" 
d="M307 -23q-124 0 -179.5 85.5t-55.5 265.5q0 346 235 346q234 0 234 -346q0 -180 -55 -265.5t-179 -85.5zM307 41q85 0 123.5 63.5t38.5 221.5q0 155 -39 221.5t-123 66.5t-124 -66.5t-40 -221.5q0 -158 38.5 -221.5t125.5 -63.5z" />
    <glyph glyph-name="one.dnom" horiz-adv-x="489" 
d="M283 653v-594h110v-59h-297v59h121v320h-121v59q83 0 102 19.5t19 99.5v96h66z" />
    <glyph glyph-name="two.dnom" horiz-adv-x="612" 
d="M145 53l230 6l166 -24l-297 -35h-172l2 27h-2q0 112 50.5 179.5t164.5 100.5q96 29 138 72t42 108q0 54 -36.5 91.5t-108.5 37.5q-70 0 -115.5 -41t-54.5 -114l-66 10q9 94 75 148.5t163 54.5q99 0 157 -51t58 -138q0 -162 -217 -227q-99 -29 -138 -78t-39 -127z" />
    <glyph glyph-name="three.dnom" horiz-adv-x="612" 
d="M391 375v-17q162 -24 162 -172q0 -98 -62.5 -153.5t-179.5 -55.5q-121 0 -185 48.5t-67 134.5l70 8q13 -127 184 -127q86 0 126 40.5t40 111.5q0 137 -168 137h-86v61h111q50 0 86.5 32.5t36.5 84.5q0 110 -148 110q-78 0 -119.5 -33.5t-46.5 -84.5l-71 8q9 72 72.5 119
t166.5 47q102 0 159.5 -40.5t57.5 -117.5q0 -54 -39 -92t-100 -49z" />
    <glyph glyph-name="four.dnom" horiz-adv-x="612" 
d="M483 195h82v-60h-82v-135h-65v135h-352l-17 62l346 456h88v-458zM418 598l-297 -403h297v403z" />
    <glyph glyph-name="five.dnom" horiz-adv-x="612" 
d="M336 453q95 0 154 -57t59 -167q0 -120 -65 -186t-183 -66q-107 0 -168.5 50t-69.5 125l64 10q9 -57 54 -90t124 -33q82 0 127 50t45 142q0 79 -42 123.5t-120 44.5q-48 0 -84.5 -17.5t-54.5 -39.5l-90 33l31 278h401l2 -57h-344l-20 -199l16 -10q66 66 164 66z" />
    <glyph glyph-name="six.dnom" horiz-adv-x="612" 
d="M336 426q101 0 158 -56t57 -155q0 -113 -63.5 -175.5t-174.5 -62.5q-133 1 -192.5 85.5t-59.5 256.5q0 169 70.5 262t198.5 93q100 0 154 -49t61 -121l-64 -10q-20 124 -151 124q-199 0 -203 -315h18q16 48 66 85.5t125 37.5zM313 41q82 0 125 44t43 130
q0 73 -40.5 114.5t-118.5 41.5q-88 0 -131.5 -49.5t-43.5 -118.5t39 -115.5t127 -46.5z" />
    <glyph glyph-name="seven.dnom" horiz-adv-x="612" 
d="M68 653h469l8 -57q-154 -98 -219.5 -235.5t-65.5 -360.5h-76q0 207 70.5 354.5t226.5 239.5h-413v59z" />
    <glyph glyph-name="eight.dnom" horiz-adv-x="612" 
d="M403 377v-19q69 -10 112.5 -56.5t43.5 -127.5q0 -94 -64.5 -145.5t-193.5 -51.5q-121 0 -183.5 51.5t-62.5 145.5q0 77 44 125.5t104 58.5v19q-123 28 -123 137q0 71 59 115.5t162 44.5q112 0 171.5 -44t59.5 -116q0 -109 -129 -137zM150 506q0 -49 36.5 -81t114.5 -32
q86 0 124 31.5t38 81.5q0 112 -162 112q-74 0 -112.5 -30t-38.5 -82zM301 41q96 0 142 37.5t46 103.5q0 152 -188 152q-178 0 -178 -152q0 -66 44.5 -103.5t133.5 -37.5z" />
    <glyph glyph-name="nine.dnom" horiz-adv-x="612" 
d="M299 674q133 -1 192.5 -85t59.5 -255q0 -170 -70 -263.5t-198 -93.5q-100 0 -154 49t-61 121l65 11q20 -119 150 -119q58 0 98.5 23.5t62 68t31 96.5t10.5 121h-18q-17 -49 -67.5 -86t-123.5 -37q-101 0 -158 58t-57 157q0 112 65 174t173 60zM291 283q87 0 129.5 49.5
t42.5 118.5q0 70 -40 118.5t-124 48.5q-78 0 -123 -46.5t-45 -129.5q0 -75 41 -117t119 -42z" />
    <glyph glyph-name="one.numr" horiz-adv-x="489" 
d="M283 1413v-594h110v-59h-297v59h121v320h-121v59q83 0 102 19.5t19 99.5v96h66z" />
    <glyph glyph-name="two.numr" horiz-adv-x="612" 
d="M145 813l230 6l166 -24l-297 -35h-172l2 26h-2q0 112 50.5 180t164.5 101q96 29 138 72t42 108q0 54 -36.5 91.5t-108.5 37.5q-70 0 -115.5 -41t-54.5 -114l-66 10q9 94 75 148.5t163 54.5q99 0 157 -51t58 -138q0 -162 -217 -227q-99 -29 -138 -78t-39 -127z" />
    <glyph glyph-name="three.numr" horiz-adv-x="612" 
d="M391 1135v-17q162 -24 162 -172q0 -98 -62.5 -153.5t-179.5 -55.5q-121 0 -185 48.5t-67 134.5l70 8q13 -127 184 -127q166 0 166 151q0 138 -168 138h-86v61h111q50 0 86.5 32.5t36.5 84.5q0 110 -148 110q-78 0 -119.5 -33.5t-46.5 -84.5l-71 8q9 72 72.5 119t166.5 47
q102 0 159.5 -40.5t57.5 -117.5q0 -54 -39 -92t-100 -49z" />
    <glyph glyph-name="four.numr" horiz-adv-x="612" 
d="M483 954h82v-59h-82v-135h-65v135h-352l-17 61l346 457h88v-459zM418 1358l-297 -404h297v404z" />
    <glyph glyph-name="five.numr" horiz-adv-x="612" 
d="M336 1212q95 0 154 -56.5t59 -166.5q0 -120 -65 -186t-183 -66q-107 0 -168.5 49.5t-69.5 124.5l64 11q9 -57 54 -90t124 -33q82 0 127 50t45 142q0 79 -42 123.5t-120 44.5q-48 0 -84.5 -17.5t-54.5 -39.5l-90 33l31 278h401l2 -57h-344l-20 -199l16 -10q65 65 164 65z
" />
    <glyph glyph-name="six.numr" horiz-adv-x="612" 
d="M336 1186q101 0 158 -56t57 -155q0 -113 -63.5 -175.5t-174.5 -62.5q-133 1 -192.5 85.5t-59.5 256.5q0 169 70.5 262t198.5 93q100 0 154 -49t61 -121l-64 -11q-9 59 -47 92t-104 33q-199 0 -203 -315h18q16 48 66 85.5t125 37.5zM313 801q82 0 125 44t43 130
q0 73 -40.5 114t-118.5 41q-88 0 -131.5 -49t-43.5 -118t39 -115.5t127 -46.5z" />
    <glyph glyph-name="seven.numr" horiz-adv-x="612" 
d="M68 1413h469l8 -57q-154 -98 -219.5 -235.5t-65.5 -360.5h-76q0 207 70.5 354.5t226.5 239.5h-413v59z" />
    <glyph glyph-name="eight.numr" horiz-adv-x="612" 
d="M403 1137v-19q69 -10 112.5 -56.5t43.5 -127.5q0 -94 -64.5 -145.5t-193.5 -51.5q-121 0 -183.5 51.5t-62.5 145.5q0 77 44 125.5t104 58.5v19q-123 28 -123 137q0 71 59 115.5t162 44.5q112 0 171.5 -44t59.5 -116q0 -109 -129 -137zM150 1266q0 -49 36.5 -81t114.5 -32
q86 0 124 31.5t38 81.5q0 112 -162 112q-74 0 -112.5 -30t-38.5 -82zM301 801q96 0 142 37.5t46 103.5q0 152 -188 152q-178 0 -178 -152q0 -66 44.5 -103.5t133.5 -37.5z" />
    <glyph glyph-name="nine.numr" horiz-adv-x="612" 
d="M299 1434q133 -1 192.5 -85t59.5 -255q0 -170 -70 -263.5t-198 -93.5q-100 0 -154 49t-61 121l65 11q20 -119 150 -119q58 0 98.5 23.5t62 68t31 96.5t10.5 121h-18q-17 -49 -67.5 -86t-123.5 -37q-101 0 -158 58t-57 157q0 112 65 174t173 60zM291 1042q87 0 129.5 49.5
t42.5 118.5q0 70 -40 119t-124 49q-78 0 -123 -46.5t-45 -129.5q0 -75 41 -117.5t119 -42.5z" />
    <glyph glyph-name="two_fraction_seven" 
d="M92 0l1153 1444h82l-1153 -1444h-82zM541 795l-297 -35h-172l2 26h-2q0 112 50.5 180t164.5 101q96 29 138 72t42 108q0 54 -36.5 91.5t-108.5 37.5q-70 0 -115.5 -41t-54.5 -114l-66 10q9 94 75 148.5t163 54.5q99 0 157 -51t58 -138q0 -162 -217 -227q-99 -29 -138 -78
t-39 -127l230 6zM834 594v59h469l8 -57q-154 -98 -219.5 -235.5t-65.5 -360.5h-76q0 207 70.5 354.5t226.5 239.5h-413z" />
    <glyph glyph-name="three_fraction_seven" 
d="M92 0l1153 1444h82l-1153 -1444h-82zM313 801q166 0 166 151q0 138 -168 138h-86v61h111q50 0 86.5 32.5t36.5 84.5q0 110 -148 110q-78 0 -119.5 -33.5t-46.5 -84.5l-71 8q9 72 72.5 119t166.5 47q102 0 159.5 -40.5t57.5 -117.5q0 -54 -39 -92t-100 -49v-17
q162 -24 162 -172q0 -98 -62.5 -153.5t-179.5 -55.5q-121 0 -185 48.5t-67 134.5l70 8q13 -127 184 -127zM834 594v59h469l8 -57q-154 -98 -219.5 -235.5t-65.5 -360.5h-76q0 207 70.5 354.5t226.5 239.5h-413z" />
    <glyph glyph-name="four_fraction_seven" 
d="M92 0l1153 1444h82l-1153 -1444h-82zM483 760h-65v135h-352l-17 61l346 457h88v-459h82v-59h-82v-135zM418 1358l-297 -404h297v404zM834 594v59h469l8 -57q-154 -98 -219.5 -235.5t-65.5 -360.5h-76q0 207 70.5 354.5t226.5 239.5h-413z" />
    <glyph glyph-name="five_fraction_seven" 
d="M92 0l1153 1444h82l-1153 -1444h-82zM305 799q82 0 127 50t45 142q0 79 -42 123.5t-120 44.5q-48 0 -84.5 -17.5t-54.5 -39.5l-90 33l31 278h401l2 -57h-344l-20 -199l16 -10q65 65 164 65q95 0 154 -56.5t59 -166.5q0 -120 -65 -186t-183 -66q-107 0 -168.5 49.5
t-69.5 124.5l64 11q9 -57 54 -90t124 -33zM834 594v59h469l8 -57q-154 -98 -219.5 -235.5t-65.5 -360.5h-76q0 207 70.5 354.5t226.5 239.5h-413z" />
    <glyph glyph-name="six_fraction_seven" 
d="M92 0l1153 1444h82l-1153 -1444h-82zM313 737q-133 1 -192.5 85.5t-59.5 256.5q0 169 70.5 262t198.5 93q100 0 154 -49t61 -121l-64 -11q-9 59 -47 92t-104 33q-199 0 -203 -315h18q16 48 66 85.5t125 37.5q101 0 158 -56t57 -155q0 -113 -63.5 -175.5t-174.5 -62.5z
M322 1130q-88 0 -131.5 -49t-43.5 -118t39 -115.5t127 -46.5q82 0 125 44t43 130q0 73 -40.5 114t-118.5 41zM834 594v59h469l8 -57q-154 -98 -219.5 -235.5t-65.5 -360.5h-76q0 207 70.5 354.5t226.5 239.5h-413z" />
    <glyph glyph-name="two_fraction_nine" 
d="M92 0l1153 1444h82l-1153 -1444h-82zM541 795l-297 -35h-172l2 26h-2q0 112 50.5 180t164.5 101q96 29 138 72t42 108q0 54 -36.5 91.5t-108.5 37.5q-70 0 -115.5 -41t-54.5 -114l-66 10q9 94 75 148.5t163 54.5q99 0 157 -51t58 -138q0 -162 -217 -227q-99 -29 -138 -78
t-39 -127l230 6zM1065 674q133 -1 192.5 -85t59.5 -255q0 -170 -70 -263.5t-198 -93.5q-100 0 -154 49t-61 121l65 11q20 -119 150 -119q58 0 98.5 23.5t62 68t31 96.5t10.5 121h-18q-17 -49 -67.5 -86t-123.5 -37q-101 0 -158 58t-57 157q0 112 65 174t173 60zM1057 283
q87 0 129.5 49.5t42.5 118.5q0 70 -40 118.5t-124 48.5q-78 0 -123 -46.5t-45 -129.5q0 -75 41 -117t119 -42z" />
    <glyph glyph-name="four_fraction_nine" 
d="M92 0l1153 1444h82l-1153 -1444h-82zM483 760h-65v135h-352l-17 61l346 457h88v-459h82v-59h-82v-135zM418 1358l-297 -404h297v404zM1065 674q133 -1 192.5 -85t59.5 -255q0 -170 -70 -263.5t-198 -93.5q-100 0 -154 49t-61 121l65 11q20 -119 150 -119q58 0 98.5 23.5
t62 68t31 96.5t10.5 121h-18q-17 -49 -67.5 -86t-123.5 -37q-101 0 -158 58t-57 157q0 112 65 174t173 60zM1057 283q87 0 129.5 49.5t42.5 118.5q0 70 -40 118.5t-124 48.5q-78 0 -123 -46.5t-45 -129.5q0 -75 41 -117t119 -42z" />
    <glyph glyph-name="five_fraction_nine" 
d="M92 0l1153 1444h82l-1153 -1444h-82zM305 799q82 0 127 50t45 142q0 79 -42 123.5t-120 44.5q-48 0 -84.5 -17.5t-54.5 -39.5l-90 33l31 278h401l2 -57h-344l-20 -199l16 -10q65 65 164 65q95 0 154 -56.5t59 -166.5q0 -120 -65 -186t-183 -66q-107 0 -168.5 49.5
t-69.5 124.5l64 11q9 -57 54 -90t124 -33zM1065 674q133 -1 192.5 -85t59.5 -255q0 -170 -70 -263.5t-198 -93.5q-100 0 -154 49t-61 121l65 11q20 -119 150 -119q58 0 98.5 23.5t62 68t31 96.5t10.5 121h-18q-17 -49 -67.5 -86t-123.5 -37q-101 0 -158 58t-57 157
q0 112 65 174t173 60zM1057 283q87 0 129.5 49.5t42.5 118.5q0 70 -40 118.5t-124 48.5q-78 0 -123 -46.5t-45 -129.5q0 -75 41 -117t119 -42z" />
    <glyph glyph-name="seven_fraction_nine" 
d="M92 0l1153 1444h82l-1153 -1444h-82zM260 760h-76q0 207 70.5 354.5t226.5 239.5h-413v59h469l8 -57q-154 -98 -219.5 -235.5t-65.5 -360.5zM1065 674q133 -1 192.5 -85t59.5 -255q0 -170 -70 -263.5t-198 -93.5q-100 0 -154 49t-61 121l65 11q20 -119 150 -119
q58 0 98.5 23.5t62 68t31 96.5t10.5 121h-18q-17 -49 -67.5 -86t-123.5 -37q-101 0 -158 58t-57 157q0 112 65 174t173 60zM1057 283q87 0 129.5 49.5t42.5 118.5q0 70 -40 118.5t-124 48.5q-78 0 -123 -46.5t-45 -129.5q0 -75 41 -117t119 -42z" />
    <glyph glyph-name="eight_fraction_nine" 
d="M92 0l1153 1444h82l-1153 -1444h-82zM55 934q0 77 44 125.5t104 58.5v19q-123 28 -123 137q0 71 59 115.5t162 44.5q112 0 171.5 -44t59.5 -116q0 -109 -129 -137v-19q69 -10 112.5 -56.5t43.5 -127.5q0 -94 -64.5 -145.5t-193.5 -51.5q-121 0 -183.5 51.5t-62.5 145.5z
M150 1266q0 -49 36.5 -81t114.5 -32q86 0 124 31.5t38 81.5q0 112 -162 112q-74 0 -112.5 -30t-38.5 -82zM489 942q0 152 -188 152q-178 0 -178 -152q0 -66 44.5 -103.5t133.5 -37.5q96 0 142 37.5t46 103.5zM1065 674q133 -1 192.5 -85t59.5 -255q0 -170 -70 -263.5
t-198 -93.5q-100 0 -154 49t-61 121l65 11q20 -119 150 -119q58 0 98.5 23.5t62 68t31 96.5t10.5 121h-18q-17 -49 -67.5 -86t-123.5 -37q-101 0 -158 58t-57 157q0 112 65 174t173 60zM1057 283q87 0 129.5 49.5t42.5 118.5q0 70 -40 118.5t-124 48.5q-78 0 -123 -46.5
t-45 -129.5q0 -75 41 -117t119 -42z" />
    <glyph glyph-name="colon.ss01" horiz-adv-x="405" 
d="M203 1069q-40 0 -60 22.5t-20 57.5q0 36 20 59t60 23q39 0 59.5 -23t20.5 -59q0 -35 -20.5 -57.5t-59.5 -22.5zM203 162q-40 0 -60 22.5t-20 57.5q0 36 20 59t60 23q39 0 59.5 -23t20.5 -59q0 -35 -20.5 -57.5t-59.5 -22.5z" />
    <glyph glyph-name="periodcentered.ss01" horiz-adv-x="407" 
d="M203 621q-37 0 -58.5 22t-21.5 57t21.5 57.5t58.5 22.5t59.5 -22.5t22.5 -57.5q0 -34 -22.5 -56.5t-59.5 -22.5z" />
    <glyph glyph-name="asterisk.ss01" horiz-adv-x="1099" 
d="M963 1208l34 -106l-391 -105l254 -315l-88 -66l-221 342l-221 -342l-90 66l254 315l-392 105l35 106l379 -143l-22 403h112l-22 -405z" />
    <glyph glyph-name="numbersign.ss01" horiz-adv-x="2107" 
d="M1055 1530q286 0 489 -89t315.5 -277t112.5 -466q0 -209 -63.5 -368t-183.5 -261t-288 -153t-382 -51q-286 0 -489.5 89.5t-316 277.5t-112.5 466q0 209 63.5 368t184 260.5t288.5 152.5t382 51zM1055 -78q402 0 624 195t222 581q0 385 -222 580t-624 195
q-403 0 -625.5 -195t-222.5 -580q0 -386 222 -581t626 -195zM1038 795l-4 288h88v-800h-135l-305 721h-33q31 -238 31 -517v-204h-88v800h147l301 -716h33q-12 65 -23.5 188.5t-11.5 239.5zM1444 784q-147 0 -144 148q3 145 144 145q68 0 106 -36t37 -109q-3 -148 -143 -148
zM1444 1020q-80 0 -80 -88t80 -88t80 88t-80 88zM1604 621h-320v71h320v-71z" />
    <glyph glyph-name="arrowup.ss01" horiz-adv-x="2107" 
d="M1055 1538q214 0 382 -51t288 -153t183.5 -261t63.5 -368q0 -278 -112.5 -466t-315.5 -277t-489 -89q-214 0 -382 51t-288.5 152.5t-184 260.5t-63.5 368q0 278 112.5 466t316 277.5t489.5 89.5zM1055 -70q402 0 624 195t222 580q0 386 -222 581t-624 195
q-404 0 -626 -195t-222 -581q0 -385 222.5 -580t625.5 -195zM522 754l500 499h68l499 -499l-35 -35l-499 387l-498 -387zM522 262l500 500h68l499 -500l-35 -35l-499 387l-498 -387z" />
    <glyph glyph-name="arrowright.ss01" horiz-adv-x="2107" 
d="M1055 1538q214 0 382 -51t288 -153t183.5 -261t63.5 -368q0 -278 -112.5 -466t-315.5 -277t-489 -89q-214 0 -382 51t-288.5 152.5t-184 260.5t-63.5 368q0 278 112.5 466t316 277.5t489.5 89.5zM1055 -70q402 0 624 195t222 580q0 386 -222 581t-624 195
q-404 0 -626 -195t-222 -581q0 -385 222.5 -580t625.5 -195zM598 1241l500 -500v-67l-500 -500l-35 35l387 498l-387 499zM1442 707l-387 499l35 35l499 -500v-67l-499 -500l-35 35z" />
    <glyph glyph-name="arrowdown.ss01" horiz-adv-x="2107" 
d="M1055 1538q214 0 382 -51t288 -153t183.5 -261t63.5 -368q0 -278 -112.5 -466t-315.5 -277t-489 -89q-214 0 -382 51t-288.5 152.5t-184 260.5t-63.5 368q0 278 112.5 466t316 277.5t489.5 89.5zM1055 -70q402 0 624 195t222 580q0 386 -222 581t-624 195
q-404 0 -626 -195t-222 -581q0 -385 222.5 -580t625.5 -195zM555 1202l498 -389l497 389l37 -37l-500 -499h-67l-502 499zM555 711l498 -389l497 389l37 -37l-500 -500h-67l-502 500z" />
    <glyph glyph-name="arrowleft.ss01" horiz-adv-x="2107" 
d="M1055 1538q214 0 382 -51t288 -153t183.5 -261t63.5 -368q0 -278 -112.5 -466t-315.5 -277t-489 -89q-214 0 -382 51t-288.5 152.5t-184 260.5t-63.5 368q0 278 112.5 466t316 277.5t489.5 89.5zM1055 -70q402 0 624 195t222 580q0 386 -222 581t-624 195
q-404 0 -626 -195t-222 -581q0 -385 222.5 -580t625.5 -195zM991 1253l35 -34l-387 -500l387 -498l-35 -35l-499 500v68zM983 754l500 499l35 -34l-388 -500l388 -498l-35 -35l-500 500v68z" />
    <glyph glyph-name="arrowup.ss02" horiz-adv-x="2107" 
d="M1055 1491q286 0 489 -89.5t315.5 -278t112.5 -466.5q0 -209 -63.5 -368t-183.5 -261t-288 -153t-382 -51q-286 0 -489.5 89.5t-316 277.5t-112.5 466q0 209 63.5 368t183.5 261t288.5 153.5t382.5 51.5zM1055 -119q402 0 624 195t222 581t-222 581.5t-624 195.5
q-266 0 -454 -83.5t-291 -259t-103 -434.5q0 -386 222 -581t626 -195zM522 707l500 499h68l499 -499l-35 -37l-499 389l-498 -389zM522 215l500 500h68l499 -500l-35 -37l-499 389l-498 -389z" />
    <glyph glyph-name="at.ss01" horiz-adv-x="1982" 
d="M1012 -156q135 0 260 24.5t214 62.5t150.5 77t96.5 76l39 -86q-38 -32 -102.5 -66.5t-158.5 -70t-226 -58t-273 -22.5q-231 0 -400 55t-272.5 162t-153 254t-49.5 340q0 146 33.5 271t104.5 229t175 177t251 113.5t327 40.5q221 0 384.5 -49.5t264 -144.5t149 -225
t48.5 -299q0 -84 -13.5 -158.5t-44.5 -140.5t-76 -113.5t-112.5 -75t-150.5 -27.5q-59 0 -98.5 12.5t-59 35.5t-26.5 47t-7 55q0 36 8 90h-34q-28 -240 -185 -240q-83 0 -120 59t-11 179h-26q-29 -115 -98.5 -176.5t-164.5 -61.5q-99 0 -161 55.5t-62 147.5
q0 107 80.5 167.5t230.5 60.5q85 0 172 -17v80q0 81 -41 122.5t-137 41.5q-180 0 -211 -186l-75 14q11 111 90 178.5t200 67.5q124 0 190 -60.5t66 -161.5v-309q0 -125 90 -125q40 0 69.5 25.5t47.5 68t29.5 109.5t16 136.5t5.5 162.5v66h-139v69h133l45 205h47l2 -205h263
v-69h-263l3 -365v-51q0 -83 30 -117.5t123 -34.5q138 0 223.5 111.5t85.5 324.5q0 122 -25 221t-82.5 183t-146.5 140.5t-222 88t-304 31.5q-394 0 -611 -200.5t-216 -573.5q1 -162 38.5 -288t106 -212t169.5 -142t223.5 -81t273.5 -25zM672 266q91 0 157.5 74.5t79.5 198.5
q-193 32 -290 -5.5t-97 -134.5q0 -65 41.5 -99t108.5 -34z" />
    <glyph glyph-name="copyright.ss01" horiz-adv-x="987" 
d="M494 643q-172 0 -292 120t-120 292q0 112 55 206.5t149.5 149.5t207.5 55q171 0 291 -120t120 -291q0 -172 -119.5 -292t-291.5 -120zM494 698q149 0 249.5 103t100.5 254t-100.5 252.5t-249.5 101.5t-250 -101.5t-101 -252.5t101 -254t250 -103zM498 823
q-95 0 -153 58.5t-58 175.5q0 110 60 170.5t157 60.5q68 0 119.5 -34t60.5 -91l-47 -12q-12 40 -46.5 62t-86.5 22q-70 0 -111 -45.5t-41 -134.5q0 -176 148 -176q53 0 90.5 23.5t50.5 64.5l49 -15q-12 -55 -65.5 -92t-126.5 -37z" />
    <glyph glyph-name="registered.ss01" horiz-adv-x="987" 
d="M494 1466q171 0 291 -120t120 -291q0 -172 -119.5 -292t-291.5 -120t-292 120t-120 292q0 112 55 206.5t149.5 149.5t207.5 55zM494 698q149 0 249.5 103t100.5 254t-100.5 252.5t-249.5 101.5t-250 -101.5t-101 -252.5t101 -254t250 -103zM559 1059v-17q78 0 94 -69
l37 -146h-61l-37 146q-9 32 -27.5 42.5t-60.5 10.5h-111v-199h-61v457h188q135 0 135 -115q0 -44 -25.5 -72.5t-70.5 -37.5zM393 1237v-164h105q42 0 68 23.5t26 66.5q0 41 -23 57.5t-80 16.5h-96z" />
    </font>
</defs>
</svg>
