<svg width="3000" height="711" viewBox="0 0 3000 711" fill="none" xmlns="http://www.w3.org/2000/svg">
<path opacity="0.2" fill-rule="evenodd" clip-rule="evenodd" d="M22.8457 196.859H0.269154C0.269154 196.859 -0.336615 114.912 0.269413 114.912C64.5903 114.912 -16.6279 115.039 47.6929 114.912C117.468 114.781 186.293 100.751 252.432 79.1993C265.09 75.0826 277.687 70.8036 290.283 66.525L290.286 66.5241C312.34 59.0326 334.39 51.5426 356.751 44.9291C387.331 35.833 418.255 27.835 449.375 21.0826C536.463 2.23481 628.35 -8.02493 716.798 7.74164C763.151 16.0019 808.668 32.0635 847.307 59.4009C868.819 74.6665 888.317 92.591 905.338 112.748C924.764 135.759 941.045 162.474 948.039 191.975C950.604 202.778 951.653 213.856 952.042 224.995C956.339 224.729 960.639 224.512 964.942 224.344C966.7 224.263 968.459 224.183 970.218 224.102L971.94 224.024C998.76 222.795 1025.65 221.563 1052.49 221.246C1121.21 220.445 1189.96 220.712 1258.71 220.979H1258.72C1286.07 221.085 1313.42 221.191 1340.77 221.23C1348.76 221.23 1359.22 220.999 1370.92 220.74C1406.67 219.949 1454.03 218.9 1478.14 223.407C1498.73 227.261 1518.81 233.446 1538 241.843C1552.75 248.296 1566.74 256.286 1580.72 264.265L1580.72 264.266C1585.43 266.951 1590.13 269.635 1594.86 272.26C1633.14 293.526 1671.92 313.978 1711.51 332.618C1740.43 346.291 1770.06 359.115 1800.26 370.712L1800.27 370.694C1850.46 308.115 1921.11 262.736 1993.95 230.541C2067.32 198.057 2148.57 185.229 2227.92 200.243C2276.03 209.444 2328.73 230.422 2358.53 271.412C2368.23 284.768 2371.1 296.608 2371.86 311.581C2376.61 296.766 2378.43 400.989 2372.11 385.098C2371.99 387.655 2371.84 390.208 2371.66 392.756C2371.23 399.734 2369.87 406.623 2367.62 413.243C2362.65 427.51 2353.49 439.88 2342.57 450.183C2318.58 472.788 2287 486.7 2255.82 495.935C2214.67 508.101 2171.39 514.032 2128.61 515.964C2015.22 521.058 1905.19 495.783 1800.39 455.371C1784.38 475.325 1770.22 497.564 1761.2 521.617C1761.59 522.269 1762 522.916 1762.41 523.555C1771.33 536.76 1781.77 548.874 1793.52 559.648C1814.7 579.522 1839.51 595.146 1866.59 605.671C1925.52 628.801 1991.1 629.377 2053.28 623.277C2128.49 615.94 2202.48 598.487 2275.72 580.355C2285.83 577.854 2295.92 575.297 2306.02 572.741C2337.76 564.702 2369.51 556.663 2401.68 550.312C2439.63 542.811 2477.83 537.162 2516.28 533.367C2553.82 529.639 2591.47 527.944 2629.18 527.944H3000.27C3000.91 527.944 3000.27 612.67 3000.27 612.67H2769.88C2752.23 612.67 2734.55 612.545 2716.87 612.421L2716.85 612.42H2716.85C2674.05 612.119 2631.22 611.817 2588.49 613.28C2516.13 615.856 2444.17 625.108 2373.53 640.917C2342.69 647.771 2312.04 655.413 2281.4 663.056L2281.39 663.057C2232.64 675.214 2183.89 687.372 2134.36 696.361C2010.87 718.78 1859.06 729.506 1771.71 620.786C1760.55 606.891 1753.05 592.945 1751.66 574.916C1750.33 557.543 1750.62 539.908 1750.9 522.386C1750.99 516.784 1751.08 511.194 1751.11 505.627C1751.13 503.664 1751.13 501.697 1751.13 499.729C1751.13 489.979 1751.14 480.189 1752.42 470.517C1753.86 459.797 1756.57 449.292 1760.26 439.079C1712.18 418.6 1665.27 395.272 1619.74 370.626C1611.36 366.093 1603.06 361.4 1594.77 356.709L1594.76 356.707C1564.73 339.725 1534.73 322.764 1501.21 313.47C1475.89 306.606 1449.75 303.219 1423.51 303.405C1407.68 303.405 1400.17 303.352 1392.66 303.299H1392.65C1385.14 303.246 1377.64 303.193 1361.81 303.193C1329.51 303.193 1297.18 303.023 1264.85 302.854C1170.7 302.361 1076.46 301.867 982.451 305.553C972.228 305.953 962.029 306.49 951.864 307.217C951.648 317.406 951.229 327.588 950.43 337.742C946.466 388.565 930.775 436.275 899.655 476.969C865.422 521.516 819.56 562.604 767.147 583.795C739.614 594.956 703.662 604.413 675.981 588.712C651.03 574.564 645.894 546.796 645.125 520.527C643.056 533.418 642.699 441.043 645.02 449.673C645.077 447.282 645.143 444.892 645.221 442.503C645.368 436.464 645.915 430.441 646.859 424.474C649.367 410.232 653.774 396.39 659.962 383.32C672.508 356.262 691.459 332.448 713.571 312.551C761.758 269.185 824.245 244.601 887.321 232.768C900.957 230.327 914.674 228.388 928.443 226.954C902.643 182.891 860.865 145.581 815.76 122.172C764.707 95.7362 706.708 84.87 649.66 82.6247C545.161 78.4946 440.416 101.063 341.076 131.596C323.754 136.922 306.623 142.798 289.494 148.674C272.677 154.443 255.862 160.211 238.87 165.457C205.012 176.06 170.433 184.205 135.403 189.828C97.9933 195.679 60.5178 196.859 22.8457 196.859ZM933.674 334.529C936.882 325.816 939.65 316.957 941.97 307.987C900.613 311.479 859.858 318.436 820.297 332.563C763.282 352.951 708.936 387.647 674.834 438.733C665.862 452.227 658.375 466.739 653.135 482.026C653.554 482.895 653.989 483.755 654.442 484.607C660.684 496.408 670.964 505.566 683.401 510.404C711.638 521.319 745.134 511.485 771.635 500.013C800.217 487.704 825.997 469.561 849.059 448.829C884.537 416.919 916.525 379.633 933.674 334.529ZM1863.51 392.845C1872.42 385.801 1881.64 379.134 1891.14 372.863C1957.19 329.246 2029.48 292.56 2108.83 282.003C2175.25 273.107 2249.41 279.885 2308.63 313.555C2326.06 323.453 2342.51 335.965 2355.14 351.652C2345.08 364.972 2331.5 375.94 2317.38 384.622C2287.44 403.042 2253.42 413.175 2219.2 420.207C2099.86 444.685 1978.57 429.073 1863.51 392.845Z" fill="#D1D3D4"/>
</svg>
