<svg width="48" height="58" viewBox="0 0 48 58" fill="none" xmlns="http://www.w3.org/2000/svg">
<path d="M18.1022 1.45294C14.8131 1.16244 11.4639 1.38613 8.17946 1.65338C6.54421 1.78991 4.902 1.94387 3.28065 2.26051C2.62747 2.37671 1.3188 2.43772 0.855559 3.16686C0.427058 3.85242 0.392315 5.66801 0.295033 6.52788C0.153036 7.91639 0.075697 9.3141 0.0634108 10.7139C-0.0292382 15.9079 -0.00376036 21.1136 0.0356154 26.3076C0.051829 28.2249 0.0657263 30.1393 0.225546 32.0449C0.681152 37.3298 2.12381 42.4055 4.43644 46.8601C7.01903 51.8334 10.6902 55.8858 15.1814 57.8989C15.1675 57.8989 15.237 54.8081 15.2324 55.2206C15.2509 53.0612 15.2578 50.9038 15.2532 48.7483C15.2532 46.5929 15.2532 44.4345 15.2324 42.279C15.2324 41.9682 15.3227 39.6646 15.1814 39.5978C6.32416 35.6151 0.820815 23.9982 0.146794 12.5818L0.165324 12.91C0.151427 12.6544 0.139846 12.3988 0.130581 12.146C0.0441082 9.14233 0.040248 11.6386 0.119 19.635C0.0387039 27.6294 0.0425641 30.1257 0.130581 27.1239C0.139846 26.8702 0.151427 26.6175 0.165324 26.3657L0.146794 26.694C0.234728 25.1262 0.431582 23.571 0.735115 22.0461C0.878721 21.346 0.980636 21.2385 1.51105 21.009C2.98185 20.3758 4.68428 20.2973 6.21993 20.1375C10.1413 19.7076 14.1738 19.4026 18.1068 19.7483C17.8752 19.7279 18.5585 1.4878 18.1068 1.44713L18.1022 1.45294Z" fill="#231F20"/>
<path d="M47.1416 0.183155C42.3452 -0.150159 37.5353 -0.0284082 32.7537 0.547346C31.8149 0.660973 30.6554 0.614357 29.7823 1.13005C28.8247 1.67779 28.6979 3.0588 28.543 4.21547C27.9867 8.33811 28.0971 12.5685 28.0877 16.7291C28.0689 24.8461 27.6722 33.2167 29.8292 41.0191C31.1155 45.6808 33.4649 49.177 36.5561 52.1604C39.429 54.9458 43.4238 57.8389 47.1416 56.0092C47.2402 55.9626 47.1956 52.9733 47.1933 53.3229C47.212 51.1591 47.2191 48.9954 47.2144 46.8316C47.2144 44.6698 47.2144 42.505 47.1933 40.3432C47.1933 40.0518 47.0689 37.689 47.1416 37.654C42.6234 39.8799 37.7156 35.3232 34.5822 31.7133C30.2963 26.7603 28.6862 19.8378 28.2449 12.7579L28.2637 13.0842C27.8647 5.38671 27.7943 33.9101 28.2637 25.2599L28.2426 25.5862C28.3599 23.8905 28.2778 20.5662 29.6321 19.5639C30.3057 19.0657 31.3126 19.1007 32.0567 19.0045C33.0581 18.8744 34.0611 18.7637 35.0657 18.6724C39.0841 18.3136 43.1168 18.2737 47.1393 18.5529C46.9797 18.5529 47.5172 0.221032 47.1393 0.197724L47.1416 0.183155Z" fill="#231F20"/>
</svg>
